STARTFONT 2.1
COMMENT
COMMENT Converted from OpenType font "BeVietnam-Thin.ttf" by "otf2bdf 3.0".
COMMENT
FONT -FreeType-Be Vietnam Thin-Medium-R-Normal--55-400-100-100-P-244-ISO10646-1
SIZE 40 100 100
FONTBOUNDINGBOX 86 73 -19 -14
STARTPROPERTIES 19
FOUNDRY "FreeType"
FAMILY_NAME "Be Vietnam Thin"
WEIGHT_NAME "Medium"
SLANT "R"
SETWIDTH_NAME "Normal"
ADD_STYLE_NAME ""
PIXEL_SIZE 55
POINT_SIZE 400
RESOLUTION_X 100
RESOLUTION_Y 100
SPACING "P"
AVERAGE_WIDTH 244
CHARSET_REGISTRY "ISO10646"
CHARSET_ENCODING "1"
FONT_ASCENT 66
FONT_DESCENT 14
COPYRIGHT "Copyright 2019 The Bevietnam Project Authors (https://github.com/bettergui/beVietnam)"
_OTF_FONTFILE "BeVietnam-Thin.ttf"
_OTF_PSNAME "BeVietnam-Thin"
ENDPROPERTIES
CHARS 445
STARTCHAR 000D
ENCODING 13
SWIDTH 594 0
DWIDTH 33 0
BBX 0 0 0 0
BITMAP
ENDCHAR
STARTCHAR 0020
ENCODING 32
SWIDTH 216 0
DWIDTH 12 0
BBX 0 0 0 0
BITMAP
ENDCHAR
STARTCHAR 0021
ENCODING 33
SWIDTH 198 0
DWIDTH 11 0
BBX 4 43 4 0
BITMAP
60
60
60
60
60
60
60
60
60
60
60
60
60
60
60
60
60
60
60
60
60
60
60
60
60
60
60
60
60
60
60
60
60
60
60
00
00
00
00
00
F0
F0
F0
ENDCHAR
STARTCHAR 0022
ENCODING 34
SWIDTH 486 0
DWIDTH 27 0
BBX 17 12 6 29
BITMAP
080100
180700
300400
600C00
400800
C01800
C01800
E01E00
F81F00
F81F80
780F00
300000
ENDCHAR
STARTCHAR 0023
ENCODING 35
SWIDTH 864 0
DWIDTH 48 0
BBX 38 39 5 0
BITMAP
0001800600
0001800600
0001800600
0003000600
0003000600
0003000C00
0003000C00
0003000C00
0006000C00
0006001C00
0006001800
0006001800
7FFFFFFFFC
7FFFFFFFFC
000C003000
000C003000
000C003000
0018003000
0018003000
0018006000
0018006000
0018006000
0030006000
003000E000
003000C000
FFFFFFFFF8
FFFFFFFFF8
006000C000
0060018000
0060018000
0060018000
00C0018000
00C0018000
00C0030000
00C0030000
01C0030000
0180030000
0180070000
0180060000
ENDCHAR
STARTCHAR 0024
ENCODING 36
SWIDTH 540 0
DWIDTH 30 0
BBX 24 46 3 -4
BITMAP
001800
001800
001800
003C00
01FFC0
0799E0
0E1830
1C1818
38181C
30180C
601806
601806
601806
601803
601803
601800
601800
701800
301800
381800
1E1800
07F800
01FF80
001FF0
001838
00180C
001806
001803
001803
001803
C01801
C01801
C01801
601803
601803
701803
301806
18180E
1C181C
071838
03FFF0
00FFC0
001800
001800
001800
001800
ENDCHAR
STARTCHAR 0025
ENCODING 37
SWIDTH 846 0
DWIDTH 47 0
BBX 45 40 1 -1
BITMAP
0FF00001C000
181800018000
300C00038000
600C00030000
600600070000
600600060000
E006000E0000
E006000C0000
E006001C0000
600600180000
600600300000
600C00300000
300C00600000
381800600000
0FF000C00000
01C000C00000
000001800000
000001800000
000003000000
000003000000
000006000000
000006000000
00000C000000
00000C000000
000018003FC0
00001800E060
00003000C030
000030018030
000060018018
000060038018
0000C0030018
0000C0030018
000180030018
000380038018
000300018018
000700018030
00060000C030
000E0000E060
000C00003FC0
000000000400
ENDCHAR
STARTCHAR 0026
ENCODING 38
SWIDTH 594 0
DWIDTH 33 0
BBX 31 40 4 0
BITMAP
00010000
001FF000
007E7C00
00E00E00
00C00700
01800300
01800380
03000180
03000180
03000180
03000180
03000180
01800000
01800000
00C00000
00C00000
00600000
00300000
00180000
003C0000
01FE0000
07870018
0E030030
18018070
3000C060
600060C0
600030C0
40001980
C0001F80
C0000F00
C0000600
C0000700
C0000D80
40001CC0
60003860
70007030
3800E038
1C01C01C
0FFF800E
03FE0006
ENDCHAR
STARTCHAR 0027
ENCODING 39
SWIDTH 288 0
DWIDTH 16 0
BBX 5 12 5 31
BITMAP
70
F8
F8
F8
18
18
18
18
10
30
E0
80
ENDCHAR
STARTCHAR 0028
ENCODING 40
SWIDTH 414 0
DWIDTH 23 0
BBX 14 54 6 -12
BITMAP
000C
0018
0030
0060
00C0
01C0
0380
0300
0600
0600
0C00
0C00
1C00
1800
3800
3800
3000
7000
7000
7000
6000
6000
6000
6000
E000
E000
E000
E000
E000
E000
6000
6000
6000
6000
7000
7000
7000
3000
3000
3800
1800
1800
1C00
0C00
0E00
0600
0300
0300
0180
00C0
0060
0030
0018
000C
ENDCHAR
STARTCHAR 0029
ENCODING 41
SWIDTH 414 0
DWIDTH 23 0
BBX 13 54 4 -12
BITMAP
C000
E000
7000
3800
1C00
0E00
0600
0300
0380
0180
01C0
00C0
00E0
0060
0060
0070
0030
0030
0038
0038
0038
0038
0018
0018
0018
0018
0018
0018
0018
0018
0018
0018
0038
0038
0038
0038
0030
0030
0070
0070
0060
00E0
00C0
01C0
0180
0180
0300
0600
0600
0C00
1800
3000
6000
C000
ENDCHAR
STARTCHAR 002A
ENCODING 42
SWIDTH 486 0
DWIDTH 27 0
BBX 18 20 5 23
BITMAP
01C000
01C000
00C000
00C000
40C180
F0C3C0
F8C7C0
7C9F00
0FBC00
03E000
03E000
0FBC00
7C9F00
F8C7C0
F0C3C0
40C180
00C000
00C000
01C000
01C000
ENDCHAR
STARTCHAR 002B
ENCODING 43
SWIDTH 558 0
DWIDTH 31 0
BBX 20 21 6 7
BITMAP
006000
006000
006000
006000
006000
006000
006000
006000
006000
006000
FFFFF0
FFFFF0
006000
006000
006000
006000
006000
006000
006000
006000
006000
ENDCHAR
STARTCHAR 002C
ENCODING 44
SWIDTH 252 0
DWIDTH 14 0
BBX 6 11 4 -8
BITMAP
78
78
FC
7C
0C
0C
08
08
18
30
60
ENDCHAR
STARTCHAR 002D
ENCODING 45
SWIDTH 594 0
DWIDTH 33 0
BBX 20 2 7 16
BITMAP
FFFFF0
FFFFF0
ENDCHAR
STARTCHAR 002E
ENCODING 46
SWIDTH 216 0
DWIDTH 12 0
BBX 4 4 4 0
BITMAP
70
F0
F0
70
ENDCHAR
STARTCHAR 002F
ENCODING 47
SWIDTH 468 0
DWIDTH 26 0
BBX 21 52 4 -7
BITMAP
000018
000018
000030
000030
000030
000060
000060
0000E0
0000C0
0000C0
000180
000180
000180
000300
000300
000300
000600
000600
000E00
000C00
000C00
001800
001800
001800
003000
003000
007000
006000
006000
00C000
00C000
00C000
018000
018000
018000
030000
030000
070000
060000
060000
0C0000
0C0000
0C0000
180000
180000
380000
300000
300000
600000
600000
600000
C00000
ENDCHAR
STARTCHAR 0030
ENCODING 48
SWIDTH 576 0
DWIDTH 32 0
BBX 26 40 3 0
BITMAP
001F0000
00FFE000
03C0F800
07001C00
0E000E00
1C000600
18000300
30000300
30000180
60000180
60000080
600000C0
600000C0
400000C0
400000C0
C00000C0
C00000C0
C00000C0
C00000C0
C00000C0
C00000C0
C00000C0
C00000C0
C00000C0
C00000C0
C00000C0
400000C0
600000C0
600000C0
600000C0
60000080
20000180
30000180
30000300
18000300
1C000600
0E000C00
07003800
01FBF000
00FFC000
ENDCHAR
STARTCHAR 0031
ENCODING 49
SWIDTH 450 0
DWIDTH 25 0
BBX 17 39 6 0
BITMAP
01C000
03C000
07C000
0EC000
1CC000
38C000
70C000
C0C000
80C000
00C000
00C000
00C000
00C000
00C000
00C000
00C000
00C000
00C000
00C000
00C000
00C000
00C000
00C000
00C000
00C000
00C000
00C000
00C000
00C000
00C000
00C000
00C000
00C000
00C000
00C000
00C000
00C000
FFFF80
FFFF80
ENDCHAR
STARTCHAR 0032
ENCODING 50
SWIDTH 558 0
DWIDTH 31 0
BBX 24 40 5 0
BITMAP
007C00
03FFC0
0F81F0
1C0038
18001C
30000C
30000E
600006
600006
600003
C00003
C00003
000003
000003
000006
000006
000006
00000C
00000C
000018
000038
000070
000060
0000C0
000180
000700
000E00
001C00
003800
007000
00E000
01C000
038000
060000
0C0000
380000
700000
E00000
FFFFFF
FFFFFF
ENDCHAR
STARTCHAR 0033
ENCODING 51
SWIDTH 576 0
DWIDTH 32 0
BBX 24 40 5 0
BITMAP
007C00
03FFC0
0F81F0
1C0078
38001C
30000C
60000E
600006
600006
000006
000002
000002
000006
000006
000006
00000C
00000C
000038
0000F0
00FFC0
00FFC0
0000F0
000038
00001C
00000E
000006
000002
000003
000003
000003
000003
000003
C00003
C00006
600006
70000C
38001C
1C0078
0FE7E0
03FFC0
ENDCHAR
STARTCHAR 0034
ENCODING 52
SWIDTH 576 0
DWIDTH 32 0
BBX 27 39 3 0
BITMAP
00003800
00007800
0000F800
0000D800
00019800
00039800
00031800
00061800
000E1800
000C1800
00181800
00301800
00701800
00601800
00C01800
01C01800
01801800
03001800
07001800
06001800
0C001800
1C001800
18001800
30001800
60001800
E0001800
C0001800
FFFFFFE0
FFFFFFE0
00001800
00001800
00001800
00001800
00001800
00001800
00001800
00001800
00001800
00001800
ENDCHAR
STARTCHAR 0035
ENCODING 53
SWIDTH 594 0
DWIDTH 33 0
BBX 24 39 6 0
BITMAP
7FFFF8
7FFFF8
600000
600000
600000
600000
600000
600000
600000
600000
400000
400000
400000
C1FF80
C7E7E0
CE0070
D80018
F0000C
E00006
E00006
000003
000003
000003
000003
000003
000003
000003
000003
000003
000003
800003
C00006
C00006
60000C
30001C
380038
0F00F0
07FFC0
00FF00
ENDCHAR
STARTCHAR 0036
ENCODING 54
SWIDTH 576 0
DWIDTH 32 0
BBX 25 39 4 0
BITMAP
00060000
000E0000
000C0000
00180000
00380000
00700000
00600000
00C00000
01C00000
01800000
03000000
07000000
06000000
0C000000
1C000000
18FF8000
33FFE000
3F007000
7C001C00
78000C00
70000600
E0000700
E0000300
C0000300
C0000180
C0000180
C0000180
C0000180
C0000180
C0000180
C0000300
60000300
60000300
30000600
38000E00
1C001C00
0F007800
03FFE000
00FF8000
ENDCHAR
STARTCHAR 0037
ENCODING 55
SWIDTH 486 0
DWIDTH 27 0
BBX 23 39 2 0
BITMAP
FFFFFE
FFFFFE
00000E
00000C
00000C
000018
000018
000030
000030
000070
000060
000060
0000C0
0000C0
0001C0
000180
000180
000300
000300
000600
000600
000600
000C00
000C00
001800
001800
003800
003000
003000
006000
006000
00C000
00C000
00C000
018000
018000
030000
030000
030000
ENDCHAR
STARTCHAR 0038
ENCODING 56
SWIDTH 612 0
DWIDTH 34 0
BBX 26 40 4 0
BITMAP
001E0000
01FFE000
03C0F800
0E001C00
0C000E00
18000600
30000300
30000300
30000100
20000180
60000180
20000180
30000100
30000300
30000300
18000600
1C000E00
0F001C00
03E1F000
03FFF000
0F807C00
1C000E00
38000700
70000380
60000180
C00000C0
C00000C0
C00000C0
80000040
80000040
C0000040
C00000C0
C00000C0
C00000C0
60000180
30000380
38000700
1E001E00
07FFF800
01FFE000
ENDCHAR
STARTCHAR 0039
ENCODING 57
SWIDTH 576 0
DWIDTH 32 0
BBX 25 40 4 0
BITMAP
003E0000
01FFC000
0781F000
0E003800
18001C00
30000E00
70000600
60000300
40000300
C0000300
C0000100
C0000180
C0000180
C0000180
C0000180
C0000380
C0000380
60000300
60000700
30000700
38000F00
1C001A00
0F007600
03FFEC00
00FF8C00
00001800
00003800
00003000
00007000
0000E000
0000C000
0001C000
00038000
00030000
00060000
000E0000
000C0000
00180000
00380000
00300000
ENDCHAR
STARTCHAR 003A
ENCODING 58
SWIDTH 252 0
DWIDTH 14 0
BBX 4 29 4 0
BITMAP
60
F0
F0
E0
00
00
00
00
00
00
00
00
00
00
00
00
00
00
00
00
00
00
00
00
00
60
F0
F0
E0
ENDCHAR
STARTCHAR 003B
ENCODING 59
SWIDTH 270 0
DWIDTH 15 0
BBX 6 36 4 -8
BITMAP
70
70
F8
70
00
00
00
00
00
00
00
00
00
00
00
00
00
00
00
00
00
00
00
00
00
78
F8
F8
7C
0C
08
08
18
18
30
60
ENDCHAR
STARTCHAR 003C
ENCODING 60
SWIDTH 540 0
DWIDTH 30 0
BBX 19 23 6 7
BITMAP
000020
000060
0001E0
000780
001E00
007800
00E000
038000
0F0000
3C0000
F00000
C00000
E00000
380000
0E0000
078000
01E000
007800
001C00
000700
0003C0
0000E0
000020
ENDCHAR
STARTCHAR 003D
ENCODING 61
SWIDTH 702 0
DWIDTH 39 0
BBX 26 14 7 11
BITMAP
FFFFFFC0
FFFFFFC0
00000000
00000000
00000000
00000000
00000000
00000000
00000000
00000000
00000000
00000000
FFFFFFC0
FFFFFFC0
ENDCHAR
STARTCHAR 003E
ENCODING 62
SWIDTH 540 0
DWIDTH 30 0
BBX 19 23 6 7
BITMAP
800000
C00000
F00000
3C0000
0F0000
03C000
00E000
007800
001E00
000780
0001E0
000060
0000E0
000380
000E00
003C00
00F000
03C000
070000
1C0000
780000
E00000
800000
ENDCHAR
STARTCHAR 003F
ENCODING 63
SWIDTH 576 0
DWIDTH 32 0
BBX 24 40 4 0
BITMAP
007F00
03FFE0
0F80F0
1C0038
38000C
300006
600006
600003
C00003
C00003
C00003
C00003
000003
000003
000003
000006
000006
00000C
000018
000030
000060
0000C0
000180
000300
000600
000C00
000C00
001800
001800
001800
001800
000000
000000
000000
000000
000000
001000
003800
003C00
003800
ENDCHAR
STARTCHAR 0040
ENCODING 64
SWIDTH 1008 0
DWIDTH 56 0
BBX 48 49 4 -9
BITMAP
000000800000
00007FFF0000
0003FE7FE000
000F8001F800
003C00003E00
007000000F00
01E000000380
0380000001C0
0700000000E0
060000000070
0E0000000038
1C0000000018
18000000001C
38001F00000C
30007FC40006
7000E0E40006
600180340006
6003001C0003
6006001C0003
C006000C0003
C006000C0003
C00C000C0003
C00C00040003
C00C00040003
C00C00060003
C00C00060003
C00C00060003
C00C00060003
C006000E0006
C006000E0006
C006000B000E
6003001B000C
600380318018
6001C071C070
3000FFE07FE0
30003F803F80
380000000000
180000000000
0C0000000000
0E0000000000
070000000000
038000000000
01C000000000
00E000000000
007800000000
001E00000000
000FC0000000
0001FFFFFFE0
00003FFFFFE0
ENDCHAR
STARTCHAR 0041
ENCODING 65
SWIDTH 684 0
DWIDTH 38 0
BBX 32 39 3 0
BITMAP
00018000
00038000
0003C000
0003C000
00066000
00066000
000C6000
000C3000
000C3000
00181800
00181800
00301800
00300C00
00300C00
00600600
00600600
00600600
00C00300
00C00300
01800180
01800180
01800180
030000C0
030000C0
07FFFFE0
07FFFFE0
06000060
0C000030
0C000030
18000018
18000018
18000018
3000000C
3000000C
20000006
60000006
60000006
C0000003
C0000003
ENDCHAR
STARTCHAR 0042
ENCODING 66
SWIDTH 612 0
DWIDTH 34 0
BBX 27 39 5 0
BITMAP
FFFFE000
FFFFF800
C0003E00
C0000F00
C0000300
C0000180
C0000180
C0000180
C00000C0
C00000C0
C00000C0
C00000C0
C0000180
C0000180
C0000380
C0000700
C0000E00
C0003C00
FFFFF000
FFFFF800
C0001E00
C0000300
C0000180
C00000C0
C00000E0
C0000060
C0000060
C0000060
C0000060
C0000060
C0000060
C0000060
C00000C0
C00000C0
C0000180
C0000700
C0001E00
FFFFFC00
FFFFE000
ENDCHAR
STARTCHAR 0043
ENCODING 67
SWIDTH 720 0
DWIDTH 40 0
BBX 33 40 4 0
BITMAP
0003F00000
003FFF0000
00F80FC000
01C001E000
0780007000
0E00001800
0C00000C00
1800000E00
3800000700
3000000300
7000000380
6000000180
6000000180
E000000000
C000000000
C000000000
C000000000
C000000000
C000000000
C000000000
C000000000
C000000000
C000000000
C000000000
C000000000
C000000000
C000000000
6000000000
6000000000
6000000180
3000000300
3000000300
1800000600
1C00000E00
0E00001C00
0700003800
038000F000
01F003E000
007FFF8000
001FFE0000
ENDCHAR
STARTCHAR 0044
ENCODING 68
SWIDTH 684 0
DWIDTH 38 0
BBX 31 39 5 0
BITMAP
FFFF8000
FFFFF800
C0003E00
C0000F00
C0000380
C00001C0
C00000E0
C0000070
C0000030
C0000018
C0000018
C000001C
C000000C
C000000C
C000000C
C0000004
C0000006
C0000006
C0000006
C0000006
C0000006
C0000006
C0000006
C000000E
C000000C
C000000C
C000000C
C000000C
C0000018
C0000018
C0000030
C0000070
C00000E0
C00001C0
C0000380
C0000700
C0003E00
FFFFF800
FFFFC000
ENDCHAR
STARTCHAR 0045
ENCODING 69
SWIDTH 558 0
DWIDTH 31 0
BBX 22 39 5 0
BITMAP
FFFFFC
FFFFFC
C00000
C00000
C00000
C00000
C00000
C00000
C00000
C00000
C00000
C00000
C00000
C00000
C00000
C00000
C00000
C00000
FFFFF0
FFFFF0
C00000
C00000
C00000
C00000
C00000
C00000
C00000
C00000
C00000
C00000
C00000
C00000
C00000
C00000
C00000
C00000
C00000
FFFFFC
FFFFFC
ENDCHAR
STARTCHAR 0046
ENCODING 70
SWIDTH 504 0
DWIDTH 28 0
BBX 22 39 5 0
BITMAP
FFFFFC
FFFFFC
C00000
C00000
C00000
C00000
C00000
C00000
C00000
C00000
C00000
C00000
C00000
C00000
C00000
C00000
C00000
C00000
FFFFF0
FFFFF0
C00000
C00000
C00000
C00000
C00000
C00000
C00000
C00000
C00000
C00000
C00000
C00000
C00000
C00000
C00000
C00000
C00000
C00000
C00000
ENDCHAR
STARTCHAR 0047
ENCODING 71
SWIDTH 702 0
DWIDTH 39 0
BBX 33 40 3 0
BITMAP
0003F80000
001FFF0000
007C0FC000
01E000F000
0380003800
0700001C00
0E00000C00
0C00000600
1800000700
1800000300
3000000380
3000000180
3000000000
6000000000
6000000000
6000000000
6000000000
6000000000
C000000000
C000000000
C000000000
C0003FFF80
6000000180
6000000180
6000000180
6000000180
6000000180
6000000180
3000000180
3000000380
3800000380
1800000380
1C00000780
0C00000D80
0600001D80
0380003980
01C0007180
00F001E180
007FFF8180
000FFE0180
ENDCHAR
STARTCHAR 0048
ENCODING 72
SWIDTH 666 0
DWIDTH 37 0
BBX 28 39 5 0
BITMAP
C0000030
C0000030
C0000030
C0000030
C0000030
C0000030
C0000030
C0000030
C0000030
C0000030
C0000030
C0000030
C0000030
C0000030
C0000030
C0000030
C0000030
C0000030
FFFFFFF0
FFFFFFF0
C0000030
C0000030
C0000030
C0000030
C0000030
C0000030
C0000030
C0000030
C0000030
C0000030
C0000030
C0000030
C0000030
C0000030
C0000030
C0000030
C0000030
C0000030
C0000030
ENDCHAR
STARTCHAR 0049
ENCODING 73
SWIDTH 216 0
DWIDTH 12 0
BBX 2 39 5 0
BITMAP
C0
C0
C0
C0
C0
C0
C0
C0
C0
C0
C0
C0
C0
C0
C0
C0
C0
C0
C0
C0
C0
C0
C0
C0
C0
C0
C0
C0
C0
C0
C0
C0
C0
C0
C0
C0
C0
C0
C0
ENDCHAR
STARTCHAR 004A
ENCODING 74
SWIDTH 324 0
DWIDTH 18 0
BBX 9 39 3 0
BITMAP
0080
0080
0080
0080
0080
0080
0080
0080
0080
0080
0080
0080
0080
0080
0080
0080
0080
0080
0080
0080
0080
0080
0080
0080
0080
0080
0080
0080
0080
0080
0080
0080
0080
0180
0180
0180
0380
DF00
FE00
ENDCHAR
STARTCHAR 004B
ENCODING 75
SWIDTH 594 0
DWIDTH 33 0
BBX 24 39 5 0
BITMAP
C0001C
C00038
C00070
C000E0
C001C0
C00380
C00300
C00600
C00C00
C01800
C03000
C06000
C0C000
C18000
C30000
C60000
CE0000
DC0000
FE0000
F70000
E38000
C1C000
C0E000
C06000
C03000
C03800
C01C00
C00E00
C00700
C00300
C00180
C000C0
C000E0
C00070
C00038
C00018
C0000C
C00006
C00007
ENDCHAR
STARTCHAR 004C
ENCODING 76
SWIDTH 522 0
DWIDTH 29 0
BBX 22 39 5 0
BITMAP
C00000
C00000
C00000
C00000
C00000
C00000
C00000
C00000
C00000
C00000
C00000
C00000
C00000
C00000
C00000
C00000
C00000
C00000
C00000
C00000
C00000
C00000
C00000
C00000
C00000
C00000
C00000
C00000
C00000
C00000
C00000
C00000
C00000
C00000
C00000
C00000
C00000
FFFFFC
FFFFFC
ENDCHAR
STARTCHAR 004D
ENCODING 77
SWIDTH 792 0
DWIDTH 44 0
BBX 35 39 5 0
BITMAP
E0000000E0
E0000001E0
F0000001E0
F0000001E0
F800000360
D800000360
D800000760
CC00000660
CC00000660
CE00000C60
C600000C60
C600001860
C300001860
C300001860
C180003060
C180003060
C180006060
C0C0006060
C0C000E060
C06000C060
C06000C060
C060018060
C030018060
C030038060
C018030060
C018030060
C01C060060
C00C060060
C00C0E0060
C0060C0060
C0060C0060
C007180060
C003180060
C003380060
C001B00060
C001B00060
C001E00060
C000E00060
C000E00060
ENDCHAR
STARTCHAR 004E
ENCODING 78
SWIDTH 720 0
DWIDTH 40 0
BBX 30 39 5 0
BITMAP
C000000C
E000000C
F000000C
F800000C
D800000C
CC00000C
CE00000C
C600000C
C300000C
C180000C
C1C0000C
C0C0000C
C060000C
C070000C
C038000C
C018000C
C00C000C
C00E000C
C006000C
C003000C
C001800C
C001C00C
C000C00C
C000600C
C000700C
C000380C
C000180C
C0000C0C
C0000E0C
C000060C
C000030C
C000018C
C00001CC
C00000CC
C000006C
C000007C
C000003C
C000001C
C000000C
ENDCHAR
STARTCHAR 004F
ENCODING 79
SWIDTH 738 0
DWIDTH 41 0
BBX 35 40 3 0
BITMAP
0001F80000
001FFF0000
007C07E000
01E000F000
0380003800
0700001C00
0E00000E00
0C00000700
1800000300
1800000180
3000000180
30000001C0
60000000C0
60000000C0
60000000C0
6000000060
6000000060
4000000060
C000000060
C000000060
C000000060
C000000060
C000000060
6000000060
6000000060
6000000060
60000000C0
60000000C0
30000000C0
3000000180
3800000180
1800000380
1C00000300
0E00000600
0700000E00
0380001C00
01C0007800
00F801E000
003FFFC000
000FFE0000
ENDCHAR
STARTCHAR 0050
ENCODING 80
SWIDTH 576 0
DWIDTH 32 0
BBX 25 39 5 0
BITMAP
FFFF0000
FFFFE000
C000F800
C0001C00
C0000E00
C0000600
C0000300
C0000300
C0000180
C0000180
C0000180
C0000180
C0000180
C0000180
C0000180
C0000180
C0000100
C0000300
C0000300
C0000600
C0000C00
C0003800
C007F000
FFFFC000
C0000000
C0000000
C0000000
C0000000
C0000000
C0000000
C0000000
C0000000
C0000000
C0000000
C0000000
C0000000
C0000000
C0000000
C0000000
ENDCHAR
STARTCHAR 0051
ENCODING 81
SWIDTH 738 0
DWIDTH 41 0
BBX 35 44 3 -4
BITMAP
0001F80000
001FFF0000
007C07E000
01E000F000
0380003800
0700001C00
0E00000E00
0C00000700
1800000300
1800000180
3000000180
30000001C0
60000000C0
60000000C0
60000000C0
6000000060
6000000060
4000000060
C000000060
C000000060
C000000060
C000000060
C000000060
6000000060
6000000060
6000600060
60007000C0
60003800C0
30001800C0
30000C0180
3800060180
1800070380
1C00038300
0E0001C600
070000CE00
0380007C00
01C0007800
00F801F800
003FFFDC00
000FFE0E00
0000000600
0000000300
0000000180
00000001C0
ENDCHAR
STARTCHAR 0052
ENCODING 82
SWIDTH 594 0
DWIDTH 33 0
BBX 25 39 5 0
BITMAP
FFFF0000
FFFFE000
C000F800
C0001C00
C0000600
C0000300
C0000300
C0000180
C0000180
C0000180
C0000180
C0000180
C0000180
C0000180
C0000180
C0000300
C0000300
C0000600
C0001C00
C0007800
FFFFF000
FFFF8000
C0180000
C00C0000
C00E0000
C0070000
C0030000
C0018000
C001C000
C000C000
C0006000
C0007000
C0003000
C0001800
C0001C00
C0000E00
C0000600
C0000300
C0000380
ENDCHAR
STARTCHAR 0053
ENCODING 83
SWIDTH 594 0
DWIDTH 33 0
BBX 27 40 3 0
BITMAP
001F0000
01FFE000
03E0F800
0F001C00
1C000600
18000300
38000380
30000180
300001C0
600000C0
600000C0
600000C0
70000000
30000000
30000000
38000000
1C000000
0F000000
07E00000
00FF0000
001FF000
00007C00
00000F00
00000380
000001C0
000000C0
000000C0
C00000E0
C0000060
E0000060
60000060
600000E0
700000C0
300000C0
38000180
1C000380
0E000700
07801E00
03FFF800
00FFE000
ENDCHAR
STARTCHAR 0054
ENCODING 84
SWIDTH 576 0
DWIDTH 32 0
BBX 27 39 3 0
BITMAP
FFFFFFE0
FFFFFFE0
000C0000
000C0000
000C0000
000C0000
000C0000
000C0000
000C0000
000C0000
000C0000
000C0000
000C0000
000C0000
000C0000
000C0000
000C0000
000C0000
000C0000
000C0000
000C0000
000C0000
000C0000
000C0000
000C0000
000C0000
000C0000
000C0000
000C0000
000C0000
000C0000
000C0000
000C0000
000C0000
000C0000
000C0000
000C0000
000C0000
000C0000
ENDCHAR
STARTCHAR 0055
ENCODING 85
SWIDTH 666 0
DWIDTH 37 0
BBX 30 40 4 -1
BITMAP
C000000C
C000000C
C000000C
C000000C
C000000C
C000000C
C000000C
C000000C
C000000C
C000000C
C000000C
C000000C
C000000C
C000000C
C000000C
C000000C
C000000C
C000000C
C000000C
C000000C
C000000C
C000000C
C000000C
C000000C
C000000C
C000000C
40000018
60000018
60000018
60000018
30000030
30000030
30000070
18000060
0C0000C0
0E0001C0
07800780
01FCFE00
007FF800
00030000
ENDCHAR
STARTCHAR 0056
ENCODING 86
SWIDTH 594 0
DWIDTH 33 0
BBX 32 39 1 0
BITMAP
C0000003
60000006
60000006
60000006
3000000C
3000000C
3000000C
18000018
18000018
18000030
0C000030
0C000030
06000060
06000060
06000060
030000C0
030000C0
030001C0
01800180
01800180
01C00300
00C00300
00C00300
00600600
00600600
00600600
00300C00
00300C00
00301800
00181800
00181800
000C3000
000C3000
000C3000
00066000
00066000
0006E000
0003C000
0003C000
ENDCHAR
STARTCHAR 0057
ENCODING 87
SWIDTH 990 0
DWIDTH 55 0
BBX 53 39 1 0
BITMAP
C0000070000018
C0000070000018
60000070000030
600000D8000030
600000D8000030
200000D8000020
3000018C000060
3000018C000060
3000018C000060
180003060000C0
180003060000C0
180003020000C0
180006030000C0
0C000603000180
0C000601000180
0C000C01800180
06000C01800300
06000C00800300
06001800C00300
06001800C00300
03001000400600
03003000600600
03003000600600
01802000200C00
01806000300C00
01806000300C00
01804000100C00
00C0C000181800
00C0C000181800
00C08000081800
006180000C3000
006180000C3000
00610000043000
00630000063000
00330000066000
00320000026000
00360000036000
00360000036000
001C000001C000
ENDCHAR
STARTCHAR 0058
ENCODING 88
SWIDTH 630 0
DWIDTH 35 0
BBX 29 39 3 0
BITMAP
C0000018
60000038
30000030
38000060
180000E0
0C0000C0
0E000180
06000380
03000300
03800600
01800E00
00C00C00
00E01800
00603800
00303000
00386000
001CE000
000CC000
000F8000
00078000
00078000
000DC000
001CE000
00386000
00307000
00703800
00E01800
00C00C00
01800E00
03800600
03000300
06000380
0E000180
0C0000C0
180000E0
38000060
30000030
60000038
E0000018
ENDCHAR
STARTCHAR 0059
ENCODING 89
SWIDTH 576 0
DWIDTH 32 0
BBX 26 39 3 0
BITMAP
C00000C0
E00001C0
60000180
70000380
30000300
38000700
18000600
1C000E00
0C000C00
0E001C00
06001800
07003800
03003000
03807000
01806000
01C0E000
00C0C000
00E18000
00618000
00730000
00330000
001E0000
001E0000
000C0000
000C0000
000C0000
000C0000
000C0000
000C0000
000C0000
000C0000
000C0000
000C0000
000C0000
000C0000
000C0000
000C0000
000C0000
000C0000
ENDCHAR
STARTCHAR 005A
ENCODING 90
SWIDTH 594 0
DWIDTH 33 0
BBX 26 39 3 0
BITMAP
FFFFFFC0
FFFFFFC0
000001C0
00000180
00000380
00000700
00000600
00000E00
00001C00
00001800
00003800
00007000
00006000
0000E000
0001C000
00018000
00038000
00070000
00060000
000C0000
001C0000
00180000
00300000
00700000
00600000
00C00000
01C00000
01800000
03000000
07000000
06000000
0C000000
1C000000
18000000
30000000
70000000
60000000
FFFFFFC0
FFFFFFC0
ENDCHAR
STARTCHAR 005B
ENCODING 91
SWIDTH 396 0
DWIDTH 22 0
BBX 14 54 4 -9
BITMAP
FFFC
FFFC
C000
C000
C000
C000
C000
C000
C000
C000
C000
C000
C000
C000
C000
C000
C000
C000
C000
C000
C000
C000
C000
C000
C000
C000
C000
C000
C000
C000
C000
C000
C000
C000
C000
C000
C000
C000
C000
C000
C000
C000
C000
C000
C000
C000
C000
C000
C000
C000
C000
C000
FFFC
FFFC
ENDCHAR
STARTCHAR 005C
ENCODING 92
SWIDTH 468 0
DWIDTH 26 0
BBX 21 52 2 -7
BITMAP
C00000
C00000
600000
600000
600000
300000
300000
300000
180000
180000
1C0000
0C0000
0C0000
060000
060000
060000
030000
030000
030000
018000
018000
00C000
00C000
00C000
006000
006000
006000
003000
003000
003800
001800
001800
000C00
000C00
000C00
000600
000600
000600
000300
000300
000180
000180
000180
0000C0
0000C0
0000C0
000060
000060
000070
000030
000030
000018
ENDCHAR
STARTCHAR 005D
ENCODING 93
SWIDTH 396 0
DWIDTH 22 0
BBX 14 54 4 -9
BITMAP
FFFC
FFFC
0004
0004
0004
0004
0004
0004
0004
0004
0004
0004
0004
0004
0004
0004
0004
0004
0004
0004
0004
0004
0004
0004
0004
0004
0004
0004
0004
0004
0004
0004
0004
0004
0004
0004
0004
0004
0004
0004
0004
0004
0004
0004
0004
0004
0004
0004
0004
0004
0004
0004
FFFC
FFFC
ENDCHAR
STARTCHAR 005E
ENCODING 94
SWIDTH 414 0
DWIDTH 23 0
BBX 17 10 3 32
BITMAP
008000
01C000
036000
063000
0C1800
180C00
380E00
300600
600300
C00180
ENDCHAR
STARTCHAR 005F
ENCODING 95
SWIDTH 702 0
DWIDTH 39 0
BBX 27 2 6 0
BITMAP
FFFFFFE0
FFFFFFE0
ENDCHAR
STARTCHAR 0060
ENCODING 96
SWIDTH 198 0
DWIDTH 11 0
BBX 7 9 2 35
BITMAP
E0
60
70
30
18
18
0C
06
02
ENDCHAR
STARTCHAR 0061
ENCODING 97
SWIDTH 612 0
DWIDTH 34 0
BBX 27 30 3 0
BITMAP
007F8000
01FFE060
03807860
0E001C60
0C000E60
18000660
30000360
300001E0
600001E0
600000E0
600000E0
600000E0
C00000E0
C00000E0
C00000E0
C00000E0
C00000E0
C00000E0
C00000E0
600000E0
600000E0
600001E0
300001E0
30000360
18000260
1C000660
0E001C60
07803860
01FFF060
007FC060
ENDCHAR
STARTCHAR 0062
ENCODING 98
SWIDTH 612 0
DWIDTH 34 0
BBX 26 42 5 0
BITMAP
C0000000
C0000000
C0000000
C0000000
C0000000
C0000000
C0000000
C0000000
C0000000
C0000000
C0000000
C0000000
C07F8000
C1FFF000
C3807800
C6001C00
CC000600
D8000700
D0000300
F0000180
E0000180
E00000C0
E00000C0
C00000C0
C00000C0
C00000C0
C00000C0
C00000C0
C00000C0
C00000C0
C00000C0
E00000C0
E00000C0
E0000180
F0000180
D0000380
D8000300
CC000600
C6000C00
C3803800
C1FFF000
C07FC000
ENDCHAR
STARTCHAR 0063
ENCODING 99
SWIDTH 576 0
DWIDTH 32 0
BBX 26 30 3 0
BITMAP
003FC000
01FFF000
03C03C00
07000E00
0E000700
1C000380
38000180
30000180
300000C0
600000C0
600000C0
60000000
60000000
E0000000
E0000000
E0000000
E0000000
60000000
60000000
600000C0
600000C0
300000C0
300000C0
38000180
18000380
0C000300
07000E00
03801C00
01FFF800
007FE000
ENDCHAR
STARTCHAR 0064
ENCODING 100
SWIDTH 612 0
DWIDTH 34 0
BBX 27 42 3 0
BITMAP
00000060
00000060
00000060
00000060
00000060
00000060
00000060
00000060
00000060
00000060
00000060
00000060
007F8060
01FFE060
03807860
0E001C60
0C000E60
18000660
30000360
300001E0
600001E0
600000E0
600000E0
600000E0
C00000E0
C00000E0
C00000E0
C00000E0
C00000E0
C00000E0
C00000E0
600000E0
600000E0
600001E0
300001E0
30000360
18000260
1C000660
0E001C60
07803860
01FFF060
007FC060
ENDCHAR
STARTCHAR 0065
ENCODING 101
SWIDTH 576 0
DWIDTH 32 0
BBX 26 30 3 0
BITMAP
003FC000
01FFF000
03C03C00
07000E00
0E000600
1C000300
18000380
30000180
30000180
600000C0
600000C0
600000C0
600000C0
E00000C0
FFFFFFC0
FFFFFFC0
E0000000
60000000
60000000
60000000
60000000
300000C0
30000180
38000180
18000300
0C000700
07000E00
03803C00
01FFF800
007FC000
ENDCHAR
STARTCHAR 0066
ENCODING 102
SWIDTH 342 0
DWIDTH 19 0
BBX 14 41 3 0
BITMAP
00FC
03FC
0700
0600
0600
0400
0C00
0C00
0C00
0C00
0C00
0C00
FFFC
FFFC
0C00
0C00
0C00
0C00
0C00
0C00
0C00
0C00
0C00
0C00
0C00
0C00
0C00
0C00
0C00
0C00
0C00
0C00
0C00
0C00
0C00
0C00
0C00
0C00
0C00
0C00
0C00
ENDCHAR
STARTCHAR 0067
ENCODING 103
SWIDTH 612 0
DWIDTH 34 0
BBX 27 41 3 -11
BITMAP
007FC000
01FFF060
03C03860
0F000C60
0C000660
18000360
38000160
300001E0
700000E0
600000E0
600000E0
600000E0
60000060
E0000060
E0000060
E0000060
60000060
600000E0
600000E0
600000E0
700000E0
300001E0
38000360
18000360
0C000660
0F000C60
03C03860
01FFF060
007FC060
00000060
00000060
00000060
000000C0
000000C0
000000C0
00000180
00000300
00000700
00001E00
003FF800
003FE000
ENDCHAR
STARTCHAR 0068
ENCODING 104
SWIDTH 612 0
DWIDTH 34 0
BBX 25 42 5 0
BITMAP
C0000000
C0000000
C0000000
C0000000
C0000000
C0000000
C0000000
C0000000
C0000000
C0000000
C0000000
C0000000
C07F8000
C1FFE000
C380F800
C6003C00
CC000E00
D8000600
D0000300
E0000300
E0000300
C0000180
C0000180
C0000180
C0000180
C0000180
C0000180
C0000180
C0000180
C0000180
C0000180
C0000180
C0000180
C0000180
C0000180
C0000180
C0000180
C0000180
C0000180
C0000180
C0000180
C0000180
ENDCHAR
STARTCHAR 0069
ENCODING 105
SWIDTH 216 0
DWIDTH 12 0
BBX 4 39 4 0
BITMAP
60
F0
F0
60
00
00
00
00
00
00
60
60
60
60
60
60
60
60
60
60
60
60
60
60
60
60
60
60
60
60
60
60
60
60
60
60
60
60
60
ENDCHAR
STARTCHAR 006A
ENCODING 106
SWIDTH 216 0
DWIDTH 12 0
BBX 10 51 -2 -12
BITMAP
01C0
03C0
03C0
01C0
0000
0000
0000
0000
0000
0000
0180
0180
0180
0180
0180
0180
0180
0180
0180
0180
0180
0180
0180
0180
0180
0180
0180
0180
0180
0180
0180
0180
0180
0180
0180
0180
0180
0180
0180
0180
0180
0180
0180
0180
0180
0180
0180
0180
0300
FF00
7800
ENDCHAR
STARTCHAR 006B
ENCODING 107
SWIDTH 468 0
DWIDTH 26 0
BBX 18 42 5 0
BITMAP
C00000
C00000
C00000
C00000
C00000
C00000
C00000
C00000
C00000
C00000
C00000
C00000
C00000
C00180
C00300
C00E00
C01C00
C03000
C06000
C0C000
C38000
C70000
CC0000
D80000
F00000
E00000
E00000
F00000
D80000
CC0000
C60000
C30000
C18000
C0C000
C06000
C03000
C01800
C00C00
C00600
C00300
C00180
C000C0
ENDCHAR
STARTCHAR 006C
ENCODING 108
SWIDTH 270 0
DWIDTH 15 0
BBX 8 42 5 0
BITMAP
C0
C0
C0
C0
C0
C0
C0
C0
C0
C0
C0
C0
C0
C0
C0
C0
C0
C0
C0
C0
C0
C0
C0
C0
C0
C0
C0
C0
C0
C0
C0
C0
C0
C0
C0
C0
C0
C0
C0
60
70
3F
ENDCHAR
STARTCHAR 006D
ENCODING 109
SWIDTH 990 0
DWIDTH 55 0
BBX 46 30 5 0
BITMAP
007F0001FC00
C1FFC007FF00
C781F01E07C0
CE00383800E0
C8001C600070
D0000C400030
F00006C00038
E00007800018
E00007800018
C0000300000C
C0000300000C
C0000300000C
C0000300000C
C0000300000C
C0000300000C
C0000300000C
C0000300000C
C0000300000C
C0000300000C
C0000300000C
C0000300000C
C0000300000C
C0000300000C
C0000300000C
C0000300000C
C0000300000C
C0000300000C
C0000300000C
C0000300000C
C0000300000C
ENDCHAR
STARTCHAR 006E
ENCODING 110
SWIDTH 612 0
DWIDTH 34 0
BBX 25 30 5 0
BITMAP
007F8000
C1FFE000
C380F800
C6003C00
CC000E00
D8000600
D0000300
E0000300
E0000300
C0000180
C0000180
C0000180
C0000180
C0000180
C0000180
C0000180
C0000180
C0000180
C0000180
C0000180
C0000180
C0000180
C0000180
C0000180
C0000180
C0000180
C0000180
C0000180
C0000180
C0000180
ENDCHAR
STARTCHAR 006F
ENCODING 111
SWIDTH 594 0
DWIDTH 33 0
BBX 27 30 3 0
BITMAP
003FC000
01FFF000
03C03C00
07000E00
0E000700
1C000300
18000180
30000180
300000C0
600000C0
600000E0
60000060
60000060
E0000060
C0000060
C0000060
C0000060
60000060
60000060
60000060
600000C0
300000C0
300001C0
38000180
1C000300
0C000700
07000E00
03C03C00
01FFF000
007FC000
ENDCHAR
STARTCHAR 0070
ENCODING 112
SWIDTH 612 0
DWIDTH 34 0
BBX 26 41 5 -11
BITMAP
007F8000
C1FFF000
C3807800
C6001C00
CC000600
D8000700
D0000300
F0000180
E0000180
E00000C0
E00000C0
C00000C0
C00000C0
C00000C0
C00000C0
C00000C0
C00000C0
C00000C0
C00000C0
E00000C0
E00000C0
E0000180
F0000180
D0000380
D8000300
CC000600
C6000C00
C3803800
C1FFF000
C07FC000
C0000000
C0000000
C0000000
C0000000
C0000000
C0000000
C0000000
C0000000
C0000000
C0000000
C0000000
ENDCHAR
STARTCHAR 0071
ENCODING 113
SWIDTH 612 0
DWIDTH 34 0
BBX 27 41 3 -11
BITMAP
007F8000
01FFE060
03807860
0E001C60
0C000E60
18000660
30000360
300001E0
600001E0
600000E0
600000E0
600000E0
C00000E0
C00000E0
C00000E0
C00000E0
C00000E0
C00000E0
C00000E0
600000E0
600000E0
600001E0
300001E0
30000360
18000260
1C000660
0E001C60
07803860
01FFF060
007FC060
00000060
00000060
00000060
00000060
00000060
00000060
00000060
00000060
00000060
00000060
00000060
ENDCHAR
STARTCHAR 0072
ENCODING 114
SWIDTH 306 0
DWIDTH 17 0
BBX 12 29 5 0
BITMAP
87F0
8FF0
9C00
B000
E000
C000
C000
C000
C000
8000
8000
8000
8000
8000
8000
8000
8000
8000
8000
8000
8000
8000
8000
8000
8000
8000
8000
8000
8000
ENDCHAR
STARTCHAR 0073
ENCODING 115
SWIDTH 486 0
DWIDTH 27 0
BBX 22 30 3 0
BITMAP
01FE00
07FF80
1E01C0
3800E0
300070
700030
600018
600018
600018
600000
600000
300000
380000
1F8000
07FE00
007FC0
0001E0
000070
000038
000018
C0001C
C0000C
E0000C
60001C
600018
300038
380070
1E00E0
07FFC0
01FF00
ENDCHAR
STARTCHAR 0074
ENCODING 116
SWIDTH 360 0
DWIDTH 20 0
BBX 15 39 2 0
BITMAP
0300
0300
0300
0300
0300
0300
0300
0300
0300
0300
FFFE
FFFE
0300
0300
0300
0300
0300
0300
0300
0300
0300
0300
0300
0300
0300
0300
0300
0300
0300
0300
0300
0300
0300
0300
0300
0300
0300
01C2
00FE
ENDCHAR
STARTCHAR 0075
ENCODING 117
SWIDTH 612 0
DWIDTH 34 0
BBX 24 30 5 -1
BITMAP
C00001
C00001
C00001
C00001
C00001
C00001
C00001
C00001
C00001
C00001
C00001
C00001
C00001
C00001
C00001
C00001
C00001
C00003
C00003
C00003
400003
600003
600007
30000D
380019
1C0031
0F00E1
07FFC1
01FF01
001000
ENDCHAR
STARTCHAR 0076
ENCODING 118
SWIDTH 540 0
DWIDTH 30 0
BBX 25 29 3 0
BITMAP
C0000180
C0000300
60000300
60000700
60000600
30000600
30000C00
18000C00
18000C00
18001800
0C001800
0C003000
0E003000
06003000
06006000
03006000
0300C000
0300C000
0180C000
01818000
00C18000
00C30000
00C30000
00630000
00660000
00360000
003E0000
003C0000
001C0000
ENDCHAR
STARTCHAR 0077
ENCODING 119
SWIDTH 810 0
DWIDTH 45 0
BBX 39 29 3 0
BITMAP
C000380006
C000380006
C000380006
60007C0006
60006C000C
60006C000C
3000E6000C
3000C60018
3000C60018
3001C30018
1801830030
1801830030
1803818030
0C03018030
0C03018060
0C0700C060
0E0600C060
060600C0C0
060E0060C0
060C0060C0
030C0060C0
031C003180
0318003180
0198003180
01B8001B00
01B0001B00
01B0001B00
00F0000E00
00E0000E00
ENDCHAR
STARTCHAR 0078
ENCODING 120
SWIDTH 522 0
DWIDTH 29 0
BBX 23 29 3 0
BITMAP
C0000C
E0001C
700018
300030
180070
1C0060
0C00C0
0601C0
070180
030300
018600
00C600
00CC00
007800
003800
007C00
00CC00
01C600
018700
030300
070180
0601C0
0C00C0
1C0060
380070
300030
700018
E0001C
C0000E
ENDCHAR
STARTCHAR 0079
ENCODING 121
SWIDTH 522 0
DWIDTH 29 0
BBX 25 39 2 -10
BITMAP
E0000180
60000380
60000300
30000300
30000600
38000600
18000C00
18000C00
0C001C00
0C001800
0E001800
06003000
06003000
03006000
03006000
0180C000
0180C000
0180C000
00C18000
00C18000
00630000
00630000
00660000
00360000
00360000
001C0000
001C0000
00180000
00180000
00300000
00300000
00600000
00600000
00E00000
00C00000
01C00000
03800000
7F000000
7E000000
ENDCHAR
STARTCHAR 007A
ENCODING 122
SWIDTH 486 0
DWIDTH 27 0
BBX 22 29 3 0
BITMAP
7FFFFC
7FFFFC
00001C
000038
000030
000060
0000C0
0001C0
000180
000300
000600
000C00
001C00
001800
003000
006000
00E000
00C000
018000
030000
060000
0E0000
0C0000
180000
300000
700000
600000
FFFFFC
FFFFFC
ENDCHAR
STARTCHAR 007B
ENCODING 123
SWIDTH 468 0
DWIDTH 26 0
BBX 16 55 7 -10
BITMAP
01FF
0300
0600
0600
0400
0400
0400
0400
0400
0400
0400
0400
0400
0400
0400
0400
0400
0400
0400
0400
0400
0400
0400
0400
0400
0C00
1C00
F800
1C00
0C00
0400
0400
0400
0400
0400
0400
0400
0400
0400
0400
0400
0400
0400
0400
0400
0400
0400
0400
0400
0400
0400
0600
0600
0380
01FF
ENDCHAR
STARTCHAR 007C
ENCODING 124
SWIDTH 270 0
DWIDTH 15 0
BBX 2 65 7 -12
BITMAP
C0
C0
C0
C0
C0
C0
C0
C0
C0
C0
C0
C0
C0
C0
C0
C0
C0
C0
C0
C0
C0
C0
C0
C0
C0
C0
C0
C0
C0
C0
C0
C0
C0
C0
C0
C0
C0
C0
C0
C0
C0
C0
C0
C0
C0
C0
C0
C0
C0
C0
C0
C0
C0
C0
C0
C0
C0
C0
C0
C0
C0
C0
C0
C0
C0
ENDCHAR
STARTCHAR 007D
ENCODING 125
SWIDTH 486 0
DWIDTH 27 0
BBX 17 55 8 -10
BITMAP
FFC000
00E000
006000
003000
003000
003000
003000
003000
003000
003000
003000
003000
003000
003000
003000
003000
003000
003000
003000
003000
003000
003000
003000
003000
003000
003000
003800
000F80
003800
003000
003000
003000
003000
003000
003000
003000
003000
003000
003000
003000
003000
003000
003000
003000
003000
003000
003000
003000
003000
003000
003000
003000
006000
01E000
FFC000
ENDCHAR
STARTCHAR 007E
ENCODING 126
SWIDTH 522 0
DWIDTH 29 0
BBX 19 5 5 19
BITMAP
1F0060
3FC060
70E0C0
E07F80
C01F00
ENDCHAR
STARTCHAR 00A0
ENCODING 160
SWIDTH 216 0
DWIDTH 12 0
BBX 0 0 0 0
BITMAP
ENDCHAR
STARTCHAR 00A1
ENCODING 161
SWIDTH 180 0
DWIDTH 10 0
BBX 4 43 4 -13
BITMAP
F0
F0
E0
00
00
00
00
00
60
60
60
60
60
60
60
60
60
60
60
60
60
60
60
60
60
60
60
60
60
60
60
60
60
60
60
60
60
60
60
60
60
60
60
ENDCHAR
STARTCHAR 00A2
ENCODING 162
SWIDTH 594 0
DWIDTH 33 0
BBX 26 38 3 -4
BITMAP
000C0000
000C0000
000C0000
000C0000
003FC000
01FFF000
03CC3C00
070C0E00
0C0C0700
1C0C0380
380C0180
300C0180
300C00C0
600C00C0
600C00C0
600C0000
600C0000
E00C0000
E00C0000
E00C0000
E00C0000
600C0000
600C0000
600C00C0
600C00C0
300C00C0
300C00C0
380C0180
180C0380
0C0C0300
0E0C0E00
038C1C00
01FFF800
007FE000
000C0000
000C0000
000C0000
000C0000
ENDCHAR
STARTCHAR 00A3
ENCODING 163
SWIDTH 576 0
DWIDTH 32 0
BBX 27 40 2 0
BITMAP
000F8000
00FFF000
03E07C00
07001C00
0E000600
0C000700
1C000300
18000300
18000180
18000180
18000180
18000180
18000180
18000000
1C000000
0C000000
0E000000
06000000
07000000
03000000
01800000
01C00000
00C00000
3FFFF000
3FFFF000
00600000
00600000
00600000
00600000
00600000
00600000
00600000
00C00000
00C00000
01800000
01000000
06000000
0C000000
FFFFFFE0
FFFFFFE0
ENDCHAR
STARTCHAR 00A4
ENCODING 164
SWIDTH 540 0
DWIDTH 30 0
BBX 22 22 4 9
BITMAP
200008
70FE18
33FFB0
1F01E0
1C00E0
180070
300030
200018
600018
600018
600008
600008
600018
600018
600018
300030
380030
1C0060
3E01F0
77FFB8
E1FE1C
400008
ENDCHAR
STARTCHAR 00A5
ENCODING 165
SWIDTH 594 0
DWIDTH 33 0
BBX 26 39 3 0
BITMAP
C00000C0
E00001C0
60000180
70000380
30000300
38000700
18000600
1C000E00
0C000C00
0E001C00
06001800
07003800
03003000
03807000
01806000
01C0E000
00C0C000
00E1C000
00618000
00730000
00330000
001E0000
1FFFFE00
1FFFFE00
000C0000
000C0000
000C0000
000C0000
1FFFFE00
1FFFFE00
000C0000
000C0000
000C0000
000C0000
000C0000
000C0000
000C0000
000C0000
000C0000
ENDCHAR
STARTCHAR 00A6
ENCODING 166
SWIDTH 270 0
DWIDTH 15 0
BBX 2 65 7 -12
BITMAP
C0
C0
C0
C0
C0
C0
C0
C0
C0
C0
C0
C0
C0
C0
C0
C0
C0
C0
C0
C0
C0
C0
C0
C0
C0
C0
C0
C0
C0
00
00
00
00
00
00
00
00
00
C0
C0
C0
C0
C0
C0
C0
C0
C0
C0
C0
C0
C0
C0
C0
C0
C0
C0
C0
C0
C0
C0
C0
C0
C0
C0
C0
ENDCHAR
STARTCHAR 00A7
ENCODING 167
SWIDTH 540 0
DWIDTH 30 0
BBX 24 40 3 0
BITMAP
007E00
03FFC0
0F81E0
1C0070
180038
380018
30001C
30000C
30000C
300000
380000
1C0000
0FC000
07FF80
1E3FE0
300078
60001C
60000E
E00007
E00003
E00003
600003
700003
380007
1E0006
07F80C
01FFF0
0003F0
000038
00001C
00000C
60000E
600006
70000E
30000C
38000C
1C0018
0F0078
07FFE0
01FF80
ENDCHAR
STARTCHAR 00A8
ENCODING 168
SWIDTH 252 0
DWIDTH 14 0
BBX 12 4 1 35
BITMAP
7060
F0F0
F0F0
7060
ENDCHAR
STARTCHAR 00A9
ENCODING 169
SWIDTH 810 0
DWIDTH 45 0
BBX 41 40 2 0
BITMAP
0000FF800000
0007FFF80000
003F007E0000
0078000F8000
00E00003C000
03C00000E000
070000007000
060000003800
0C00FF801800
1C03FFE00C00
180780780C00
380E001C0600
301C000C0600
301800060700
603000060300
603000030300
603000030300
606000000300
606000000180
E06000000180
E06000000180
606000000180
606000000380
607000000300
603000030300
603000030300
701800060300
301C000E0600
300E001C0600
180700380E00
1C03E3F00C00
0C00FFC01C00
0E000C003800
070000007000
03800000E000
01E00001C000
00F000078000
003E001F0000
000FFFFC0000
0003FFE00000
ENDCHAR
STARTCHAR 00AA
ENCODING 170
SWIDTH 126 0
DWIDTH 7 0
BBX 7 7 0 23
BITMAP
7A
C6
86
82
C6
C6
7A
ENDCHAR
STARTCHAR 00AB
ENCODING 171
SWIDTH 558 0
DWIDTH 31 0
BBX 26 22 3 7
BITMAP
003801C0
00600380
00C00700
01800E00
03001C00
06003800
0C007000
1800E000
3001C000
60038000
E0070000
C0070000
60038000
3001C000
1800E000
0C007000
06003800
03001C00
01800E00
00C00700
00600380
003801C0
ENDCHAR
STARTCHAR 00AC
ENCODING 172
SWIDTH 648 0
DWIDTH 36 0
BBX 28 13 4 16
BITMAP
FFFFFFF0
00000030
00000030
00000030
00000030
00000030
00000030
00000030
00000030
00000030
00000030
00000030
00000030
ENDCHAR
STARTCHAR 00AD
ENCODING 173
SWIDTH 594 0
DWIDTH 33 0
BBX 20 2 7 16
BITMAP
FFFFF0
FFFFF0
ENDCHAR
STARTCHAR 00AE
ENCODING 174
SWIDTH 324 0
DWIDTH 18 0
BBX 13 14 3 25
BITMAP
0F80
3DE0
6030
CE18
8F88
8888
8888
8F88
8908
8888
C898
6030
3DE0
0F80
ENDCHAR
STARTCHAR 00AF
ENCODING 175
SWIDTH 324 0
DWIDTH 18 0
BBX 15 2 2 35
BITMAP
FFFE
FFFE
ENDCHAR
STARTCHAR 00B0
ENCODING 176
SWIDTH 270 0
DWIDTH 15 0
BBX 9 9 3 38
BITMAP
3E00
6300
C180
C080
8080
C080
4180
7F00
1E00
ENDCHAR
STARTCHAR 00B1
ENCODING 177
SWIDTH 594 0
DWIDTH 33 0
BBX 20 28 7 0
BITMAP
006000
006000
006000
006000
006000
006000
006000
006000
006000
006000
FFFFF0
FFFFF0
006000
006000
006000
006000
006000
006000
006000
006000
006000
000000
000000
000000
000000
000000
FFFFF0
FFFFF0
ENDCHAR
STARTCHAR 00B2
ENCODING 178
SWIDTH 288 0
DWIDTH 16 0
BBX 13 21 2 21
BITMAP
0F80
3FE0
6030
4030
C010
C018
C018
0010
0030
0030
0060
00C0
0180
0300
0600
0C00
1800
3000
6000
C000
FFF8
ENDCHAR
STARTCHAR 00B3
ENCODING 179
SWIDTH 288 0
DWIDTH 16 0
BBX 13 22 2 20
BITMAP
1FC0
3DE0
6030
C018
C018
0018
0018
0018
0030
00E0
0F80
00E0
0030
0018
0018
0008
0018
C018
6030
7070
1FC0
0200
ENDCHAR
STARTCHAR 00B4
ENCODING 180
SWIDTH 198 0
DWIDTH 11 0
BBX 7 9 2 35
BITMAP
06
0E
0C
18
30
30
60
40
C0
ENDCHAR
STARTCHAR 00B5
ENCODING 181
SWIDTH 630 0
DWIDTH 35 0
BBX 28 40 5 -11
BITMAP
C0000C00
C0000C00
C0000C00
C0000C00
C0000C00
C0000C00
C0000C00
C0000C00
C0000C00
C0000C00
C0000C00
C0000C00
C0000C00
C0000C00
C0000C00
C0000C00
C0000C00
C0000C00
C0001C00
C0001C00
C0001C00
C0003C00
C0003C00
E0006C00
E0004C00
F001CC00
B8038C00
9FBF0710
8FFC03F0
80C00000
80000000
80000000
80000000
80000000
80000000
80000000
80000000
80000000
80000000
80000000
ENDCHAR
STARTCHAR 00B6
ENCODING 182
SWIDTH 504 0
DWIDTH 28 0
BBX 21 39 2 0
BITMAP
01FFF8
0FFFF8
1FFE18
3FFE18
7FFE18
7FFE18
FFFE18
FFFE18
FFFE18
FFFE18
FFFE18
FFFE18
FFFE18
7FFE18
7FFE18
3FFE18
1FFE18
0FFE18
01FE18
000618
000618
000618
000618
000618
000618
000618
000618
000618
000618
000618
000618
000618
000618
000618
000618
000618
000618
000618
000618
ENDCHAR
STARTCHAR 00B7
ENCODING 183
SWIDTH 252 0
DWIDTH 14 0
BBX 4 4 5 18
BITMAP
60
F0
F0
F0
ENDCHAR
STARTCHAR 00B8
ENCODING 184
SWIDTH 234 0
DWIDTH 13 0
BBX 9 14 2 -14
BITMAP
6000
6000
6000
C000
FE00
FF00
0180
0180
0080
0180
0180
0300
FE00
F800
ENDCHAR
STARTCHAR 00B9
ENCODING 185
SWIDTH 216 0
DWIDTH 12 0
BBX 9 21 2 21
BITMAP
1800
3800
6800
C800
8800
0800
0800
0800
0800
0800
0800
0800
0800
0800
0800
0800
0800
0800
0800
FF80
FF80
ENDCHAR
STARTCHAR 00BA
ENCODING 186
SWIDTH 144 0
DWIDTH 8 0
BBX 7 7 1 23
BITMAP
7C
C4
86
86
86
C4
78
ENDCHAR
STARTCHAR 00BB
ENCODING 187
SWIDTH 558 0
DWIDTH 31 0
BBX 26 22 3 7
BITMAP
E0070000
70038000
3801C000
1C00E000
0E007000
07003800
03801C00
01C00E00
00C00700
00600380
003001C0
003801C0
00700380
00E00700
01C00E00
03801C00
07003800
0E007000
1C00E000
3801C000
70038000
E0070000
ENDCHAR
STARTCHAR 00BC
ENCODING 188
SWIDTH 774 0
DWIDTH 43 0
BBX 39 39 2 0
BITMAP
0C00000300
1C00000600
3C00000600
6C00000C00
CC00001C00
8C00001800
0C00003000
0C00003000
0C00006000
0C0000E000
0C0000C000
0C00018000
0C00018000
0C00030000
0C00070000
0C00060000
0C000C0000
0C000C0000
7FC0180000
7FC0380000
0000300070
00006000F0
00006000F0
0000C001B0
0001C00330
0001800330
0003000630
0003000C30
0006000830
000E001830
000C003030
0018002030
0018006030
0030007FFE
0070000030
0060000030
00C0000030
00C0000030
0180000030
ENDCHAR
STARTCHAR 00BD
ENCODING 189
SWIDTH 792 0
DWIDTH 44 0
BBX 40 39 2 0
BITMAP
0C00000300
1C00000300
3C00000600
6C00000600
CC00000C00
8C00001C00
0C00001800
0C00003000
0C00003000
0C00006000
0C0000E000
0C0000C000
0C00018000
0C00018000
0C00030000
0C00070000
0C00060000
0C000C0000
7FC00C0000
7FC01801F0
00003807FC
000030060C
0000600C06
0000600C06
0000C01802
0001C00006
0001800006
0003000006
000300000C
0006000018
000E000030
000C000070
00180000E0
00180001C0
0030000300
0070000600
0060000C00
00C0001FFF
00C0001FFF
ENDCHAR
STARTCHAR 00BE
ENCODING 190
SWIDTH 828 0
DWIDTH 46 0
BBX 42 39 2 0
BITMAP
0FC00000C000
1FE00000C000
303000018000
601800018000
601800030000
001800070000
001800060000
0018000C0000
0030000C0000
07E000180000
07E000380000
003000300000
001800600000
001800600000
001800C00000
C01801C00000
601801800000
703003000000
3FF003000000
0FC006000000
00000E000E00
00000C000A00
000018001A00
000018003200
000030002200
000070006200
00006000C200
0000C0008200
0000C0018200
000180030200
000380020200
000300060200
0006000C0200
0006000FFFC0
000C00000600
001C00000600
001800000600
003000000600
003000000600
ENDCHAR
STARTCHAR 00BF
ENCODING 191
SWIDTH 576 0
DWIDTH 32 0
BBX 24 40 4 -14
BITMAP
001C00
001E00
001C00
000800
000000
000000
000000
000000
000000
000C00
000C00
001800
001800
003800
003000
006000
00C000
018000
030000
060000
0C0000
180000
300000
300000
600000
600000
C00000
C00000
C00003
C00003
C00003
C00003
C00007
600006
60000E
30001C
1C0038
0F00F0
03FFC0
00FE00
ENDCHAR
STARTCHAR 00C0
ENCODING 192
SWIDTH 684 0
DWIDTH 38 0
BBX 32 52 3 0
BITMAP
00600000
00300000
00380000
00180000
000C0000
000C0000
00060000
00020000
00030000
00000000
00000000
00000000
00000000
00018000
00038000
0003C000
0003C000
00066000
00066000
000C6000
000C3000
000C3000
00181800
00181800
00301800
00300C00
00300C00
00600600
00600600
00600600
00C00300
00C00300
01800180
01800180
01800180
030000C0
030000C0
07FFFFE0
07FFFFE0
06000060
0C000030
0C000030
18000018
18000018
18000018
3000000C
3000000C
20000006
60000006
60000006
C0000003
C0000003
ENDCHAR
STARTCHAR 00C1
ENCODING 193
SWIDTH 684 0
DWIDTH 38 0
BBX 32 52 3 0
BITMAP
00000600
00000C00
00001C00
00001800
00003000
00003000
00006000
0000C000
0000C000
00000000
00000000
00000000
00000000
00018000
00038000
0003C000
0003C000
00066000
00066000
000C6000
000C3000
000C3000
00181800
00181800
00301800
00300C00
00300C00
00600600
00600600
00600600
00C00300
00C00300
01800180
01800180
01800180
030000C0
030000C0
07FFFFE0
07FFFFE0
06000060
0C000030
0C000030
18000018
18000018
18000018
3000000C
3000000C
20000006
60000006
60000006
C0000003
C0000003
ENDCHAR
STARTCHAR 00C2
ENCODING 194
SWIDTH 684 0
DWIDTH 38 0
BBX 32 50 3 0
BITMAP
0003C000
0007E000
000E7000
001C3800
00381800
00300C00
00600600
00800000
00000000
00000000
00000000
00018000
00038000
0003C000
0003C000
00066000
00066000
000C6000
000C3000
000C3000
00181800
00181800
00301800
00300C00
00300C00
00600600
00600600
00600600
00C00300
00C00300
01800180
01800180
01800180
030000C0
030000C0
07FFFFE0
07FFFFE0
06000060
0C000030
0C000030
18000018
18000018
18000018
3000000C
3000000C
20000006
60000006
60000006
C0000003
C0000003
ENDCHAR
STARTCHAR 00C3
ENCODING 195
SWIDTH 684 0
DWIDTH 38 0
BBX 32 50 3 0
BITMAP
00000600
003E0600
00338600
0061CC00
0060FC00
00602000
00000000
00000000
00000000
00000000
00000000
00018000
00038000
0003C000
0003C000
00066000
00066000
000C6000
000C3000
000C3000
00181800
00181800
00301800
00300C00
00300C00
00600600
00600600
00600600
00C00300
00C00300
01800180
01800180
01800180
030000C0
030000C0
07FFFFE0
07FFFFE0
06000060
0C000030
0C000030
18000018
18000018
18000018
3000000C
3000000C
20000006
60000006
60000006
C0000003
C0000003
ENDCHAR
STARTCHAR 00C4
ENCODING 196
SWIDTH 684 0
DWIDTH 38 0
BBX 32 49 3 0
BITMAP
00181800
003C3800
003C3C00
003C3800
00000000
00000000
00000000
00000000
00000000
00000000
00018000
00038000
0003C000
0003C000
00066000
00066000
000C6000
000C3000
000C3000
00181800
00181800
00301800
00300C00
00300C00
00600600
00600600
00600600
00C00300
00C00300
01800180
01800180
01800180
030000C0
030000C0
07FFFFE0
07FFFFE0
06000060
0C000030
0C000030
18000018
18000018
18000018
3000000C
3000000C
20000006
60000006
60000006
C0000003
C0000003
ENDCHAR
STARTCHAR 00C5
ENCODING 197
SWIDTH 684 0
DWIDTH 38 0
BBX 32 53 3 0
BITMAP
00038000
0007E000
000C3000
00081000
00081000
00081000
000C3000
0007E000
00010000
00000000
00000000
00000000
00000000
00000000
00018000
00038000
0003C000
0003C000
00066000
00066000
000C6000
000C3000
000C3000
00181800
00181800
00301800
00300C00
00300C00
00600600
00600600
00600600
00C00300
00C00300
01800180
01800180
01800180
030000C0
030000C0
07FFFFE0
07FFFFE0
06000060
0C000030
0C000030
18000018
18000018
18000018
3000000C
3000000C
20000006
60000006
60000006
C0000003
C0000003
ENDCHAR
STARTCHAR 00C6
ENCODING 198
SWIDTH 936 0
DWIDTH 52 0
BBX 46 39 2 0
BITMAP
000003FFFFFC
000007FFFFFC
000006C00000
00000EC00000
00000CC00000
000018C00000
000018C00000
000030C00000
000070C00000
000060C00000
0000E0C00000
0000C0C00000
000180C00000
000180C00000
000300C00000
000700C00000
000600C00000
000C00C00000
000C00FFFFF0
001800FFFFF0
001800C00000
003000C00000
007000C00000
006000C00000
00FFFFC00000
00FFFFC00000
018000C00000
018000C00000
030000C00000
060000C00000
060000C00000
0C0000C00000
0C0000C00000
180000C00000
380000C00000
300000C00000
600000C00000
600000FFFFFC
C00000FFFFFC
ENDCHAR
STARTCHAR 00C7
ENCODING 199
SWIDTH 720 0
DWIDTH 40 0
BBX 33 54 4 -14
BITMAP
0003F00000
003FFF0000
00F80FC000
01C001E000
0780007000
0E00001800
0C00000C00
1800000E00
3800000700
3000000300
7000000380
6000000180
6000000180
E000000000
C000000000
C000000000
C000000000
C000000000
C000000000
C000000000
C000000000
C000000000
C000000000
C000000000
C000000000
C000000000
C000000000
6000000000
6000000000
6000000180
3000000300
3000000300
1800000600
1C00000E00
0E00001C00
0700003800
038000F000
01F003E000
007FFF8000
001FFC0000
0000600000
0000600000
0000C00000
0000C00000
0000FE0000
0000070000
0000018000
0000018000
0000018000
0000018000
0000030000
0000070000
0000FE0000
0000200000
ENDCHAR
STARTCHAR 00C8
ENCODING 200
SWIDTH 558 0
DWIDTH 31 0
BBX 22 52 5 0
BITMAP
0E0000
060000
070000
030000
018000
00C000
00C000
006000
002000
000000
000000
000000
000000
FFFFFC
FFFFFC
C00000
C00000
C00000
C00000
C00000
C00000
C00000
C00000
C00000
C00000
C00000
C00000
C00000
C00000
C00000
C00000
FFFFF0
FFFFF0
C00000
C00000
C00000
C00000
C00000
C00000
C00000
C00000
C00000
C00000
C00000
C00000
C00000
C00000
C00000
C00000
C00000
FFFFFC
FFFFFC
ENDCHAR
STARTCHAR 00C9
ENCODING 201
SWIDTH 558 0
DWIDTH 31 0
BBX 22 52 5 0
BITMAP
0000C0
0001C0
000180
000300
000700
000600
000C00
000C00
001800
000000
000000
000000
000000
FFFFFC
FFFFFC
C00000
C00000
C00000
C00000
C00000
C00000
C00000
C00000
C00000
C00000
C00000
C00000
C00000
C00000
C00000
C00000
FFFFF0
FFFFF0
C00000
C00000
C00000
C00000
C00000
C00000
C00000
C00000
C00000
C00000
C00000
C00000
C00000
C00000
C00000
C00000
C00000
FFFFFC
FFFFFC
ENDCHAR
STARTCHAR 00CA
ENCODING 202
SWIDTH 558 0
DWIDTH 31 0
BBX 22 50 5 0
BITMAP
007800
00FC00
00CE00
018700
030380
0601C0
0C00E0
000000
000000
000000
000000
FFFFFC
FFFFFC
C00000
C00000
C00000
C00000
C00000
C00000
C00000
C00000
C00000
C00000
C00000
C00000
C00000
C00000
C00000
C00000
FFFFF0
FFFFF0
C00000
C00000
C00000
C00000
C00000
C00000
C00000
C00000
C00000
C00000
C00000
C00000
C00000
C00000
C00000
C00000
C00000
FFFFFC
FFFFFC
ENDCHAR
STARTCHAR 00CB
ENCODING 203
SWIDTH 558 0
DWIDTH 31 0
BBX 22 49 5 0
BITMAP
030300
078780
078780
038780
000000
000000
000000
000000
000000
000000
FFFFFC
FFFFFC
C00000
C00000
C00000
C00000
C00000
C00000
C00000
C00000
C00000
C00000
C00000
C00000
C00000
C00000
C00000
C00000
FFFFF0
FFFFF0
C00000
C00000
C00000
C00000
C00000
C00000
C00000
C00000
C00000
C00000
C00000
C00000
C00000
C00000
C00000
C00000
C00000
FFFFFC
FFFFFC
ENDCHAR
STARTCHAR 00CC
ENCODING 204
SWIDTH 216 0
DWIDTH 12 0
BBX 8 52 -1 0
BITMAP
E0
60
70
30
18
18
0C
06
02
00
00
00
00
03
03
03
03
03
03
03
03
03
03
03
03
03
03
03
03
03
03
03
03
03
03
03
03
03
03
03
03
03
03
03
03
03
03
03
03
03
03
03
ENDCHAR
STARTCHAR 00CD
ENCODING 205
SWIDTH 216 0
DWIDTH 12 0
BBX 8 52 5 0
BITMAP
03
07
06
0C
18
18
30
20
60
00
00
00
00
C0
C0
C0
C0
C0
C0
C0
C0
C0
C0
C0
C0
C0
C0
C0
C0
C0
C0
C0
C0
C0
C0
C0
C0
C0
C0
C0
C0
C0
C0
C0
C0
C0
C0
C0
C0
C0
C0
C0
ENDCHAR
STARTCHAR 00CE
ENCODING 206
SWIDTH 216 0
DWIDTH 12 0
BBX 15 50 -1 0
BITMAP
0780
0FC0
1CE0
1870
3038
601C
C00C
0002
0000
0000
0000
0300
0300
0300
0300
0300
0300
0300
0300
0300
0300
0300
0300
0300
0300
0300
0300
0300
0300
0300
0300
0300
0300
0300
0300
0300
0300
0300
0300
0300
0300
0300
0300
0300
0300
0300
0300
0300
0300
0300
ENDCHAR
STARTCHAR 00CF
ENCODING 207
SWIDTH 216 0
DWIDTH 12 0
BBX 12 49 0 0
BITMAP
6060
F0F0
F0F0
70E0
0000
0000
0000
0000
0000
0000
0600
0600
0600
0600
0600
0600
0600
0600
0600
0600
0600
0600
0600
0600
0600
0600
0600
0600
0600
0600
0600
0600
0600
0600
0600
0600
0600
0600
0600
0600
0600
0600
0600
0600
0600
0600
0600
0600
0600
ENDCHAR
STARTCHAR 00D0
ENCODING 208
SWIDTH 720 0
DWIDTH 40 0
BBX 34 39 3 0
BITMAP
0FFFE00000
0FFFFE0000
08000F8000
080001E000
0800007000
0800001800
0800000C00
0800000600
0800000300
0800000300
0800000180
0800000180
0800000180
08000000C0
08000000C0
08000000C0
08000000C0
08000000C0
FFFE0000C0
FFFE0000C0
08000000C0
08000000C0
08000000C0
08000000C0
08000000C0
08000000C0
0800000080
0800000180
0800000180
0800000300
0800000300
0800000600
0800000C00
0800001C00
0800003800
080000E000
080007C000
0FFFFF0000
0FFFF00000
ENDCHAR
STARTCHAR 00D1
ENCODING 209
SWIDTH 720 0
DWIDTH 40 0
BBX 30 50 5 0
BITMAP
00000C00
007E0C00
00670C00
00C39800
00C1F800
00C00000
00000000
00000000
00000000
00000000
00000000
C000000C
E000000C
F000000C
F800000C
D800000C
CC00000C
CE00000C
C600000C
C300000C
C180000C
C1C0000C
C0C0000C
C060000C
C070000C
C038000C
C018000C
C00C000C
C00E000C
C006000C
C003000C
C001800C
C001C00C
C000C00C
C000600C
C000700C
C000380C
C000180C
C0000C0C
C0000E0C
C000060C
C000030C
C000018C
C00001CC
C00000CC
C000006C
C000007C
C000003C
C000001C
C000000C
ENDCHAR
STARTCHAR 00D2
ENCODING 210
SWIDTH 738 0
DWIDTH 41 0
BBX 35 52 3 0
BITMAP
0018000000
001C000000
000C000000
0006000000
0006000000
0003000000
0001800000
0001800000
0000C00000
0000000000
0000000000
0000000000
0001F80000
001FFF0000
007C07E000
01E000F000
0380003800
0700001C00
0E00000E00
0C00000700
1800000300
1800000180
3000000180
30000001C0
60000000C0
60000000C0
60000000C0
6000000060
6000000060
4000000060
C000000060
C000000060
C000000060
C000000060
C000000060
6000000060
6000000060
6000000060
60000000C0
60000000C0
30000000C0
3000000180
3800000180
1800000380
1C00000300
0E00000600
0700000E00
0380001C00
01C0007800
00F801E000
003FFFC000
000FFE0000
ENDCHAR
STARTCHAR 00D3
ENCODING 211
SWIDTH 738 0
DWIDTH 41 0
BBX 35 52 3 0
BITMAP
0000038000
0000030000
0000060000
0000060000
00000C0000
0000180000
0000180000
0000300000
0000200000
0000000000
0000000000
0000000000
0001F80000
001FFF0000
007C07E000
01E000F000
0380003800
0700001C00
0E00000E00
0C00000700
1800000300
1800000180
3000000180
30000001C0
60000000C0
60000000C0
60000000C0
6000000060
6000000060
4000000060
C000000060
C000000060
C000000060
C000000060
C000000060
6000000060
6000000060
6000000060
60000000C0
60000000C0
30000000C0
3000000180
3800000180
1800000380
1C00000300
0E00000600
0700000E00
0380001C00
01C0007800
00F801E000
003FFFC000
000FFE0000
ENDCHAR
STARTCHAR 00D4
ENCODING 212
SWIDTH 738 0
DWIDTH 41 0
BBX 35 50 3 0
BITMAP
0000F00000
0001F80000
0003980000
00070C0000
000E060000
001C030000
0038018000
0000000000
0000000000
0000000000
0001F80000
001FFF0000
007C07E000
01E000F000
0380003800
0700001C00
0E00000E00
0C00000700
1800000300
1800000180
3000000180
30000001C0
60000000C0
60000000C0
60000000C0
6000000060
6000000060
4000000060
C000000060
C000000060
C000000060
C000000060
C000000060
6000000060
6000000060
6000000060
60000000C0
60000000C0
30000000C0
3000000180
3800000180
1800000380
1C00000300
0E00000600
0700000E00
0380001C00
01C0007800
00F801E000
003FFFC000
000FFE0000
ENDCHAR
STARTCHAR 00D5
ENCODING 213
SWIDTH 738 0
DWIDTH 41 0
BBX 35 50 3 0
BITMAP
0000018000
000F818000
001CC10000
0018730000
00183E0000
0018080000
0000000000
0000000000
0000000000
0000000000
0001F80000
001FFF0000
007C07E000
01E000F000
0380003800
0700001C00
0E00000E00
0C00000700
1800000300
1800000180
3000000180
30000001C0
60000000C0
60000000C0
60000000C0
6000000060
6000000060
4000000060
C000000060
C000000060
C000000060
C000000060
C000000060
6000000060
6000000060
6000000060
60000000C0
60000000C0
30000000C0
3000000180
3800000180
1800000380
1C00000300
0E00000600
0700000E00
0380001C00
01C0007800
00F801E000
003FFFC000
000FFE0000
ENDCHAR
STARTCHAR 00D6
ENCODING 214
SWIDTH 738 0
DWIDTH 41 0
BBX 35 49 3 0
BITMAP
0006040000
000F0E0000
000F0E0000
000E0E0000
0000000000
0000000000
0000000000
0000000000
0000000000
0001F80000
001FFF0000
007C07E000
01E000F000
0380003800
0700001C00
0E00000E00
0C00000700
1800000300
1800000180
3000000180
30000001C0
60000000C0
60000000C0
60000000C0
6000000060
6000000060
4000000060
C000000060
C000000060
C000000060
C000000060
C000000060
6000000060
6000000060
6000000060
60000000C0
60000000C0
30000000C0
3000000180
3800000180
1800000380
1C00000300
0E00000600
0700000E00
0380001C00
01C0007800
00F801E000
003FFFC000
000FFE0000
ENDCHAR
STARTCHAR 00D7
ENCODING 215
SWIDTH 522 0
DWIDTH 29 0
BBX 15 15 7 9
BITMAP
C006
E00E
701C
3838
1C70
0EE0
07C0
0380
07C0
0EE0
1C70
3838
701C
E00E
C006
ENDCHAR
STARTCHAR 00D8
ENCODING 216
SWIDTH 738 0
DWIDTH 41 0
BBX 35 43 3 -2
BITMAP
0000000300
0001F80300
001FFF0600
007C07CC00
01E000FC00
0380003800
0700003C00
0E00003E00
0C00006700
180000C300
180000C380
3000018180
30000381C0
60000300C0
60000600C0
60000600C0
60000C0060
6000180060
C000180060
C000300060
C000600060
C000600060
C000C00060
C001800060
4001800060
6003000060
60070000C0
60060000C0
600C0000C0
300C0000C0
3018000180
3830000180
1830000300
1C60000300
0EC0000600
06C0000E00
0380001C00
03C0007800
03F001E000
063FFFC000
0E0FFE0000
0C00000000
1800000000
ENDCHAR
STARTCHAR 00D9
ENCODING 217
SWIDTH 666 0
DWIDTH 37 0
BBX 30 53 4 -1
BITMAP
00C00000
00600000
00700000
00300000
00180000
00180000
000C0000
00060000
00060000
00000000
00000000
00000000
00000000
C000000C
C000000C
C000000C
C000000C
C000000C
C000000C
C000000C
C000000C
C000000C
C000000C
C000000C
C000000C
C000000C
C000000C
C000000C
C000000C
C000000C
C000000C
C000000C
C000000C
C000000C
C000000C
C000000C
C000000C
C000000C
C000000C
40000018
60000018
60000018
60000018
30000030
30000030
30000070
18000060
0C0000C0
0E0001C0
07800780
01FCFE00
007FF800
00030000
ENDCHAR
STARTCHAR 00DA
ENCODING 218
SWIDTH 666 0
DWIDTH 37 0
BBX 30 53 4 -1
BITMAP
00000C00
00001C00
00003800
00003000
00006000
00006000
0000C000
00008000
00018000
00000000
00000000
00000000
00000000
C000000C
C000000C
C000000C
C000000C
C000000C
C000000C
C000000C
C000000C
C000000C
C000000C
C000000C
C000000C
C000000C
C000000C
C000000C
C000000C
C000000C
C000000C
C000000C
C000000C
C000000C
C000000C
C000000C
C000000C
C000000C
C000000C
40000018
60000018
60000018
60000018
30000030
30000030
30000070
18000060
0C0000C0
0E0001C0
07800780
01FCFE00
007FF800
00030000
ENDCHAR
STARTCHAR 00DB
ENCODING 219
SWIDTH 666 0
DWIDTH 37 0
BBX 30 51 4 -1
BITMAP
00078000
000FC000
001CE000
00387000
00303800
00601800
00C00C00
00000200
00000000
00000000
00000000
C000000C
C000000C
C000000C
C000000C
C000000C
C000000C
C000000C
C000000C
C000000C
C000000C
C000000C
C000000C
C000000C
C000000C
C000000C
C000000C
C000000C
C000000C
C000000C
C000000C
C000000C
C000000C
C000000C
C000000C
C000000C
C000000C
40000018
60000018
60000018
60000018
30000030
30000030
30000070
18000060
0C0000C0
0E0001C0
07800780
01FCFE00
007FF800
00030000
ENDCHAR
STARTCHAR 00DC
ENCODING 220
SWIDTH 666 0
DWIDTH 37 0
BBX 30 50 4 -1
BITMAP
00303000
00787800
00787800
00787000
00000000
00000000
00000000
00000000
00000000
00000000
C000000C
C000000C
C000000C
C000000C
C000000C
C000000C
C000000C
C000000C
C000000C
C000000C
C000000C
C000000C
C000000C
C000000C
C000000C
C000000C
C000000C
C000000C
C000000C
C000000C
C000000C
C000000C
C000000C
C000000C
C000000C
C000000C
40000018
60000018
60000018
60000018
30000030
30000030
30000070
18000060
0C0000C0
0E0001C0
07800780
01FCFE00
007FF800
00030000
ENDCHAR
STARTCHAR 00DD
ENCODING 221
SWIDTH 576 0
DWIDTH 32 0
BBX 26 52 3 0
BITMAP
00003000
00006000
0000E000
0000C000
00018000
00018000
00030000
00060000
00060000
00000000
00000000
00000000
00000000
C00000C0
E00001C0
60000180
70000380
30000300
38000700
18000600
1C000E00
0C000C00
0E001C00
06001800
07003800
03003000
03807000
01806000
01C0E000
00C0C000
00E18000
00618000
00730000
00330000
001E0000
001E0000
000C0000
000C0000
000C0000
000C0000
000C0000
000C0000
000C0000
000C0000
000C0000
000C0000
000C0000
000C0000
000C0000
000C0000
000C0000
000C0000
ENDCHAR
STARTCHAR 00DE
ENCODING 222
SWIDTH 576 0
DWIDTH 32 0
BBX 25 39 5 0
BITMAP
C0000000
C0000000
C0000000
C0000000
C0000000
C0000000
C0000000
FFF80000
FFFFC000
C001F000
C0003C00
C0000C00
C0000600
C0000300
C0000300
C0000180
C0000180
C0000180
C0000180
C0000180
C0000180
C0000180
C0000180
C0000180
C0000300
C0000300
C0000600
C0000E00
C0003C00
C001F000
FFFFE000
FFFC0000
C0000000
C0000000
C0000000
C0000000
C0000000
C0000000
C0000000
ENDCHAR
STARTCHAR 00DF
ENCODING 223
SWIDTH 540 0
DWIDTH 30 0
BBX 22 40 5 0
BITMAP
00F800
07FF00
1F07C0
1800E0
300060
600030
600030
600010
C00018
C00018
C00018
C00018
C00018
C00030
C00030
C00060
C000E0
C001C0
C03F00
C3FC00
C03F80
C001C0
C00060
C00030
C00018
C00018
C0000C
C0000C
C0000C
C0000C
C0000C
C0000C
C00008
C00018
C00018
C00030
C00060
C001C0
C19F80
C1FE00
ENDCHAR
STARTCHAR 00E0
ENCODING 224
SWIDTH 612 0
DWIDTH 34 0
BBX 27 42 3 0
BITMAP
01C00000
00C00000
00E00000
00600000
00300000
00300000
00180000
000C0000
00040000
00000000
00000000
00000000
007F8000
01FFE060
03807860
0E001C60
0C000E60
18000660
30000360
300001E0
600001E0
600000E0
600000E0
600000E0
C00000E0
C00000E0
C00000E0
C00000E0
C00000E0
C00000E0
C00000E0
600000E0
600000E0
600001E0
300001E0
30000360
18000260
1C000660
0E001C60
07803860
01FFF060
007FC060
ENDCHAR
STARTCHAR 00E1
ENCODING 225
SWIDTH 612 0
DWIDTH 34 0
BBX 27 42 3 0
BITMAP
00003800
00003000
00007000
00006000
0000C000
00018000
00018000
00030000
00020000
00000000
00000000
00000000
007F8000
01FFE060
03807860
0E001C60
0C000E60
18000660
30000360
300001E0
600001E0
600000E0
600000E0
600000E0
C00000E0
C00000E0
C00000E0
C00000E0
C00000E0
C00000E0
C00000E0
600000E0
600000E0
600001E0
300001E0
30000360
18000260
1C000660
0E001C60
07803860
01FFF060
007FC060
ENDCHAR
STARTCHAR 00E2
ENCODING 226
SWIDTH 612 0
DWIDTH 34 0
BBX 27 40 3 0
BITMAP
000F0000
001B8000
0039C000
0070E000
00E07000
01C03800
03801C00
00000000
00000000
00000000
007F8000
01FFE060
03807860
0E001C60
0C000E60
18000660
30000360
300001E0
600001E0
600000E0
600000E0
600000E0
C00000E0
C00000E0
C00000E0
C00000E0
C00000E0
C00000E0
C00000E0
600000E0
600000E0
600001E0
300001E0
30000360
18000260
1C000660
0E001C60
07803860
01FFF060
007FC060
ENDCHAR
STARTCHAR 00E3
ENCODING 227
SWIDTH 612 0
DWIDTH 34 0
BBX 27 40 3 0
BITMAP
00301800
00FC1800
00CE1800
0183F000
0181E000
00000000
00000000
00000000
00000000
00000000
007F8000
01FFE060
03807860
0E001C60
0C000E60
18000660
30000360
300001E0
600001E0
600000E0
600000E0
600000E0
C00000E0
C00000E0
C00000E0
C00000E0
C00000E0
C00000E0
C00000E0
600000E0
600000E0
600001E0
300001E0
30000360
18000260
1C000660
0E001C60
07803860
01FFF060
007FC060
ENDCHAR
STARTCHAR 00E4
ENCODING 228
SWIDTH 612 0
DWIDTH 34 0
BBX 27 39 3 0
BITMAP
0060E000
00F0F000
00F0F000
0060E000
00000000
00000000
00000000
00000000
00000000
007F8000
01FFE060
03807860
0E001C60
0C000E60
18000660
30000360
300001E0
600001E0
600000E0
600000E0
600000E0
C00000E0
C00000E0
C00000E0
C00000E0
C00000E0
C00000E0
C00000E0
600000E0
600000E0
600001E0
300001E0
30000360
18000260
1C000660
0E001C60
07803860
01FFF060
007FC060
ENDCHAR
STARTCHAR 00E5
ENCODING 229
SWIDTH 612 0
DWIDTH 34 0
BBX 27 43 3 0
BITMAP
000F0000
00198000
0020C000
00204000
00204000
0020C000
00308000
001F0000
00000000
00000000
00000000
00000000
00000000
007F8000
01FFE060
03807860
0E001C60
0C000E60
18000660
30000360
300001E0
600001E0
600000E0
600000E0
600000E0
C00000E0
C00000E0
C00000E0
C00000E0
C00000E0
C00000E0
C00000E0
600000E0
600000E0
600001E0
300001E0
30000360
18000260
1C000660
0E001C60
07803860
01FFF060
007FC060
ENDCHAR
STARTCHAR 00E6
ENCODING 230
SWIDTH 954 0
DWIDTH 53 0
BBX 48 30 3 0
BITMAP
007E0001FE00
03FFC007FFC0
0700E01E01E0
1C0030380070
180018700038
30000CE00018
70000CC0000C
60000780000C
600007800006
000007000006
000007000006
000007000006
000007000006
000007000006
01FFFFFFFFFE
0FFFFFFFFFFF
1C0007000000
300007000000
600007000000
600007000000
E00007000000
C00007800006
C00005800006
E0000CC0000C
600018E0001C
600038700038
300070380070
1C01E01E01E0
0FFF800FFFC0
03FE0003FF00
ENDCHAR
STARTCHAR 00E7
ENCODING 231
SWIDTH 576 0
DWIDTH 32 0
BBX 26 44 3 -14
BITMAP
003FC000
01FFF000
03C03C00
07000E00
0E000700
1C000380
38000180
30000180
300000C0
600000C0
600000C0
60000000
60000000
E0000000
E0000000
E0000000
E0000000
60000000
60000000
600000C0
600000C0
300000C0
300000C0
38000180
18000380
0C000300
07000E00
03801C00
01FFF800
007FE000
00060000
00060000
000C0000
000C0000
000FE000
001FF000
00001800
00001800
00001800
00001800
00001800
00003000
000FE000
000F8000
ENDCHAR
STARTCHAR 00E8
ENCODING 232
SWIDTH 576 0
DWIDTH 32 0
BBX 26 42 3 0
BITMAP
01800000
00C00000
00E00000
00600000
00300000
00300000
00180000
00080000
000C0000
00000000
00000000
00000000
003FC000
01FFF000
03C03C00
07000E00
0E000600
1C000300
18000380
30000180
30000180
600000C0
600000C0
600000C0
600000C0
E00000C0
FFFFFFC0
FFFFFFC0
E0000000
60000000
60000000
60000000
60000000
300000C0
30000180
38000180
18000300
0C000700
07000E00
03803C00
01FFF800
007FC000
ENDCHAR
STARTCHAR 00E9
ENCODING 233
SWIDTH 576 0
DWIDTH 32 0
BBX 26 42 3 0
BITMAP
00003800
00003000
00006000
0000E000
0000C000
00018000
00018000
00030000
00020000
00000000
00000000
00000000
003FC000
01FFF000
03C03C00
07000E00
0E000600
1C000300
18000380
30000180
30000180
600000C0
600000C0
600000C0
600000C0
E00000C0
FFFFFFC0
FFFFFFC0
E0000000
60000000
60000000
60000000
60000000
300000C0
30000180
38000180
18000300
0C000700
07000E00
03803C00
01FFF800
007FC000
ENDCHAR
STARTCHAR 00EA
ENCODING 234
SWIDTH 576 0
DWIDTH 32 0
BBX 26 40 3 0
BITMAP
000F0000
001B8000
0031C000
0060E000
00E07000
01C03000
03801800
00000000
00000000
00000000
003FC000
01FFF000
03C03C00
07000E00
0E000600
1C000300
18000380
30000180
30000180
600000C0
600000C0
600000C0
600000C0
E00000C0
FFFFFFC0
FFFFFFC0
E0000000
60000000
60000000
60000000
60000000
300000C0
30000180
38000180
18000300
0C000700
07000E00
03803C00
01FFF800
007FC000
ENDCHAR
STARTCHAR 00EB
ENCODING 235
SWIDTH 576 0
DWIDTH 32 0
BBX 26 39 3 0
BITMAP
00E0E000
00F0E000
00F0E000
00E0E000
00000000
00000000
00000000
00000000
00000000
003FC000
01FFF000
03C03C00
07000E00
0E000600
1C000300
18000380
30000180
30000180
600000C0
600000C0
600000C0
600000C0
E00000C0
FFFFFFC0
FFFFFFC0
E0000000
60000000
60000000
60000000
60000000
300000C0
30000180
38000180
18000300
0C000700
07000E00
03803C00
01FFF800
007FC000
ENDCHAR
STARTCHAR 00EC
ENCODING 236
SWIDTH 216 0
DWIDTH 12 0
BBX 8 42 -1 0
BITMAP
E0
60
70
30
18
0C
0C
06
02
00
00
00
00
03
03
03
03
03
03
03
03
03
03
03
03
03
03
03
03
03
03
03
03
03
03
03
03
03
03
03
03
03
ENDCHAR
STARTCHAR 00ED
ENCODING 237
SWIDTH 216 0
DWIDTH 12 0
BBX 8 42 5 0
BITMAP
07
06
0E
0C
18
38
30
60
40
00
00
00
00
C0
C0
C0
C0
C0
C0
C0
C0
C0
C0
C0
C0
C0
C0
C0
C0
C0
C0
C0
C0
C0
C0
C0
C0
C0
C0
C0
C0
C0
ENDCHAR
STARTCHAR 00EE
ENCODING 238
SWIDTH 216 0
DWIDTH 12 0
BBX 16 40 -2 0
BITMAP
03C0
07E0
0E70
1C38
381C
700E
E007
0000
0000
0000
0000
0180
0180
0180
0180
0180
0180
0180
0180
0180
0180
0180
0180
0180
0180
0180
0180
0180
0180
0180
0180
0180
0180
0180
0180
0180
0180
0180
0180
0180
ENDCHAR
STARTCHAR 00EF
ENCODING 239
SWIDTH 216 0
DWIDTH 12 0
BBX 12 39 0 0
BITMAP
60E0
F0F0
F0F0
60E0
0000
0000
0000
0000
0000
0000
0600
0600
0600
0600
0600
0600
0600
0600
0600
0600
0600
0600
0600
0600
0600
0600
0600
0600
0600
0600
0600
0600
0600
0600
0600
0600
0600
0600
0600
ENDCHAR
STARTCHAR 00F0
ENCODING 240
SWIDTH 612 0
DWIDTH 34 0
BBX 27 42 3 1
BITMAP
001F0180
0007C780
0000FE00
00003800
0000FC00
0003CE00
00070600
00000300
00000300
00000180
00000180
000000C0
007F80C0
01FFF0C0
038078C0
0E001C40
0C000640
18000740
38000340
300001E0
600001E0
600000E0
600000E0
600000E0
C00000E0
C00000E0
C00000E0
C00000C0
C00000C0
C00000C0
600000C0
600000C0
600000C0
60000180
30000180
30000380
18000300
1C000600
0E000C00
07803800
01FFF000
007FC000
ENDCHAR
STARTCHAR 00F1
ENCODING 241
SWIDTH 612 0
DWIDTH 34 0
BBX 25 40 5 0
BITMAP
00E06000
03F06000
03186000
060EC000
0607C000
00000000
00000000
00000000
00000000
00000000
007F8000
C1FFE000
C380F800
C6003C00
CC000E00
D8000600
D0000300
E0000300
E0000300
C0000180
C0000180
C0000180
C0000180
C0000180
C0000180
C0000180
C0000180
C0000180
C0000180
C0000180
C0000180
C0000180
C0000180
C0000180
C0000180
C0000180
C0000180
C0000180
C0000180
C0000180
ENDCHAR
STARTCHAR 00F2
ENCODING 242
SWIDTH 594 0
DWIDTH 33 0
BBX 27 42 3 0
BITMAP
01800000
00C00000
00E00000
00600000
00300000
00300000
00180000
00080000
000C0000
00000000
00000000
00000000
003FC000
01FFF000
03C03C00
07000E00
0E000700
1C000300
18000180
30000180
300000C0
600000C0
600000E0
60000060
60000060
E0000060
C0000060
C0000060
C0000060
60000060
60000060
60000060
600000C0
300000C0
300001C0
38000180
1C000300
0C000700
07000E00
03C03C00
01FFF000
007FC000
ENDCHAR
STARTCHAR 00F3
ENCODING 243
SWIDTH 594 0
DWIDTH 33 0
BBX 27 42 3 0
BITMAP
00003800
00003000
00006000
0000E000
0000C000
00018000
00018000
00030000
00020000
00000000
00000000
00000000
003FC000
01FFF000
03C03C00
07000E00
0E000700
1C000300
18000180
30000180
300000C0
600000C0
600000E0
60000060
60000060
E0000060
C0000060
C0000060
C0000060
60000060
60000060
60000060
600000C0
300000C0
300001C0
38000180
1C000300
0C000700
07000E00
03C03C00
01FFF000
007FC000
ENDCHAR
STARTCHAR 00F4
ENCODING 244
SWIDTH 594 0
DWIDTH 33 0
BBX 27 40 3 0
BITMAP
000F0000
001B8000
0031C000
0060E000
00E07000
01C03000
03801800
00000000
00000000
00000000
003FC000
01FFF000
03C03C00
07000E00
0E000700
1C000300
18000180
30000180
300000C0
600000C0
600000E0
60000060
60000060
E0000060
C0000060
C0000060
C0000060
60000060
60000060
60000060
600000C0
300000C0
300001C0
38000180
1C000300
0C000700
07000E00
03C03C00
01FFF000
007FC000
ENDCHAR
STARTCHAR 00F5
ENCODING 245
SWIDTH 594 0
DWIDTH 33 0
BBX 27 40 3 0
BITMAP
00301800
00FC1800
018E3000
01877000
0181E000
00000000
00000000
00000000
00000000
00000000
003FC000
01FFF000
03C03C00
07000E00
0E000700
1C000300
18000180
30000180
300000C0
600000C0
600000E0
60000060
60000060
E0000060
C0000060
C0000060
C0000060
60000060
60000060
60000060
600000C0
300000C0
300001C0
38000180
1C000300
0C000700
07000E00
03C03C00
01FFF000
007FC000
ENDCHAR
STARTCHAR 00F6
ENCODING 246
SWIDTH 594 0
DWIDTH 33 0
BBX 27 39 3 0
BITMAP
00E0E000
00F0E000
00F0E000
00E0E000
00000000
00000000
00000000
00000000
00000000
003FC000
01FFF000
03C03C00
07000E00
0E000700
1C000300
18000180
30000180
300000C0
600000C0
600000E0
60000060
60000060
E0000060
C0000060
C0000060
C0000060
60000060
60000060
60000060
600000C0
300000C0
300001C0
38000180
1C000300
0C000700
07000E00
03C03C00
01FFF000
007FC000
ENDCHAR
STARTCHAR 00F7
ENCODING 247
SWIDTH 594 0
DWIDTH 33 0
BBX 21 22 4 7
BITMAP
002000
007000
00F800
007000
002000
000000
000000
000000
000000
000000
000000
FFFFF8
FFFFF8
000000
000000
000000
000000
000000
007000
00F000
00F800
007000
ENDCHAR
STARTCHAR 00F8
ENCODING 248
SWIDTH 594 0
DWIDTH 33 0
BBX 27 36 3 -3
BITMAP
00000300
00000300
00000600
003FC600
01FFFC00
03C03C00
07001E00
0E003700
1C003300
18006180
30006180
3000C0C0
6000C0C0
600180E0
60018060
60030060
E0070060
C0060060
C00C0060
C00C0060
60180060
60180060
603000E0
603000C0
306000C0
306001C0
38C00180
1CC00300
0D800700
07800E00
03C03C00
07FFF000
067FC000
0C000000
0C000000
18000000
ENDCHAR
STARTCHAR 00F9
ENCODING 249
SWIDTH 612 0
DWIDTH 34 0
BBX 24 43 5 -1
BITMAP
0E0000
060000
030000
030000
018000
00C000
00C000
006000
002000
000000
000000
000000
000000
C00001
C00001
C00001
C00001
C00001
C00001
C00001
C00001
C00001
C00001
C00001
C00001
C00001
C00001
C00001
C00001
C00001
C00003
C00003
C00003
400003
600003
600007
30000D
380019
1C0031
0F00E1
07FFC1
01FF01
001000
ENDCHAR
STARTCHAR 00FA
ENCODING 250
SWIDTH 612 0
DWIDTH 34 0
BBX 24 43 5 -1
BITMAP
0000C0
000180
000380
000300
000600
000600
000C00
001800
001800
000000
000000
000000
000000
C00001
C00001
C00001
C00001
C00001
C00001
C00001
C00001
C00001
C00001
C00001
C00001
C00001
C00001
C00001
C00001
C00001
C00003
C00003
C00003
400003
600003
600007
30000D
380019
1C0031
0F00E1
07FFC1
01FF01
001000
ENDCHAR
STARTCHAR 00FB
ENCODING 251
SWIDTH 612 0
DWIDTH 34 0
BBX 24 41 5 -1
BITMAP
007800
00EC00
01CE00
038700
070380
0E01C0
0C00E0
000000
000000
000000
000000
C00001
C00001
C00001
C00001
C00001
C00001
C00001
C00001
C00001
C00001
C00001
C00001
C00001
C00001
C00001
C00001
C00001
C00003
C00003
C00003
400003
600003
600007
30000D
380019
1C0031
0F00E1
07FFC1
01FF01
001000
ENDCHAR
STARTCHAR 00FC
ENCODING 252
SWIDTH 612 0
DWIDTH 34 0
BBX 24 40 5 -1
BITMAP
030300
078780
078780
030300
000000
000000
000000
000000
000000
000000
C00001
C00001
C00001
C00001
C00001
C00001
C00001
C00001
C00001
C00001
C00001
C00001
C00001
C00001
C00001
C00001
C00001
C00003
C00003
C00003
400003
600003
600007
30000D
380019
1C0031
0F00E1
07FFC1
01FF01
001000
ENDCHAR
STARTCHAR 00FD
ENCODING 253
SWIDTH 522 0
DWIDTH 29 0
BBX 25 52 2 -10
BITMAP
00006000
0000E000
0000C000
00018000
00038000
00030000
00060000
00060000
000C0000
00000000
00000000
00000000
00000000
E0000180
60000380
60000300
30000300
30000600
38000600
18000C00
18000C00
0C001C00
0C001800
0E001800
06003000
06003000
03006000
03006000
0180C000
0180C000
0180C000
00C18000
00C18000
00630000
00630000
00660000
00360000
00360000
001C0000
001C0000
00180000
00180000
00300000
00300000
00600000
00600000
00E00000
00C00000
01C00000
03800000
7F000000
7E000000
ENDCHAR
STARTCHAR 00FE
ENCODING 254
SWIDTH 612 0
DWIDTH 34 0
BBX 26 55 5 -13
BITMAP
C0000000
C0000000
C0000000
C0000000
C0000000
C0000000
C0000000
C0000000
C0000000
C0000000
C0000000
C0000000
C07F8000
C1FFF000
C3807800
C6001C00
CC000600
D8000700
D0000300
F0000180
E0000180
E00000C0
E00000C0
C00000C0
C00000C0
C00000C0
C00000C0
C00000C0
C00000C0
C00000C0
C00000C0
E00000C0
E00000C0
E0000180
F0000180
F0000380
D8000300
CC000600
C6000C00
C3803800
C1FFF000
C07FC000
C0000000
C0000000
C0000000
C0000000
C0000000
C0000000
C0000000
C0000000
C0000000
C0000000
C0000000
C0000000
C0000000
ENDCHAR
STARTCHAR 00FF
ENCODING 255
SWIDTH 522 0
DWIDTH 29 0
BBX 25 49 2 -10
BITMAP
01C18000
03C3C000
03C3C000
01C18000
00000000
00000000
00000000
00000000
00000000
00000000
E0000180
60000380
60000300
30000300
30000600
38000600
18000C00
18000C00
0C001C00
0C001800
0E001800
06003000
06003000
03006000
03006000
0180C000
0180C000
0180C000
00C18000
00C18000
00630000
00630000
00660000
00360000
00360000
001C0000
001C0000
00180000
00180000
00300000
00300000
00600000
00600000
00E00000
00C00000
01C00000
03800000
7F000000
7E000000
ENDCHAR
STARTCHAR 0100
ENCODING 256
SWIDTH 684 0
DWIDTH 38 0
BBX 32 46 3 0
BITMAP
00FFFF00
00000000
00000000
00000000
00000000
00000000
00000000
00018000
00038000
0003C000
0003C000
00066000
00066000
000C6000
000C3000
000C3000
00181800
00181800
00301800
00300C00
00300C00
00600600
00600600
00600600
00C00300
00C00300
01800180
01800180
01800180
030000C0
030000C0
07FFFFE0
07FFFFE0
06000060
0C000030
0C000030
18000018
18000018
18000018
3000000C
3000000C
20000006
60000006
60000006
C0000003
C0000003
ENDCHAR
STARTCHAR 0101
ENCODING 257
SWIDTH 612 0
DWIDTH 34 0
BBX 27 37 3 0
BITMAP
03FFFC00
03FFFC00
00000000
00000000
00000000
00000000
00000000
007F8000
01FFE060
03807860
0E001C60
0C000E60
18000660
30000360
300001E0
600001E0
600000E0
600000E0
600000E0
C00000E0
C00000E0
C00000E0
C00000E0
C00000E0
C00000E0
C00000E0
600000E0
600000E0
600001E0
300001E0
30000360
18000260
1C000660
0E001C60
07803860
01FFF060
007FC060
ENDCHAR
STARTCHAR 0102
ENCODING 258
SWIDTH 684 0
DWIDTH 38 0
BBX 32 49 3 0
BITMAP
00C00300
00C00700
00700E00
003EFC00
000FF000
00000000
00000000
00000000
00000000
00000000
00018000
00038000
0003C000
0003C000
00066000
00066000
000C6000
000C3000
000C3000
00181800
00181800
00301800
00300C00
00300C00
00600600
00600600
00600600
00C00300
00C00300
01800180
01800180
01800180
030000C0
030000C0
07FFFFE0
07FFFFE0
06000060
0C000030
0C000030
18000018
18000018
18000018
3000000C
3000000C
20000006
60000006
60000006
C0000003
C0000003
ENDCHAR
STARTCHAR 0103
ENCODING 259
SWIDTH 612 0
DWIDTH 34 0
BBX 27 39 3 0
BITMAP
03000C00
03801800
01C03800
007FE000
001F8000
00000000
00000000
00000000
00000000
007F8000
01FFE060
03807860
0E001C60
0C000E60
18000660
30000360
300001E0
600001E0
600000E0
600000E0
600000E0
C00000E0
C00000E0
C00000E0
C00000E0
C00000E0
C00000E0
C00000E0
600000E0
600000E0
600001E0
300001E0
30000360
18000260
1C000660
0E001C60
07803860
01FFF060
007FC060
ENDCHAR
STARTCHAR 0104
ENCODING 260
SWIDTH 684 0
DWIDTH 38 0
BBX 35 47 3 -8
BITMAP
0001800000
0003800000
0003C00000
0003C00000
0006600000
0006600000
000C600000
000C300000
000C300000
0018180000
0018180000
0030180000
00300C0000
00300C0000
0060060000
0060060000
0060060000
00C0030000
00C0030000
0180018000
0180018000
0180018000
030000C000
030000C000
07FFFFE000
07FFFFE000
0600006000
0C00003000
0C00003000
1800001800
1800001800
1800001800
3000000C00
3000000C00
2000000600
6000000600
6000000600
C000000300
C000000300
0000000700
0000000C00
0000000C00
0000001800
0000001800
0000000C00
0000000E20
00000007E0
ENDCHAR
STARTCHAR 0105
ENCODING 261
SWIDTH 612 0
DWIDTH 34 0
BBX 29 38 3 -8
BITMAP
007F8000
01FFE060
03807860
0E001C60
0C000E60
18000660
30000360
300001E0
600001E0
600000E0
600000E0
600000E0
C00000E0
C00000E0
C00000E0
C00000E0
C00000E0
C00000E0
C00000E0
600000E0
600000E0
600001E0
300001E0
30000360
18000260
1C000660
0E001C60
07803860
01FFF060
007FC060
000001C0
00000380
00000300
00000200
00000200
00000300
00000388
000001F8
ENDCHAR
STARTCHAR 0106
ENCODING 262
SWIDTH 720 0
DWIDTH 40 0
BBX 33 52 4 0
BITMAP
0000060000
00000E0000
00000C0000
0000180000
0000380000
0000300000
0000600000
0000400000
0000C00000
0000000000
0000000000
0000000000
0003F00000
003FFF0000
00F80FC000
01C001E000
0780007000
0E00001800
0C00000C00
1800000E00
3800000700
3000000300
7000000380
6000000180
6000000180
E000000000
C000000000
C000000000
C000000000
C000000000
C000000000
C000000000
C000000000
C000000000
C000000000
C000000000
C000000000
C000000000
C000000000
6000000000
6000000000
6000000180
3000000300
3000000300
1800000600
1C00000E00
0E00001C00
0700003800
038000F000
01F003E000
007FFF8000
001FFE0000
ENDCHAR
STARTCHAR 0107
ENCODING 263
SWIDTH 576 0
DWIDTH 32 0
BBX 26 42 3 0
BITMAP
00003800
00003000
00007000
00006000
0000C000
0001C000
00018000
00030000
00020000
00000000
00000000
00000000
003FC000
01FFF000
03C03C00
07000E00
0E000700
1C000380
38000180
30000180
300000C0
600000C0
600000C0
60000000
60000000
E0000000
E0000000
E0000000
E0000000
60000000
60000000
600000C0
600000C0
300000C0
300000C0
38000180
18000380
0C000300
07000E00
03801C00
01FFF800
007FE000
ENDCHAR
STARTCHAR 010A
ENCODING 266
SWIDTH 720 0
DWIDTH 40 0
BBX 33 49 4 0
BITMAP
0001800000
0003C00000
0003C00000
0001C00000
0000000000
0000000000
0000000000
0000000000
0000000000
0003F00000
003FFF0000
00F80FC000
01C001E000
0780007000
0E00001800
0C00000C00
1800000E00
3800000700
3000000300
7000000380
6000000180
6000000180
E000000000
C000000000
C000000000
C000000000
C000000000
C000000000
C000000000
C000000000
C000000000
C000000000
C000000000
C000000000
C000000000
C000000000
6000000000
6000000000
6000000180
3000000300
3000000300
1800000600
1C00000E00
0E00001C00
0700003800
038000F000
01F003E000
007FFF8000
001FFE0000
ENDCHAR
STARTCHAR 010B
ENCODING 267
SWIDTH 576 0
DWIDTH 32 0
BBX 26 39 3 0
BITMAP
00060000
000F0000
000F0000
00060000
00000000
00000000
00000000
00000000
00000000
003FC000
01FFF000
03C03C00
07000E00
0E000700
1C000380
38000180
30000180
300000C0
600000C0
600000C0
60000000
60000000
E0000000
E0000000
E0000000
E0000000
60000000
60000000
600000C0
600000C0
300000C0
300000C0
38000180
18000380
0C000300
07000E00
03801C00
01FFF800
007FE000
ENDCHAR
STARTCHAR 010C
ENCODING 268
SWIDTH 720 0
DWIDTH 40 0
BBX 33 50 4 0
BITMAP
0060070000
00300E0000
00181C0000
001C380000
000E700000
0007E00000
0003C00000
0000000000
0000000000
0000000000
0003F00000
003FFF0000
00F80FC000
01C001E000
0780007000
0E00001800
0C00000C00
1800000E00
3800000700
3000000300
7000000380
6000000180
6000000180
E000000000
C000000000
C000000000
C000000000
C000000000
C000000000
C000000000
C000000000
C000000000
C000000000
C000000000
C000000000
C000000000
C000000000
6000000000
6000000000
6000000180
3000000300
3000000300
1800000600
1C00000E00
0E00001C00
0700003800
038000F000
01F003E000
007FFF8000
001FFE0000
ENDCHAR
STARTCHAR 010D
ENCODING 269
SWIDTH 576 0
DWIDTH 32 0
BBX 26 40 3 0
BITMAP
01801800
00C03000
00606000
0030C000
00198000
001F8000
000F0000
00000000
00000000
00000000
003FC000
01FFF000
03C03C00
07000E00
0E000700
1C000380
38000180
30000180
300000C0
600000C0
600000C0
60000000
60000000
E0000000
E0000000
E0000000
E0000000
60000000
60000000
600000C0
600000C0
300000C0
300000C0
38000180
18000380
0C000300
07000E00
03801C00
01FFF800
007FE000
ENDCHAR
STARTCHAR 010E
ENCODING 270
SWIDTH 684 0
DWIDTH 38 0
BBX 31 50 5 0
BITMAP
03803800
01C07000
00E06000
0060C000
00318000
001B0000
000E0000
00000000
00000000
00000000
00000000
FFFF8000
FFFFF800
C0003E00
C0000F00
C0000380
C00001C0
C00000E0
C0000070
C0000030
C0000018
C0000018
C000001C
C000000C
C000000C
C000000C
C0000004
C0000006
C0000006
C0000006
C0000006
C0000006
C0000006
C0000006
C000000E
C000000C
C000000C
C000000C
C000000C
C0000018
C0000018
C0000030
C0000070
C00000E0
C00001C0
C0000380
C0000700
C0003E00
FFFFF800
FFFFC000
ENDCHAR
STARTCHAR 010F
ENCODING 271
SWIDTH 684 0
DWIDTH 38 0
BBX 34 42 3 0
BITMAP
0000006380
00000067C0
00000067C0
00000063C0
00000060C0
0000006040
0000006040
00000060C0
00000060C0
0000006180
0000006300
0000006000
007F806000
01FFE06000
0380786000
0E001C6000
0C000E6000
1800066000
3000036000
300001E000
600001E000
600000E000
600000E000
600000E000
C00000E000
C00000E000
C00000E000
C00000E000
C00000E000
C00000E000
C00000E000
600000E000
600000E000
600001E000
300001E000
3000036000
1800026000
1C00066000
0E001C6000
0780386000
01FFF06000
007FC06000
ENDCHAR
STARTCHAR 0110
ENCODING 272
SWIDTH 720 0
DWIDTH 40 0
BBX 34 39 3 0
BITMAP
0FFFE00000
0FFFFE0000
08000F8000
080001E000
0800007000
0800001800
0800000C00
0800000600
0800000300
0800000300
0800000180
0800000180
0800000180
08000000C0
08000000C0
08000000C0
08000000C0
08000000C0
FFFE0000C0
FFFE0000C0
08000000C0
08000000C0
08000000C0
08000000C0
08000000C0
08000000C0
0800000080
0800000180
0800000180
0800000300
0800000300
0800000600
0800000C00
0800001C00
0800003800
080000E000
080007C000
0FFFFF0000
0FFFF00000
ENDCHAR
STARTCHAR 0111
ENCODING 273
SWIDTH 612 0
DWIDTH 34 0
BBX 31 42 3 0
BITMAP
00000060
00000060
00000060
00000060
00000060
00000060
0003FFFE
00000060
00000060
00000060
00000060
00000060
007F8060
01FFE060
03807860
0E001C60
0C000E60
18000660
30000360
300001E0
600001E0
600000E0
600000E0
600000E0
C00000E0
C00000E0
C00000E0
C00000E0
C00000E0
C00000E0
C00000E0
600000E0
600000E0
600001E0
300001E0
30000360
18000260
1C000660
0E001C60
07803860
01FFF060
007FC060
ENDCHAR
STARTCHAR 0112
ENCODING 274
SWIDTH 558 0
DWIDTH 31 0
BBX 22 46 5 0
BITMAP
1FFFE0
000000
000000
000000
000000
000000
000000
FFFFFC
FFFFFC
C00000
C00000
C00000
C00000
C00000
C00000
C00000
C00000
C00000
C00000
C00000
C00000
C00000
C00000
C00000
C00000
FFFFF0
FFFFF0
C00000
C00000
C00000
C00000
C00000
C00000
C00000
C00000
C00000
C00000
C00000
C00000
C00000
C00000
C00000
C00000
C00000
FFFFFC
FFFFFC
ENDCHAR
STARTCHAR 0113
ENCODING 275
SWIDTH 576 0
DWIDTH 32 0
BBX 26 37 3 0
BITMAP
03FFFC00
03FFFC00
00000000
00000000
00000000
00000000
00000000
003FC000
01FFF000
03C03C00
07000E00
0E000600
1C000300
18000380
30000180
30000180
600000C0
600000C0
600000C0
600000C0
E00000C0
FFFFFFC0
FFFFFFC0
E0000000
60000000
60000000
60000000
60000000
300000C0
30000180
38000180
18000300
0C000700
07000E00
03803C00
01FFF800
007FC000
ENDCHAR
STARTCHAR 0116
ENCODING 278
SWIDTH 558 0
DWIDTH 31 0
BBX 22 49 5 0
BITMAP
003000
007800
007800
003800
000000
000000
000000
000000
000000
000000
FFFFFC
FFFFFC
C00000
C00000
C00000
C00000
C00000
C00000
C00000
C00000
C00000
C00000
C00000
C00000
C00000
C00000
C00000
C00000
FFFFF0
FFFFF0
C00000
C00000
C00000
C00000
C00000
C00000
C00000
C00000
C00000
C00000
C00000
C00000
C00000
C00000
C00000
C00000
C00000
FFFFFC
FFFFFC
ENDCHAR
STARTCHAR 0117
ENCODING 279
SWIDTH 576 0
DWIDTH 32 0
BBX 26 39 3 0
BITMAP
000E0000
000F0000
000F0000
000E0000
00000000
00000000
00000000
00000000
00000000
003FC000
01FFF000
03C03C00
07000E00
0E000600
1C000300
18000380
30000180
30000180
600000C0
600000C0
600000C0
600000C0
E00000C0
FFFFFFC0
FFFFFFC0
E0000000
60000000
60000000
60000000
60000000
300000C0
30000180
38000180
18000300
0C000700
07000E00
03803C00
01FFF800
007FC000
ENDCHAR
STARTCHAR 0118
ENCODING 280
SWIDTH 558 0
DWIDTH 31 0
BBX 25 47 5 -8
BITMAP
FFFFFC00
FFFFFC00
C0000000
C0000000
C0000000
C0000000
C0000000
C0000000
C0000000
C0000000
C0000000
C0000000
C0000000
C0000000
C0000000
C0000000
C0000000
C0000000
FFFFF000
FFFFF000
C0000000
C0000000
C0000000
C0000000
C0000000
C0000000
C0000000
C0000000
C0000000
C0000000
C0000000
C0000000
C0000000
C0000000
C0000000
C0000000
C0000000
FFFFFC00
FFFFFC00
00001C00
00003000
00003000
00006000
00006000
00002000
00003880
00001F80
ENDCHAR
STARTCHAR 0119
ENCODING 281
SWIDTH 576 0
DWIDTH 32 0
BBX 26 38 3 -8
BITMAP
003FC000
01FFF000
03C03C00
07000E00
0E000600
1C000300
18000380
30000180
30000180
600000C0
600000C0
600000C0
600000C0
E00000C0
FFFFFFC0
FFFFFFC0
E0000000
60000000
60000000
60000000
60000000
300000C0
30000180
38000180
18000300
0C000700
07000E00
03803C00
01FFF000
007FE000
00060000
000C0000
00180000
00180000
00180000
00180000
001C0000
000FC000
ENDCHAR
STARTCHAR 011A
ENCODING 282
SWIDTH 558 0
DWIDTH 31 0
BBX 22 50 5 0
BITMAP
0C00E0
0601C0
030380
018700
01CE00
00FC00
007800
000000
000000
000000
000000
FFFFFC
FFFFFC
C00000
C00000
C00000
C00000
C00000
C00000
C00000
C00000
C00000
C00000
C00000
C00000
C00000
C00000
C00000
C00000
FFFFF0
FFFFF0
C00000
C00000
C00000
C00000
C00000
C00000
C00000
C00000
C00000
C00000
C00000
C00000
C00000
C00000
C00000
C00000
C00000
FFFFFC
FFFFFC
ENDCHAR
STARTCHAR 011B
ENCODING 283
SWIDTH 576 0
DWIDTH 32 0
BBX 26 40 3 0
BITMAP
03803800
00C07000
00E06000
0070C000
00398000
001F0000
000E0000
00000000
00000000
00000000
003FC000
01FFF000
03C03C00
07000E00
0E000600
1C000300
18000380
30000180
30000180
600000C0
600000C0
600000C0
600000C0
E00000C0
FFFFFFC0
FFFFFFC0
E0000000
60000000
60000000
60000000
60000000
300000C0
30000180
38000180
18000300
0C000700
07000E00
03803C00
01FFF800
007FC000
ENDCHAR
STARTCHAR 011E
ENCODING 286
SWIDTH 702 0
DWIDTH 39 0
BBX 33 49 3 0
BITMAP
006000C000
0030018000
0038030000
000FBE0000
0007FC0000
0000000000
0000000000
0000000000
0000000000
0003F80000
001FFF0000
007C0FC000
01E000F000
0380003800
0700001C00
0E00000C00
0C00000600
1800000700
1800000300
3000000380
3000000180
3000000000
6000000000
6000000000
6000000000
6000000000
6000000000
C000000000
C000000000
C000000000
C0003FFF80
6000000180
6000000180
6000000180
6000000180
6000000180
6000000180
3000000180
3000000380
3800000380
1800000380
1C00000780
0C00000D80
0600001D80
0380003980
01C0007180
00F001E180
007FFF8180
000FFE0180
ENDCHAR
STARTCHAR 011F
ENCODING 287
SWIDTH 612 0
DWIDTH 34 0
BBX 27 50 3 -11
BITMAP
03000C00
03801800
01C03800
007FE000
001F8000
00000000
00000000
00000000
00000000
007FC000
01FFF060
03C03860
0F000C60
0C000660
18000360
38000160
300001E0
700000E0
600000E0
600000E0
600000E0
60000060
E0000060
E0000060
E0000060
60000060
600000E0
600000E0
600000E0
700000E0
300001E0
38000360
18000360
0C000660
0F000C60
03C03860
01FFF060
007FC060
00000060
00000060
00000060
000000C0
000000C0
000000C0
00000180
00000300
00000700
00001E00
003FF800
003FE000
ENDCHAR
STARTCHAR 0120
ENCODING 288
SWIDTH 702 0
DWIDTH 39 0
BBX 33 49 3 0
BITMAP
0000C00000
0000E00000
0001E00000
0000E00000
0000000000
0000000000
0000000000
0000000000
0000000000
0003F80000
001FFF0000
007C0FC000
01E000F000
0380003800
0700001C00
0E00000C00
0C00000600
1800000700
1800000300
3000000380
3000000180
3000000000
6000000000
6000000000
6000000000
6000000000
6000000000
C000000000
C000000000
C000000000
C0003FFF80
6000000180
6000000180
6000000180
6000000180
6000000180
6000000180
3000000180
3000000380
3800000380
1800000380
1C00000780
0C00000D80
0600001D80
0380003980
01C0007180
00F001E180
007FFF8180
000FFE0180
ENDCHAR
STARTCHAR 0121
ENCODING 289
SWIDTH 612 0
DWIDTH 34 0
BBX 27 50 3 -11
BITMAP
00060000
000F0000
000F0000
00060000
00000000
00000000
00000000
00000000
00000000
007FC000
01FFF060
03C03860
0F000C60
0C000660
18000360
38000160
300001E0
700000E0
600000E0
600000E0
600000E0
60000060
E0000060
E0000060
E0000060
60000060
600000E0
600000E0
600000E0
700000E0
300001E0
38000360
18000360
0C000660
0F000C60
03C03860
01FFF060
007FC060
00000060
00000060
00000060
000000C0
000000C0
000000C0
00000180
00000300
00000700
00001E00
003FF800
003FE000
ENDCHAR
STARTCHAR 0126
ENCODING 294
SWIDTH 684 0
DWIDTH 38 0
BBX 35 39 2 0
BITMAP
1800000600
1800000600
1800000600
1800000600
1800000600
1800000600
1800000600
1800000600
FFFFFFFFE0
FFFFFFFFE0
1800000600
1800000600
1800000600
1800000600
1800000600
1800000600
1800000600
1800000600
1FFFFFFE00
1FFFFFFE00
1800000600
1800000600
1800000600
1800000600
1800000600
1800000600
1800000600
1800000600
1800000600
1800000600
1800000600
1800000600
1800000600
1800000600
1800000600
1800000600
1800000600
1800000600
1800000600
ENDCHAR
STARTCHAR 0127
ENCODING 295
SWIDTH 594 0
DWIDTH 33 0
BBX 30 42 0 0
BITMAP
06000000
06000000
06000000
06000000
06000000
06000000
FFFFC000
06000000
06000000
06000000
06000000
06000000
0601FF00
0607FFC0
061E01E0
06380070
06600030
06C00038
06800018
07800018
0700000C
0700000C
0700000C
0600000C
0600000C
0600000C
0600000C
0600000C
0600000C
0600000C
0600000C
0600000C
0600000C
0600000C
0600000C
0600000C
0600000C
0600000C
0600000C
0600000C
0600000C
0600000C
ENDCHAR
STARTCHAR 0128
ENCODING 296
SWIDTH 216 0
DWIDTH 12 0
BBX 14 50 -1 0
BITMAP
000C
3E0C
670C
C398
C0F8
C000
0000
0000
0000
0000
0000
0300
0300
0300
0300
0300
0300
0300
0300
0300
0300
0300
0300
0300
0300
0300
0300
0300
0300
0300
0300
0300
0300
0300
0300
0300
0300
0300
0300
0300
0300
0300
0300
0300
0300
0300
0300
0300
0300
0300
ENDCHAR
STARTCHAR 0129
ENCODING 297
SWIDTH 216 0
DWIDTH 12 0
BBX 14 40 -1 0
BITMAP
380C
7E0C
670C
C1F8
C0F0
0000
0000
0000
0000
0000
0000
0300
0300
0300
0300
0300
0300
0300
0300
0300
0300
0300
0300
0300
0300
0300
0300
0300
0300
0300
0300
0300
0300
0300
0300
0300
0300
0300
0300
0300
ENDCHAR
STARTCHAR 012A
ENCODING 298
SWIDTH 216 0
DWIDTH 12 0
BBX 16 46 -2 0
BITMAP
FFFF
0000
0000
0000
0000
0000
0000
0180
0180
0180
0180
0180
0180
0180
0180
0180
0180
0180
0180
0180
0180
0180
0180
0180
0180
0180
0180
0180
0180
0180
0180
0180
0180
0180
0180
0180
0180
0180
0180
0180
0180
0180
0180
0180
0180
0180
ENDCHAR
STARTCHAR 012B
ENCODING 299
SWIDTH 216 0
DWIDTH 12 0
BBX 16 37 -2 0
BITMAP
FFFF
FFFF
0000
0000
0000
0000
0000
0000
0180
0180
0180
0180
0180
0180
0180
0180
0180
0180
0180
0180
0180
0180
0180
0180
0180
0180
0180
0180
0180
0180
0180
0180
0180
0180
0180
0180
0180
ENDCHAR
STARTCHAR 012E
ENCODING 302
SWIDTH 216 0
DWIDTH 12 0
BBX 7 47 2 -8
BITMAP
18
18
18
18
18
18
18
18
18
18
18
18
18
18
18
18
18
18
18
18
18
18
18
18
18
18
18
18
18
18
18
18
18
18
18
18
18
18
18
30
60
C0
C0
C0
C0
70
3E
ENDCHAR
STARTCHAR 012F
ENCODING 303
SWIDTH 216 0
DWIDTH 12 0
BBX 7 47 2 -8
BITMAP
18
3C
3C
18
00
00
00
00
00
00
18
18
18
18
18
18
18
18
18
18
18
18
18
18
18
18
18
18
18
18
18
18
18
18
18
18
18
18
18
30
60
C0
C0
C0
C0
72
3E
ENDCHAR
STARTCHAR 0130
ENCODING 304
SWIDTH 216 0
DWIDTH 12 0
BBX 4 49 4 0
BITMAP
60
F0
F0
F0
00
00
00
00
00
00
60
60
60
60
60
60
60
60
60
60
60
60
60
60
60
60
60
60
60
60
60
60
60
60
60
60
60
60
60
60
60
60
60
60
60
60
60
60
60
ENDCHAR
STARTCHAR 0131
ENCODING 305
SWIDTH 216 0
DWIDTH 12 0
BBX 2 29 5 0
BITMAP
C0
C0
C0
C0
C0
C0
C0
C0
C0
C0
C0
C0
C0
C0
C0
C0
C0
C0
C0
C0
C0
C0
C0
C0
C0
C0
C0
C0
C0
ENDCHAR
STARTCHAR 0139
ENCODING 313
SWIDTH 522 0
DWIDTH 29 0
BBX 22 52 5 0
BITMAP
030000
070000
060000
0C0000
180000
180000
300000
200000
600000
000000
000000
000000
000000
C00000
C00000
C00000
C00000
C00000
C00000
C00000
C00000
C00000
C00000
C00000
C00000
C00000
C00000
C00000
C00000
C00000
C00000
C00000
C00000
C00000
C00000
C00000
C00000
C00000
C00000
C00000
C00000
C00000
C00000
C00000
C00000
C00000
C00000
C00000
C00000
C00000
FFFFFC
FFFFFC
ENDCHAR
STARTCHAR 013A
ENCODING 314
SWIDTH 270 0
DWIDTH 15 0
BBX 8 55 5 0
BITMAP
03
07
06
0C
1C
18
30
30
60
40
00
00
00
C0
C0
C0
C0
C0
C0
C0
C0
C0
C0
C0
C0
C0
C0
C0
C0
C0
C0
C0
C0
C0
C0
C0
C0
C0
C0
C0
C0
C0
C0
C0
C0
C0
C0
C0
C0
C0
C0
C0
60
70
3F
ENDCHAR
STARTCHAR 013D
ENCODING 317
SWIDTH 522 0
DWIDTH 29 0
BBX 28 50 -1 0
BITMAP
C00E0000
601C0000
30380000
38700000
1CE00000
0FC00000
07800000
00000000
00000000
00000000
00000000
03000000
03000000
03000000
03000000
03000000
03000000
03000000
03000000
03000000
03000000
03000000
03000000
03000000
03000000
03000000
03000000
03000000
03000000
03000000
03000000
03000000
03000000
03000000
03000000
03000000
03000000
03000000
03000000
03000000
03000000
03000000
03000000
03000000
03000000
03000000
03000000
03000000
03FFFFF0
03FFFFF0
ENDCHAR
STARTCHAR 013E
ENCODING 318
SWIDTH 288 0
DWIDTH 16 0
BBX 10 42 5 0
BITMAP
C380
C7C0
C7C0
C7C0
C0C0
C0C0
C0C0
C0C0
C180
C300
C600
C400
C000
C000
C000
C000
C000
C000
C000
C000
C000
C000
C000
C000
C000
C000
C000
C000
C000
C000
C000
C000
C000
C000
C000
C000
C000
C000
C000
6000
7000
3F00
ENDCHAR
STARTCHAR 0143
ENCODING 323
SWIDTH 720 0
DWIDTH 40 0
BBX 30 52 5 0
BITMAP
00000C00
00001C00
00003800
00003000
00006000
00006000
0000C000
00008000
00018000
00000000
00000000
00000000
00000000
C000000C
E000000C
F000000C
F800000C
D800000C
CC00000C
CE00000C
C600000C
C300000C
C180000C
C1C0000C
C0C0000C
C060000C
C070000C
C038000C
C018000C
C00C000C
C00E000C
C006000C
C003000C
C001800C
C001C00C
C000C00C
C000600C
C000700C
C000380C
C000180C
C0000C0C
C0000E0C
C000060C
C000030C
C000018C
C00001CC
C00000CC
C000006C
C000007C
C000003C
C000001C
C000000C
ENDCHAR
STARTCHAR 0144
ENCODING 324
SWIDTH 612 0
DWIDTH 34 0
BBX 25 42 5 0
BITMAP
00006000
0000E000
0000C000
00018000
00030000
00030000
00060000
00040000
000C0000
00000000
00000000
00000000
007F8000
C1FFE000
C380F800
C6003C00
CC000E00
D8000600
D0000300
E0000300
E0000300
C0000180
C0000180
C0000180
C0000180
C0000180
C0000180
C0000180
C0000180
C0000180
C0000180
C0000180
C0000180
C0000180
C0000180
C0000180
C0000180
C0000180
C0000180
C0000180
C0000180
C0000180
ENDCHAR
STARTCHAR 0147
ENCODING 327
SWIDTH 720 0
DWIDTH 40 0
BBX 30 50 5 0
BITMAP
00C00E00
00601C00
00303800
00387000
001CE000
000FC000
00078000
00000000
00000000
00000000
00000000
C000000C
E000000C
F000000C
F800000C
D800000C
CC00000C
CE00000C
C600000C
C300000C
C180000C
C1C0000C
C0C0000C
C060000C
C070000C
C038000C
C018000C
C00C000C
C00E000C
C006000C
C003000C
C001800C
C001C00C
C000C00C
C000600C
C000700C
C000380C
C000180C
C0000C0C
C0000E0C
C000060C
C000030C
C000018C
C00001CC
C00000CC
C000006C
C000007C
C000003C
C000001C
C000000C
ENDCHAR
STARTCHAR 0148
ENCODING 328
SWIDTH 612 0
DWIDTH 34 0
BBX 25 40 5 0
BITMAP
07007000
0380C000
01C1C000
00C38000
00670000
003E0000
001C0000
00000000
00000000
00000000
007F8000
C1FFE000
C380F800
C6003C00
CC000E00
D8000600
D0000300
E0000300
E0000300
C0000180
C0000180
C0000180
C0000180
C0000180
C0000180
C0000180
C0000180
C0000180
C0000180
C0000180
C0000180
C0000180
C0000180
C0000180
C0000180
C0000180
C0000180
C0000180
C0000180
C0000180
ENDCHAR
STARTCHAR 014C
ENCODING 332
SWIDTH 738 0
DWIDTH 41 0
BBX 35 46 3 0
BITMAP
003FFFC000
0000000000
0000000000
0000000000
0000000000
0000000000
0001F80000
001FFF0000
007C07E000
01E000F000
0380003800
0700001C00
0E00000E00
0C00000700
1800000300
1800000180
3000000180
30000001C0
60000000C0
60000000C0
60000000C0
6000000060
6000000060
4000000060
C000000060
C000000060
C000000060
C000000060
C000000060
6000000060
6000000060
6000000060
60000000C0
60000000C0
30000000C0
3000000180
3800000180
1800000380
1C00000300
0E00000600
0700000E00
0380001C00
01C0007800
00F801E000
003FFFC000
000FFE0000
ENDCHAR
STARTCHAR 014D
ENCODING 333
SWIDTH 594 0
DWIDTH 33 0
BBX 27 37 3 0
BITMAP
03FFFC00
03FFFC00
00000000
00000000
00000000
00000000
00000000
003FC000
01FFF000
03C03C00
07000E00
0E000700
1C000300
18000180
30000180
300000C0
600000C0
600000E0
60000060
60000060
E0000060
C0000060
C0000060
C0000060
60000060
60000060
60000060
600000C0
300000C0
300001C0
38000180
1C000300
0C000700
07000E00
03C03C00
01FFF000
007FC000
ENDCHAR
STARTCHAR 0152
ENCODING 338
SWIDTH 954 0
DWIDTH 53 0
BBX 46 39 3 0
BITMAP
0007FFFFFFFC
003FFFFFFFFC
00F801800000
03C001800000
070001800000
0E0001800000
1C0001800000
180001800000
380001800000
300001800000
600001800000
600001800000
600001800000
C00001800000
C00001800000
C00001800000
C00001800000
C00001800000
C00001FFFFF0
C00001FFFFF0
C00001800000
C00001800000
C00001800000
C00001800000
C00001800000
C00001800000
600001800000
600001800000
600001800000
300001800000
300001800000
180001800000
1C0001800000
0E0001800000
070001800000
03C001800000
00F001800000
007FFFFFFFFC
0007FFFFFFFC
ENDCHAR
STARTCHAR 0153
ENCODING 339
SWIDTH 1026 0
DWIDTH 57 0
BBX 51 30 3 0
BITMAP
003FC0003FE000
01FFF000FFF800
03C07801E03C00
07001C03800E00
0E000E06000300
1C00030C000380
1800039C000180
300001980000C0
300000D80000C0
600000F00000C0
600000F00000E0
60000070000060
60000060000060
E0000060000060
C000007FFFFFE0
C000007FFFFFE0
C0000060000000
60000060000000
60000060000000
600000F0000000
600000F0000000
300000F00000C0
300001980000C0
3800019C0001C0
1800030C000180
0C000606000300
07000E07800600
03803C03C01C00
01FFF000FFF800
007FC0003FE000
ENDCHAR
STARTCHAR 0154
ENCODING 340
SWIDTH 594 0
DWIDTH 33 0
BBX 25 52 5 0
BITMAP
0001C000
00038000
00030000
00060000
00060000
000C0000
00180000
00180000
00300000
00000000
00000000
00000000
00000000
FFFF0000
FFFFE000
C000F800
C0001C00
C0000600
C0000300
C0000300
C0000180
C0000180
C0000180
C0000180
C0000180
C0000180
C0000180
C0000180
C0000300
C0000300
C0000600
C0001C00
C0007800
FFFFF000
FFFF8000
C0180000
C00C0000
C00E0000
C0070000
C0030000
C0018000
C001C000
C000C000
C0006000
C0007000
C0003000
C0001800
C0001C00
C0000E00
C0000600
C0000300
C0000380
ENDCHAR
STARTCHAR 0155
ENCODING 341
SWIDTH 306 0
DWIDTH 17 0
BBX 12 42 5 0
BITMAP
00C0
01C0
0180
0300
0700
0600
0C00
0800
1800
0000
0000
0000
0000
87F0
8FF0
9C00
B000
E000
C000
C000
C000
C000
8000
8000
8000
8000
8000
8000
8000
8000
8000
8000
8000
8000
8000
8000
8000
8000
8000
8000
8000
8000
ENDCHAR
STARTCHAR 0158
ENCODING 344
SWIDTH 594 0
DWIDTH 33 0
BBX 25 50 5 0
BITMAP
1C01C000
0C038000
06070000
030E0000
018C0000
00D80000
00F00000
00000000
00000000
00000000
00000000
FFFF0000
FFFFE000
C000F800
C0001C00
C0000600
C0000300
C0000300
C0000180
C0000180
C0000180
C0000180
C0000180
C0000180
C0000180
C0000180
C0000300
C0000300
C0000600
C0001C00
C0007800
FFFFF000
FFFF8000
C0180000
C00C0000
C00E0000
C0070000
C0030000
C0018000
C001C000
C000C000
C0006000
C0007000
C0003000
C0001800
C0001C00
C0000E00
C0000600
C0000300
C0000380
ENDCHAR
STARTCHAR 0159
ENCODING 345
SWIDTH 306 0
DWIDTH 17 0
BBX 16 40 1 0
BITMAP
E00E
701C
3838
1C70
0CE0
07C0
0380
0000
0000
0000
0000
087F
08FF
09C0
0B00
0E00
0C00
0C00
0C00
0C00
0800
0800
0800
0800
0800
0800
0800
0800
0800
0800
0800
0800
0800
0800
0800
0800
0800
0800
0800
0800
ENDCHAR
STARTCHAR 015A
ENCODING 346
SWIDTH 594 0
DWIDTH 33 0
BBX 27 52 3 0
BITMAP
00003800
00003000
00006000
0000E000
0000C000
00018000
00018000
00030000
00060000
00000000
00000000
00000000
001F0000
01FFE000
03E0F800
0F001C00
1C000600
18000300
38000380
30000180
300001C0
600000C0
600000C0
600000C0
70000000
30000000
30000000
38000000
1C000000
0F000000
07E00000
00FF0000
001FF000
00007C00
00000F00
00000380
000001C0
000000C0
000000C0
C00000E0
C0000060
E0000060
60000060
600000E0
700000C0
300000C0
38000180
1C000380
0E000700
07801E00
03FFF800
00FFE000
ENDCHAR
STARTCHAR 015B
ENCODING 347
SWIDTH 486 0
DWIDTH 27 0
BBX 22 42 3 0
BITMAP
0001C0
000180
000380
000300
000600
000C00
000C00
001800
001000
000000
000000
000000
01FE00
07FF80
1E01C0
3800E0
300070
700030
600018
600018
600018
600000
600000
300000
380000
1F8000
07FE00
007FC0
0001E0
000070
000038
000018
C0001C
C0000C
E0000C
60001C
600018
300038
380070
1E00E0
07FFC0
01FF00
ENDCHAR
STARTCHAR 015E
ENCODING 350
SWIDTH 594 0
DWIDTH 33 0
BBX 27 54 3 -14
BITMAP
001F0000
01FFE000
03E0F800
0F001C00
1C000600
18000300
38000380
30000180
300001C0
600000C0
600000C0
600000C0
70000000
30000000
30000000
38000000
1C000000
0F000000
07E00000
00FF0000
001FF000
00007C00
00000F00
00000380
000001C0
000000C0
000000C0
C00000E0
C0000060
E0000060
60000060
600000E0
700000C0
300000C0
38000180
1C000380
0E000700
07801E00
03FFFC00
00FFE000
00040000
000C0000
000C0000
00180000
001FC000
001FE000
00003000
00001000
00001000
00001000
00003000
00006000
000FE000
001F8000
ENDCHAR
STARTCHAR 015F
ENCODING 351
SWIDTH 486 0
DWIDTH 27 0
BBX 22 44 3 -14
BITMAP
01FE00
07FF80
1E01C0
3800E0
300070
700030
600018
600018
600018
600000
600000
300000
380000
1F8000
07FE00
007FC0
0001E0
000070
000038
000018
C0001C
C0000C
E0000C
60001C
600018
300038
380070
1E00E0
07FFC0
01FF00
003000
003000
003000
006000
007F00
007F80
0000C0
0000C0
000040
0000C0
0000C0
000180
003F00
007E00
ENDCHAR
STARTCHAR 0160
ENCODING 352
SWIDTH 594 0
DWIDTH 33 0
BBX 27 50 3 0
BITMAP
03803800
01C07000
00E06000
0060C000
00318000
001B0000
000E0000
00000000
00000000
00000000
001F0000
01FFE000
03E0F800
0F001C00
1C000600
18000300
38000380
30000180
300001C0
600000C0
600000C0
600000C0
70000000
30000000
30000000
38000000
1C000000
0F000000
07E00000
00FF0000
001FF000
00007C00
00000F00
00000380
000001C0
000000C0
000000C0
C00000E0
C0000060
E0000060
60000060
600000E0
700000C0
300000C0
38000180
1C000380
0E000700
07801E00
03FFF800
00FFE000
ENDCHAR
STARTCHAR 0161
ENCODING 353
SWIDTH 486 0
DWIDTH 27 0
BBX 22 40 3 0
BITMAP
1C00C0
060180
030300
018600
01CC00
00FC00
007800
000000
000000
000000
01FE00
07FF80
1E01C0
3800E0
300070
700030
600018
600018
600018
600000
600000
300000
380000
1F8000
07FE00
007FC0
0001E0
000070
000038
000018
C0001C
C0000C
E0000C
60001C
600018
300038
380070
1E00E0
07FFC0
01FF00
ENDCHAR
STARTCHAR 0162
ENCODING 354
SWIDTH 576 0
DWIDTH 32 0
BBX 27 53 3 -14
BITMAP
FFFFFFE0
FFFFFFE0
000C0000
000C0000
000C0000
000C0000
000C0000
000C0000
000C0000
000C0000
000C0000
000C0000
000C0000
000C0000
000C0000
000C0000
000C0000
000C0000
000C0000
000C0000
000C0000
000C0000
000C0000
000C0000
000C0000
000C0000
000C0000
000C0000
000C0000
000C0000
000C0000
000C0000
000C0000
000C0000
000C0000
000C0000
000C0000
000C0000
000C0000
000C0000
000C0000
00180000
00180000
001FC000
003FE000
00007000
00003000
00003000
00003000
00003000
00006000
001FC000
001F0000
ENDCHAR
STARTCHAR 0163
ENCODING 355
SWIDTH 360 0
DWIDTH 20 0
BBX 17 53 2 -14
BITMAP
030000
030000
030000
030000
030000
030000
030000
030000
030000
030000
FFFE00
FFFE00
030000
030000
030000
030000
030000
030000
030000
030000
030000
030000
030000
030000
030000
030000
030000
030000
030000
030000
030000
030000
030000
030000
030000
030000
030000
01C200
00FE00
006000
006000
004000
00C000
00FE00
01FF00
000180
000180
000180
000180
000180
000300
00FE00
00F800
ENDCHAR
STARTCHAR 0164
ENCODING 356
SWIDTH 576 0
DWIDTH 32 0
BBX 27 50 3 0
BITMAP
03003800
01807000
00C0E000
0061C000
00338000
003B0000
001E0000
00000000
00000000
00000000
00000000
FFFFFFE0
FFFFFFE0
000C0000
000C0000
000C0000
000C0000
000C0000
000C0000
000C0000
000C0000
000C0000
000C0000
000C0000
000C0000
000C0000
000C0000
000C0000
000C0000
000C0000
000C0000
000C0000
000C0000
000C0000
000C0000
000C0000
000C0000
000C0000
000C0000
000C0000
000C0000
000C0000
000C0000
000C0000
000C0000
000C0000
000C0000
000C0000
000C0000
000C0000
ENDCHAR
STARTCHAR 0165
ENCODING 357
SWIDTH 432 0
DWIDTH 24 0
BBX 21 42 2 0
BITMAP
000070
0000F8
0000F8
030078
030018
030008
030008
030018
030018
030030
030060
030000
030000
FFFE00
FFFE00
030000
030000
030000
030000
030000
030000
030000
030000
030000
030000
030000
030000
030000
030000
030000
030000
030000
030000
030000
030000
030000
030000
030000
030000
030000
01C200
00FE00
ENDCHAR
STARTCHAR 0166
ENCODING 358
SWIDTH 576 0
DWIDTH 32 0
BBX 27 39 3 0
BITMAP
FFFFFFE0
FFFFFFE0
000C0000
000C0000
000C0000
000C0000
000C0000
000C0000
000C0000
000C0000
000C0000
000C0000
000C0000
000C0000
000C0000
3FFFFF00
3FFFFF00
000C0000
000C0000
000C0000
000C0000
000C0000
000C0000
000C0000
000C0000
000C0000
000C0000
000C0000
000C0000
000C0000
000C0000
000C0000
000C0000
000C0000
000C0000
000C0000
000C0000
000C0000
000C0000
ENDCHAR
STARTCHAR 0167
ENCODING 359
SWIDTH 360 0
DWIDTH 20 0
BBX 15 39 2 0
BITMAP
0300
0300
0300
0300
0300
0300
0300
0300
0300
0300
FFFE
FFFE
0300
0300
0300
0300
0300
0300
0300
0300
0300
FFFE
FFFE
0300
0300
0300
0300
0300
0300
0300
0300
0300
0300
0300
0300
0300
0380
01C2
00FE
ENDCHAR
STARTCHAR 0168
ENCODING 360
SWIDTH 666 0
DWIDTH 37 0
BBX 30 51 4 -1
BITMAP
00000C00
007E0C00
00670C00
00C39800
00C1F800
00C00000
00000000
00000000
00000000
00000000
00000000
C000000C
C000000C
C000000C
C000000C
C000000C
C000000C
C000000C
C000000C
C000000C
C000000C
C000000C
C000000C
C000000C
C000000C
C000000C
C000000C
C000000C
C000000C
C000000C
C000000C
C000000C
C000000C
C000000C
C000000C
C000000C
C000000C
40000018
60000018
60000018
60000018
30000030
30000030
30000070
18000060
0C0000C0
0E0001C0
07800780
01FCFE00
007FF800
00030000
ENDCHAR
STARTCHAR 0169
ENCODING 361
SWIDTH 612 0
DWIDTH 34 0
BBX 24 41 5 -1
BITMAP
0180C0
07E0C0
0630C0
0C1D80
0C0F00
000000
000000
000000
000000
000000
000000
C00001
C00001
C00001
C00001
C00001
C00001
C00001
C00001
C00001
C00001
C00001
C00001
C00001
C00001
C00001
C00001
C00001
C00003
C00003
C00003
400003
600003
600007
30000D
380019
1C0031
0F00E1
07FFC1
01FF01
001000
ENDCHAR
STARTCHAR 016A
ENCODING 362
SWIDTH 666 0
DWIDTH 37 0
BBX 30 47 4 -1
BITMAP
01FFFE00
00000000
00000000
00000000
00000000
00000000
00000000
C000000C
C000000C
C000000C
C000000C
C000000C
C000000C
C000000C
C000000C
C000000C
C000000C
C000000C
C000000C
C000000C
C000000C
C000000C
C000000C
C000000C
C000000C
C000000C
C000000C
C000000C
C000000C
C000000C
C000000C
C000000C
C000000C
40000018
60000018
60000018
60000018
30000030
30000030
30000070
18000060
0C0000C0
0E0001C0
07800780
01FCFE00
007FF800
00030000
ENDCHAR
STARTCHAR 016B
ENCODING 363
SWIDTH 612 0
DWIDTH 34 0
BBX 24 38 5 -1
BITMAP
1FFFE0
1FFFE0
000000
000000
000000
000000
000000
000000
C00001
C00001
C00001
C00001
C00001
C00001
C00001
C00001
C00001
C00001
C00001
C00001
C00001
C00001
C00001
C00001
C00001
C00003
C00003
C00003
400003
600003
600007
30000D
380019
1C0031
0F00E1
07FFC1
01FF01
001000
ENDCHAR
STARTCHAR 016E
ENCODING 366
SWIDTH 666 0
DWIDTH 37 0
BBX 30 54 4 -1
BITMAP
00078000
000FC000
00186000
00102000
00102000
00102000
00186000
000FC000
00030000
00000000
00000000
00000000
00000000
00000000
C000000C
C000000C
C000000C
C000000C
C000000C
C000000C
C000000C
C000000C
C000000C
C000000C
C000000C
C000000C
C000000C
C000000C
C000000C
C000000C
C000000C
C000000C
C000000C
C000000C
C000000C
C000000C
C000000C
C000000C
C000000C
C000000C
40000018
60000018
60000018
60000018
30000030
30000030
30000070
18000060
0C0000C0
0E0001C0
07800780
01FCFE00
007FF800
00030000
ENDCHAR
STARTCHAR 016F
ENCODING 367
SWIDTH 612 0
DWIDTH 34 0
BBX 24 44 5 -1
BITMAP
007800
00CC00
018600
010200
010200
018200
008600
007C00
000000
000000
000000
000000
000000
000000
C00001
C00001
C00001
C00001
C00001
C00001
C00001
C00001
C00001
C00001
C00001
C00001
C00001
C00001
C00001
C00001
C00001
C00003
C00003
C00003
400003
600003
600007
30000D
380019
1C0031
0F00E1
07FFC1
01FF01
001000
ENDCHAR
STARTCHAR 0172
ENCODING 370
SWIDTH 666 0
DWIDTH 37 0
BBX 30 48 4 -9
BITMAP
C000000C
C000000C
C000000C
C000000C
C000000C
C000000C
C000000C
C000000C
C000000C
C000000C
C000000C
C000000C
C000000C
C000000C
C000000C
C000000C
C000000C
C000000C
C000000C
C000000C
C000000C
C000000C
C000000C
C000000C
C000000C
C000000C
C0000018
60000018
60000018
60000018
30000030
30000030
30000070
18000060
0C0000C0
0E0001C0
07800780
01FCFE00
007FF800
00030000
00060000
000C0000
00080000
00180000
00180000
000C0000
000FE000
0003E000
ENDCHAR
STARTCHAR 0173
ENCODING 371
SWIDTH 612 0
DWIDTH 34 0
BBX 25 37 5 -8
BITMAP
C0000100
C0000100
C0000100
C0000100
C0000100
C0000100
C0000100
C0000100
C0000100
C0000100
C0000100
C0000100
C0000100
C0000100
C0000100
C0000100
C0000100
C0000300
C0000300
C0000300
40000300
60000300
60000700
30000D00
38001900
1C003100
0F00E100
07FFC100
01FF0500
00100E00
00001800
00003000
00003000
00003000
00003000
00001C00
00000F80
ENDCHAR
STARTCHAR 0174
ENCODING 372
SWIDTH 990 0
DWIDTH 55 0
BBX 53 50 1 0
BITMAP
00000070000000
000000D8000000
0000018C000000
00000306000000
00000707000000
00000E03800000
00001C01C00000
00000000000000
00000000000000
00000000000000
00000000000000
C0000070000018
C0000070000018
60000070000030
600000D8000030
600000D8000030
200000D8000020
3000018C000060
3000018C000060
3000018C000060
180003060000C0
180003060000C0
180003020000C0
180006030000C0
0C000603000180
0C000601000180
0C000C01800180
06000C01800300
06000C00800300
06001800C00300
06001800C00300
03001000400600
03003000600600
03003000600600
01802000200C00
01806000300C00
01806000300C00
01804000100C00
00C0C000181800
00C0C000181800
00C08000081800
006180000C3000
006180000C3000
00610000043000
00630000063000
00330000066000
00320000026000
00360000036000
00360000036000
001C000001C000
ENDCHAR
STARTCHAR 0175
ENCODING 373
SWIDTH 810 0
DWIDTH 45 0
BBX 39 40 3 0
BITMAP
00007C0000
0000EE0000
0000C70000
0001830000
0003018000
000600C000
000E006000
0000000000
0000000000
0000000000
0000000000
C000380006
C000380006
C000380006
60007C0006
60006C000C
60006C000C
3000E6000C
3000C60018
3000C60018
3001C30018
1801830030
1801830030
1803818030
0C03018030
0C03018060
0C0700C060
0E0600C060
060600C0C0
060E0060C0
060C0060C0
030C0060C0
031C003180
0318003180
0198003180
01B8001B00
01B0001B00
01B0001B00
00F0000E00
00E0000E00
ENDCHAR
STARTCHAR 0176
ENCODING 374
SWIDTH 576 0
DWIDTH 32 0
BBX 26 50 3 0
BITMAP
001E0000
003F0000
00738000
00E1C000
01C0C000
01806000
03003000
00000000
00000000
00000000
00000000
C00000C0
E00001C0
60000180
70000380
30000300
38000700
18000600
1C000E00
0C000C00
0E001C00
06001800
07003800
03003000
03807000
01806000
01C0E000
00C0C000
00E18000
00618000
00730000
00330000
001E0000
001E0000
000C0000
000C0000
000C0000
000C0000
000C0000
000C0000
000C0000
000C0000
000C0000
000C0000
000C0000
000C0000
000C0000
000C0000
000C0000
000C0000
ENDCHAR
STARTCHAR 0177
ENCODING 375
SWIDTH 522 0
DWIDTH 29 0
BBX 25 50 2 -10
BITMAP
003E0000
00760000
00E30000
00C18000
0180C000
03006000
06007000
00000000
00000000
00000000
00000000
E0000180
60000380
60000300
30000300
30000600
38000600
18000C00
18000C00
0C001C00
0C001800
0E001800
06003000
06003000
03006000
03006000
0180C000
0180C000
0180C000
00C18000
00C18000
00630000
00630000
00660000
00360000
00360000
001C0000
001C0000
00180000
00180000
00300000
00300000
00600000
00600000
00E00000
00C00000
01C00000
03800000
7F000000
7E000000
ENDCHAR
STARTCHAR 0178
ENCODING 376
SWIDTH 576 0
DWIDTH 32 0
BBX 26 49 3 0
BITMAP
00C0C000
01E1E000
01E1E000
01E1C000
00000000
00000000
00000000
00000000
00000000
00000000
C00000C0
E00001C0
60000180
70000380
30000300
38000700
18000600
1C000E00
0C000C00
0E001C00
06001800
07003800
03003000
03807000
01806000
01C0E000
00C0C000
00E18000
00618000
00730000
00330000
001E0000
001E0000
000C0000
000C0000
000C0000
000C0000
000C0000
000C0000
000C0000
000C0000
000C0000
000C0000
000C0000
000C0000
000C0000
000C0000
000C0000
000C0000
ENDCHAR
STARTCHAR 0179
ENCODING 377
SWIDTH 594 0
DWIDTH 33 0
BBX 26 52 3 0
BITMAP
00003800
00003000
00006000
0000E000
0000C000
00018000
00018000
00030000
00020000
00000000
00000000
00000000
00000000
FFFFFFC0
FFFFFFC0
000001C0
00000180
00000380
00000700
00000600
00000E00
00001C00
00001800
00003800
00007000
00006000
0000E000
0001C000
00018000
00038000
00070000
00060000
000C0000
001C0000
00180000
00300000
00700000
00600000
00C00000
01C00000
01800000
03000000
07000000
06000000
0C000000
1C000000
18000000
30000000
70000000
60000000
FFFFFFC0
FFFFFFC0
ENDCHAR
STARTCHAR 017A
ENCODING 378
SWIDTH 486 0
DWIDTH 27 0
BBX 22 42 3 0
BITMAP
0000C0
000180
000380
000300
000600
000600
000C00
000800
001800
000000
000000
000000
000000
7FFFFC
7FFFFC
00001C
000038
000030
000060
0000C0
0001C0
000180
000300
000600
000C00
001C00
001800
003000
006000
00E000
00C000
018000
030000
060000
0E0000
0C0000
180000
300000
700000
600000
FFFFFC
FFFFFC
ENDCHAR
STARTCHAR 017B
ENCODING 379
SWIDTH 594 0
DWIDTH 33 0
BBX 26 49 3 0
BITMAP
00060000
000E0000
000F0000
000E0000
00000000
00000000
00000000
00000000
00000000
00000000
FFFFFFC0
FFFFFFC0
000001C0
00000180
00000380
00000700
00000600
00000E00
00001C00
00001800
00003800
00007000
00006000
0000E000
0001C000
00018000
00038000
00070000
00060000
000C0000
001C0000
00180000
00300000
00700000
00600000
00C00000
01C00000
01800000
03000000
07000000
06000000
0C000000
1C000000
18000000
30000000
70000000
60000000
FFFFFFC0
FFFFFFC0
ENDCHAR
STARTCHAR 017C
ENCODING 380
SWIDTH 486 0
DWIDTH 27 0
BBX 22 39 3 0
BITMAP
003000
007800
007800
003800
000000
000000
000000
000000
000000
000000
7FFFFC
7FFFFC
00001C
000038
000030
000060
0000C0
0001C0
000180
000300
000600
000C00
001C00
001800
003000
006000
00E000
00C000
018000
030000
060000
0E0000
0C0000
180000
300000
700000
600000
FFFFFC
FFFFFC
ENDCHAR
STARTCHAR 017D
ENCODING 381
SWIDTH 594 0
DWIDTH 33 0
BBX 26 50 3 0
BITMAP
03803800
01C03000
00E06000
0070C000
00398000
001B8000
000F0000
00000000
00000000
00000000
00000000
FFFFFFC0
FFFFFFC0
000001C0
00000180
00000380
00000700
00000600
00000E00
00001C00
00001800
00003800
00007000
00006000
0000E000
0001C000
00018000
00038000
00070000
00060000
000C0000
001C0000
00180000
00300000
00700000
00600000
00C00000
01C00000
01800000
03000000
07000000
06000000
0C000000
1C000000
18000000
30000000
70000000
60000000
FFFFFFC0
FFFFFFC0
ENDCHAR
STARTCHAR 017E
ENCODING 382
SWIDTH 486 0
DWIDTH 27 0
BBX 22 40 3 0
BITMAP
0E00E0
070180
038380
018700
00CE00
007C00
003800
000000
000000
000000
000000
7FFFFC
7FFFFC
00001C
000038
000030
000060
0000C0
0001C0
000180
000300
000600
000C00
001C00
001800
003000
006000
00E000
00C000
018000
030000
060000
0E0000
0C0000
180000
300000
700000
600000
FFFFFC
FFFFFC
ENDCHAR
STARTCHAR 01A0
ENCODING 416
SWIDTH 738 0
DWIDTH 41 0
BBX 35 43 3 0
BITMAP
0000000E00
0000000E00
0000000C00
0001F80C00
001FFFFC00
007C07F000
01E000F000
0380003800
0700001C00
0E00000E00
0C00000700
1800000300
1800000180
3000000180
30000001C0
60000000C0
60000000C0
60000000C0
6000000060
6000000060
4000000060
C000000060
C000000060
C000000060
C000000060
C000000060
6000000060
6000000060
6000000060
60000000C0
60000000C0
30000000C0
3000000180
3800000180
1800000380
1C00000300
0E00000600
0700000E00
0380001C00
01C0007800
00F801E000
003FFFC000
000FFE0000
ENDCHAR
STARTCHAR 01A1
ENCODING 417
SWIDTH 594 0
DWIDTH 33 0
BBX 27 34 3 0
BITMAP
000000C0
000000C0
000000C0
000000C0
003FC180
01FFFF80
03C03C00
07000E00
0E000700
1C000300
18000180
30000180
300000C0
600000C0
600000C0
60000060
60000060
E0000060
C0000060
C0000060
C0000060
60000060
60000060
60000060
600000C0
300000C0
300001C0
38000180
1C000300
0C000700
07000E00
03C03C00
01FFF000
007FC000
ENDCHAR
STARTCHAR 01AF
ENCODING 431
SWIDTH 666 0
DWIDTH 37 0
BBX 35 44 4 -1
BITMAP
0000000060
0000000060
0000000060
0000000060
C000000FC0
C000000F80
C000000C00
C000000C00
C000000C00
C000000C00
C000000C00
C000000C00
C000000C00
C000000C00
C000000C00
C000000C00
C000000C00
C000000C00
C000000C00
C000000C00
C000000C00
C000000C00
C000000C00
C000000C00
C000000C00
C000000C00
C000000C00
C000000C00
C000000C00
C000000C00
4000001800
6000001800
6000001800
6000001800
3000003000
3000003000
3000007000
1800006000
0C0000C000
0E0001C000
0780078000
01FCFE0000
007FF80000
0003000000
ENDCHAR
STARTCHAR 01B0
ENCODING 432
SWIDTH 612 0
DWIDTH 34 0
BBX 30 35 5 -1
BITMAP
0000000C
0000000C
0000000C
0000000C
00000018
C00001F8
C00001C0
C0000100
C0000100
C0000100
C0000100
C0000100
C0000100
C0000100
C0000100
C0000100
C0000100
C0000100
C0000100
C0000100
C0000100
C0000100
C0000300
C0000300
C0000300
40000300
60000300
60000700
30000D00
38001900
1C003100
0F00E100
07FFC100
01FF0100
00100000
ENDCHAR
STARTCHAR 02C6
ENCODING 710
SWIDTH 360 0
DWIDTH 20 0
BBX 15 7 3 33
BITMAP
0780
0EC0
1C60
3830
7038
601C
C00E
ENDCHAR
STARTCHAR 02C7
ENCODING 711
SWIDTH 342 0
DWIDTH 19 0
BBX 15 7 2 33
BITMAP
E00E
701C
3838
1C70
0E60
07C0
0380
ENDCHAR
STARTCHAR 02D8
ENCODING 728
SWIDTH 360 0
DWIDTH 20 0
BBX 16 5 2 34
BITMAP
C003
6007
300E
1FFC
07E0
ENDCHAR
STARTCHAR 02D9
ENCODING 729
SWIDTH 126 0
DWIDTH 7 0
BBX 4 4 1 35
BITMAP
70
F0
70
70
ENDCHAR
STARTCHAR 02DA
ENCODING 730
SWIDTH 198 0
DWIDTH 11 0
BBX 8 8 2 35
BITMAP
3C
66
83
81
81
83
C2
7C
ENDCHAR
STARTCHAR 02DB
ENCODING 731
SWIDTH 180 0
DWIDTH 10 0
BBX 7 9 2 -9
BITMAP
10
70
E0
C0
80
80
C0
F2
7E
ENDCHAR
STARTCHAR 02DC
ENCODING 732
SWIDTH 360 0
DWIDTH 20 0
BBX 14 5 3 35
BITMAP
1C0C
7E0C
630C
C1D8
C0F8
ENDCHAR
STARTCHAR 0300
ENCODING 768
SWIDTH 0 0
DWIDTH 0 0
BBX 7 9 -11 35
BITMAP
E0
60
70
30
18
0C
0C
06
02
ENDCHAR
STARTCHAR 0301
ENCODING 769
SWIDTH 0 0
DWIDTH 0 0
BBX 7 9 -8 35
BITMAP
0E
0C
18
38
30
60
60
C0
80
ENDCHAR
STARTCHAR 0302
ENCODING 770
SWIDTH 0 0
DWIDTH 0 0
BBX 15 7 -18 33
BITMAP
03C0
06E0
0C70
1838
381C
700C
E006
ENDCHAR
STARTCHAR 0303
ENCODING 771
SWIDTH 0 0
DWIDTH 0 0
BBX 14 5 -16 35
BITMAP
1C04
3E0C
630C
41D8
C0F8
ENDCHAR
STARTCHAR 0304
ENCODING 772
SWIDTH 0 0
DWIDTH 0 0
BBX 15 2 -17 35
BITMAP
FFFE
FFFE
ENDCHAR
STARTCHAR 0306
ENCODING 774
SWIDTH 0 0
DWIDTH 0 0
BBX 17 5 -19 34
BITMAP
C00180
600300
380E00
1FFC00
07F000
ENDCHAR
STARTCHAR 0307
ENCODING 775
SWIDTH 0 0
DWIDTH 0 0
BBX 4 4 -8 35
BITMAP
E0
F0
F0
E0
ENDCHAR
STARTCHAR 0308
ENCODING 776
SWIDTH 0 0
DWIDTH 0 0
BBX 12 4 -16 35
BITMAP
6060
F0F0
F0F0
6060
ENDCHAR
STARTCHAR 0309
ENCODING 777
SWIDTH 0 0
DWIDTH 0 0
BBX 9 9 -11 35
BITMAP
3E00
7F00
C180
C180
0080
0180
0300
0600
0C00
ENDCHAR
STARTCHAR 030A
ENCODING 778
SWIDTH 0 0
DWIDTH 0 0
BBX 8 8 -11 35
BITMAP
3C
66
C3
81
81
81
42
3C
ENDCHAR
STARTCHAR 030C
ENCODING 780
SWIDTH 0 0
DWIDTH 0 0
BBX 15 7 -18 33
BITMAP
E00E
301C
3818
1C30
0E60
07C0
0380
ENDCHAR
STARTCHAR 031B
ENCODING 795
SWIDTH 0 0
DWIDTH 0 0
BBX 8 7 -10 27
BITMAP
03
03
03
07
06
FE
F0
ENDCHAR
STARTCHAR 0323
ENCODING 803
SWIDTH 0 0
DWIDTH 0 0
BBX 4 4 -5 -11
BITMAP
E0
F0
F0
E0
ENDCHAR
STARTCHAR 0327
ENCODING 807
SWIDTH 0 0
DWIDTH 0 0
BBX 9 14 -11 -14
BITMAP
6000
6000
6000
C000
FE00
FF00
0180
0180
0080
0180
0180
0300
FE00
F800
ENDCHAR
STARTCHAR 0328
ENCODING 808
SWIDTH 0 0
DWIDTH 0 0
BBX 7 9 -9 -9
BITMAP
18
30
60
C0
C0
C0
C0
72
3E
ENDCHAR
STARTCHAR 1E80
ENCODING 7808
SWIDTH 990 0
DWIDTH 55 0
BBX 53 52 1 0
BITMAP
00001C00000000
00000E00000000
00000600000000
00000700000000
00000300000000
00000180000000
00000080000000
000000C0000000
00000060000000
00000000000000
00000000000000
00000000000000
00000000000000
C0000070000018
C0000070000018
60000070000030
600000D8000030
600000D8000030
200000D8000020
3000018C000060
3000018C000060
3000018C000060
180003060000C0
180003060000C0
180003020000C0
180006030000C0
0C000603000180
0C000601000180
0C000C01800180
06000C01800300
06000C00800300
06001800C00300
06001800C00300
03001000400600
03003000600600
03003000600600
01802000200C00
01806000300C00
01806000300C00
01804000100C00
00C0C000181800
00C0C000181800
00C08000081800
006180000C3000
006180000C3000
00610000043000
00630000063000
00330000066000
00320000026000
00360000036000
00360000036000
001C000001C000
ENDCHAR
STARTCHAR 1E81
ENCODING 7809
SWIDTH 810 0
DWIDTH 45 0
BBX 39 42 3 0
BITMAP
0006000000
0007000000
0003000000
0001800000
0001800000
0000C00000
0000600000
0000600000
0000300000
0000000000
0000000000
0000000000
0000000000
C000380006
C000380006
C000380006
60007C0006
60006C000C
60006C000C
3000E6000C
3000C60018
3000C60018
3001C30018
1801830030
1801830030
1803818030
0C03018030
0C03018060
0C0700C060
0E0600C060
060600C0C0
060E0060C0
060C0060C0
030C0060C0
031C003180
0318003180
0198003180
01B8001B00
01B0001B00
01B0001B00
00F0000E00
00E0000E00
ENDCHAR
STARTCHAR 1E82
ENCODING 7810
SWIDTH 990 0
DWIDTH 55 0
BBX 53 52 1 0
BITMAP
00000001C00000
00000001800000
00000003000000
00000007000000
00000006000000
0000000C000000
0000000C000000
00000018000000
00000030000000
00000000000000
00000000000000
00000000000000
00000000000000
C0000070000018
C0000070000018
60000070000030
600000D8000030
600000D8000030
200000D8000020
3000018C000060
3000018C000060
3000018C000060
180003060000C0
180003060000C0
180003020000C0
180006030000C0
0C000603000180
0C000601000180
0C000C01800180
06000C01800300
06000C00800300
06001800C00300
06001800C00300
03001000400600
03003000600600
03003000600600
01802000200C00
01806000300C00
01806000300C00
01804000100C00
00C0C000181800
00C0C000181800
00C08000081800
006180000C3000
006180000C3000
00610000043000
00630000063000
00330000066000
00320000026000
00360000036000
00360000036000
001C000001C000
ENDCHAR
STARTCHAR 1E83
ENCODING 7811
SWIDTH 810 0
DWIDTH 45 0
BBX 39 42 3 0
BITMAP
000000E000
000001C000
0000018000
0000030000
0000030000
0000060000
00000C0000
00000C0000
0000180000
0000000000
0000000000
0000000000
0000000000
C000380006
C000380006
C000380006
60007C0006
60006C000C
60006C000C
3000E6000C
3000C60018
3000C60018
3001C30018
1801830030
1801830030
1803818030
0C03018030
0C03018060
0C0700C060
0E0600C060
060600C0C0
060E0060C0
060C0060C0
030C0060C0
031C003180
0318003180
0198003180
01B8001B00
01B0001B00
01B0001B00
00F0000E00
00E0000E00
ENDCHAR
STARTCHAR 1E84
ENCODING 7812
SWIDTH 990 0
DWIDTH 55 0
BBX 53 49 1 0
BITMAP
00000206000000
0000070F000000
0000070F000000
00000707000000
00000000000000
00000000000000
00000000000000
00000000000000
00000000000000
00000000000000
C0000070000018
C0000070000018
60000070000030
600000D8000030
600000D8000030
200000D8000020
3000018C000060
3000018C000060
3000018C000060
180003060000C0
180003060000C0
180003020000C0
180006030000C0
0C000603000180
0C000601000180
0C000C01800180
06000C01800300
06000C00800300
06001800C00300
06001800C00300
03001000400600
03003000600600
03003000600600
01802000200C00
01806000300C00
01806000300C00
01804000100C00
00C0C000181800
00C0C000181800
00C08000081800
006180000C3000
006180000C3000
00610000043000
00630000063000
00330000066000
00320000026000
00360000036000
00360000036000
001C000001C000
ENDCHAR
STARTCHAR 1E85
ENCODING 7813
SWIDTH 810 0
DWIDTH 45 0
BBX 39 39 3 0
BITMAP
0003838000
0003878000
0003878000
0003838000
0000000000
0000000000
0000000000
0000000000
0000000000
0000000000
C000380006
C000380006
C000380006
60007C0006
60006C000C
60006C000C
3000E6000C
3000C60018
3000C60018
3001C30018
1801830030
1801830030
1803818030
0C03018030
0C03018060
0C0700C060
0E0600C060
060600C0C0
060E0060C0
060C0060C0
030C0060C0
031C003180
0318003180
0198003180
01B8001B00
01B0001B00
01B0001B00
00F0000E00
00E0000E00
ENDCHAR
STARTCHAR 1EA0
ENCODING 7840
SWIDTH 684 0
DWIDTH 38 0
BBX 32 50 3 -11
BITMAP
00018000
00038000
0003C000
0003C000
00066000
00066000
000C6000
000C3000
000C3000
00181800
00181800
00301800
00300C00
00300C00
00600600
00600600
00600600
00C00300
00C00300
01800180
01800180
01800180
030000C0
030000C0
07FFFFE0
07FFFFE0
06000060
0C000030
0C000030
18000018
18000018
18000018
3000000C
3000000C
20000006
60000006
60000006
C0000003
C0000003
00000000
00000000
00000000
00000000
00000000
00000000
00000000
00018000
0003C000
0003C000
0003C000
ENDCHAR
STARTCHAR 1EA1
ENCODING 7841
SWIDTH 612 0
DWIDTH 34 0
BBX 27 41 3 -11
BITMAP
007F8000
01FFE060
03807860
0E001C60
0C000E60
18000660
30000360
300001E0
600001E0
600000E0
600000E0
600000E0
C00000E0
C00000E0
C00000E0
C00000E0
C00000E0
C00000E0
C00000E0
600000E0
600000E0
600001E0
300001E0
30000360
18000260
1C000660
0E001C60
07803860
01FFF060
007FC060
00000000
00000000
00000000
00000000
00000000
00000000
00000000
00070000
000F0000
000F0000
00070000
ENDCHAR
STARTCHAR 1EA2
ENCODING 7842
SWIDTH 684 0
DWIDTH 38 0
BBX 32 52 3 0
BITMAP
0003C000
0007F000
000C3000
00181800
00001800
00001800
00003000
00006000
0000C000
00000000
00000000
00000000
00000000
00018000
00038000
0003C000
0003C000
00066000
00066000
000C6000
000C3000
000C3000
00181800
00181800
00301800
00300C00
00300C00
00600600
00600600
00600600
00C00300
00C00300
01800180
01800180
01800180
030000C0
030000C0
07FFFFE0
07FFFFE0
06000060
0C000030
0C000030
18000018
18000018
18000018
3000000C
3000000C
20000006
60000006
60000006
C0000003
C0000003
ENDCHAR
STARTCHAR 1EA3
ENCODING 7843
SWIDTH 612 0
DWIDTH 34 0
BBX 27 42 3 0
BITMAP
000F0000
003FC000
0030C000
00606000
00006000
00004000
0000C000
00038000
00070000
00000000
00000000
00000000
007F8000
01FFE060
03807860
0E001C60
0C000E60
18000660
30000360
300001E0
600001E0
600000E0
600000E0
600000E0
C00000E0
C00000E0
C00000E0
C00000E0
C00000E0
C00000E0
C00000E0
600000E0
600000E0
600001E0
300001E0
30000360
18000260
1C000660
0E001C60
07803860
01FFF060
007FC060
ENDCHAR
STARTCHAR 1EA4
ENCODING 7844
SWIDTH 684 0
DWIDTH 38 0
BBX 32 59 3 0
BITMAP
0000001C
00000018
00000038
00000030
00000060
000000C0
000000C0
00000180
00000100
0003C300
0007E000
000E7000
001C3800
00381800
00300C00
00600600
00800000
00000000
00000000
00000000
00018000
00038000
0003C000
0003C000
00066000
00066000
000C6000
000C3000
000C3000
00181800
00181800
00301800
00300C00
00300C00
00600600
00600600
00600600
00C00300
00C00300
01800180
01800180
01800180
030000C0
030000C0
07FFFFE0
07FFFFE0
06000060
0C000030
0C000030
18000018
18000018
18000018
3000000C
3000000C
20000006
60000006
60000006
C0000003
C0000003
ENDCHAR
STARTCHAR 1EA5
ENCODING 7845
SWIDTH 612 0
DWIDTH 34 0
BBX 28 49 3 0
BITMAP
00000070
00000060
000000C0
000001C0
00000180
00000300
00000300
00000600
00000C00
000F0000
001B8000
0039C000
0070E000
00E07000
01C03800
03801800
00000000
00000000
00000000
007F8000
01FFE060
03807860
0E001C60
0C000E60
18000660
30000360
300001E0
600001E0
600000E0
600000E0
600000E0
C00000E0
C00000E0
C00000E0
C00000E0
C00000E0
C00000E0
C00000E0
600000E0
600000E0
600001E0
300001E0
30000360
18000260
1C000660
0E001C60
07803860
01FFF060
007FC060
ENDCHAR
STARTCHAR 1EA6
ENCODING 7846
SWIDTH 684 0
DWIDTH 38 0
BBX 32 59 3 0
BITMAP
0001C000
0000E000
00006000
00007000
00003000
00001800
00000800
00000C00
00000600
0003C200
0007E000
000E7000
001C3800
00381800
00300C00
00600600
00800000
00000000
00000000
00000000
00018000
00038000
0003C000
0003C000
00066000
00066000
000C6000
000C3000
000C3000
00181800
00181800
00301800
00300C00
00300C00
00600600
00600600
00600600
00C00300
00C00300
01800180
01800180
01800180
030000C0
030000C0
07FFFFE0
07FFFFE0
06000060
0C000030
0C000030
18000018
18000018
18000018
3000000C
3000000C
20000006
60000006
60000006
C0000003
C0000003
ENDCHAR
STARTCHAR 1EA7
ENCODING 7847
SWIDTH 612 0
DWIDTH 34 0
BBX 27 49 3 0
BITMAP
00030000
00038000
00018000
0000C000
0000C000
00006000
00003000
00003000
00001800
000F0000
001B8000
0039C000
0070E000
00E07000
01C03800
03801C00
00000000
00000000
00000000
007F8000
01FFE060
03807860
0E001C60
0C000E60
18000660
30000360
300001E0
600001E0
600000E0
600000E0
600000E0
C00000E0
C00000E0
C00000E0
C00000E0
C00000E0
C00000E0
C00000E0
600000E0
600000E0
600001E0
300001E0
30000360
18000260
1C000660
0E001C60
07803860
01FFF060
007FC060
ENDCHAR
STARTCHAR 1EA8
ENCODING 7848
SWIDTH 684 0
DWIDTH 38 0
BBX 32 59 3 0
BITMAP
00000300
00001FC0
000018E0
00003060
00000020
00000060
00000060
000000C0
00000380
0003C300
0007E000
000E7000
001C3800
00381800
00300C00
00600600
00800000
00000000
00000000
00000000
00018000
00038000
0003C000
0003C000
00066000
00066000
000C6000
000C3000
000C3000
00181800
00181800
00301800
00300C00
00300C00
00600600
00600600
00600600
00C00300
00C00300
01800180
01800180
01800180
030000C0
030000C0
07FFFFE0
07FFFFE0
06000060
0C000030
0C000030
18000018
18000018
18000018
3000000C
3000000C
20000006
60000006
60000006
C0000003
C0000003
ENDCHAR
STARTCHAR 1EA9
ENCODING 7849
SWIDTH 612 0
DWIDTH 34 0
BBX 27 49 3 0
BITMAP
00001E00
00007F00
0000E180
0000C180
00000080
00000180
00000380
00000600
00000C00
000F0000
001B8000
0039C000
0070E000
00E07000
01C03800
03801C00
00000000
00000000
00000000
007F8000
01FFE060
03807860
0E001C60
0C000E60
18000660
30000360
300001E0
600001E0
600000E0
600000E0
600000E0
C00000E0
C00000E0
C00000E0
C00000E0
C00000E0
C00000E0
C00000E0
600000E0
600000E0
600001E0
300001E0
30000360
18000260
1C000660
0E001C60
07803860
01FFF060
007FC060
ENDCHAR
STARTCHAR 1EAA
ENCODING 7850
SWIDTH 684 0
DWIDTH 38 0
BBX 32 57 3 0
BITMAP
001E0600
003F0600
00318600
0060FC00
00607800
00000000
00000000
0003C000
0007E000
000E7000
001C3800
00381800
00300C00
00600600
00800000
00000000
00000000
00000000
00018000
00038000
0003C000
0003C000
00066000
00066000
000C6000
000C3000
000C3000
00181800
00181800
00301800
00300C00
00300C00
00600600
00600600
00600600
00C00300
00C00300
01800180
01800180
01800180
030000C0
030000C0
07FFFFE0
07FFFFE0
06000060
0C000030
0C000030
18000018
18000018
18000018
3000000C
3000000C
20000006
60000006
60000006
C0000003
C0000003
ENDCHAR
STARTCHAR 1EAB
ENCODING 7851
SWIDTH 612 0
DWIDTH 34 0
BBX 27 47 3 0
BITMAP
00781800
00EE1800
00871800
0183F000
0180C000
00000000
00000000
000F0000
001B8000
0039C000
0070E000
00E07000
01C03800
03801800
00000000
00000000
00000000
007F8000
01FFE060
03807860
0E001C60
0C000E60
18000660
30000360
300001E0
600001E0
600000E0
600000E0
600000E0
C00000E0
C00000E0
C00000E0
C00000E0
C00000E0
C00000E0
C00000E0
600000E0
600000E0
600001E0
300001E0
30000360
18000260
1C000660
0E001C60
07803860
01FFF060
007FC060
ENDCHAR
STARTCHAR 1EAC
ENCODING 7852
SWIDTH 684 0
DWIDTH 38 0
BBX 32 61 3 -11
BITMAP
0003C000
0007E000
000E7000
001C3800
00381800
00300C00
00600600
00800000
00000000
00000000
00000000
00018000
00038000
0003C000
0003C000
00066000
00066000
000C6000
000C3000
000C3000
00181800
00181800
00301800
00300C00
00300C00
00600600
00600600
00600600
00C00300
00C00300
01800180
01800180
01800180
030000C0
030000C0
07FFFFE0
07FFFFE0
06000060
0C000030
0C000030
18000018
18000018
18000018
3000000C
3000000C
20000006
60000006
60000006
C0000003
C0000003
00000000
00000000
00000000
00000000
00000000
00000000
00000000
00018000
0003C000
0003C000
0003C000
ENDCHAR
STARTCHAR 1EAD
ENCODING 7853
SWIDTH 612 0
DWIDTH 34 0
BBX 27 51 3 -11
BITMAP
000F0000
001B8000
0039C000
0070E000
00E07000
01C03800
03801C00
00000000
00000000
00000000
007F8000
01FFE060
03807860
0E001C60
0C000E60
18000660
30000360
300001E0
600001E0
600000E0
600000E0
600000E0
C00000E0
C00000E0
C00000E0
C00000E0
C00000E0
C00000E0
C00000E0
600000E0
600000E0
600001E0
300001E0
30000360
18000260
1C000660
0E001C60
07803860
01FFF060
007FC060
00000000
00000000
00000000
00000000
00000000
00000000
00000000
00070000
000F0000
000F0000
00070000
ENDCHAR
STARTCHAR 1EAE
ENCODING 7854
SWIDTH 684 0
DWIDTH 38 0
BBX 32 58 3 0
BITMAP
00000E00
00000C00
00001800
00003800
00003000
00006000
00006000
0000C000
00008000
00C00300
00C00700
00700E00
003EFC00
000FF000
00000000
00000000
00000000
00000000
00000000
00018000
00038000
0003C000
0003C000
00066000
00066000
000C6000
000C3000
000C3000
00181800
00181800
00301800
00300C00
00300C00
00600600
00600600
00600600
00C00300
00C00300
01800180
01800180
01800180
030000C0
030000C0
07FFFFE0
07FFFFE0
06000060
0C000030
0C000030
18000018
18000018
18000018
3000000C
3000000C
20000006
60000006
60000006
C0000003
C0000003
ENDCHAR
STARTCHAR 1EAF
ENCODING 7855
SWIDTH 612 0
DWIDTH 34 0
BBX 27 49 3 0
BITMAP
00001800
00003800
00007000
00006000
0000C000
0000C000
00018000
00010000
00030000
00060000
03000C00
03801800
01C03800
007FE000
001F8000
00000000
00000000
00000000
00000000
007F8000
01FFE060
03807860
0E001C60
0C000E60
18000660
30000360
300001E0
600001E0
600000E0
600000E0
600000E0
C00000E0
C00000E0
C00000E0
C00000E0
C00000E0
C00000E0
C00000E0
600000E0
600000E0
600001E0
300001E0
30000360
18000260
1C000660
0E001C60
07803860
01FFF060
007FC060
ENDCHAR
STARTCHAR 1EB0
ENCODING 7856
SWIDTH 684 0
DWIDTH 38 0
BBX 32 58 3 0
BITMAP
00700000
00300000
00180000
00180000
000C0000
00060000
00060000
00030000
00010000
00C00300
00C00700
00700E00
003EFC00
000FF000
00000000
00000000
00000000
00000000
00000000
00018000
00038000
0003C000
0003C000
00066000
00066000
000C6000
000C3000
000C3000
00181800
00181800
00301800
00300C00
00300C00
00600600
00600600
00600600
00C00300
00C00300
01800180
01800180
01800180
030000C0
030000C0
07FFFFE0
07FFFFE0
06000060
0C000030
0C000030
18000018
18000018
18000018
3000000C
3000000C
20000006
60000006
60000006
C0000003
C0000003
ENDCHAR
STARTCHAR 1EB1
ENCODING 7857
SWIDTH 612 0
DWIDTH 34 0
BBX 27 49 3 0
BITMAP
01800000
01C00000
00C00000
00600000
00700000
00300000
00180000
00080000
000C0000
00060000
03000C00
03801800
01C03800
007FE000
001F8000
00000000
00000000
00000000
00000000
007F8000
01FFE060
03807860
0E001C60
0C000E60
18000660
30000360
300001E0
600001E0
600000E0
600000E0
600000E0
C00000E0
C00000E0
C00000E0
C00000E0
C00000E0
C00000E0
C00000E0
600000E0
600000E0
600001E0
300001E0
30000360
18000260
1C000660
0E001C60
07803860
01FFF060
007FC060
ENDCHAR
STARTCHAR 1EB2
ENCODING 7858
SWIDTH 684 0
DWIDTH 38 0
BBX 32 58 3 0
BITMAP
0007E000
000E7000
000C1800
00001800
00001800
00003000
00006000
0000C000
00018000
00C00300
00C00700
00700E00
003EFC00
000FF000
00000000
00000000
00000000
00000000
00000000
00018000
00038000
0003C000
0003C000
00066000
00066000
000C6000
000C3000
000C3000
00181800
00181800
00301800
00300C00
00300C00
00600600
00600600
00600600
00C00300
00C00300
01800180
01800180
01800180
030000C0
030000C0
07FFFFE0
07FFFFE0
06000060
0C000030
0C000030
18000018
18000018
18000018
3000000C
3000000C
20000006
60000006
60000006
C0000003
C0000003
ENDCHAR
STARTCHAR 1EB3
ENCODING 7859
SWIDTH 612 0
DWIDTH 34 0
BBX 27 49 3 0
BITMAP
00020000
001F8000
0030C000
00606000
00006000
00006000
0000C000
00018000
00030000
00060000
03000C00
03801800
01C03800
007FE000
001F8000
00000000
00000000
00000000
00000000
007F8000
01FFE060
03807860
0E001C60
0C000E60
18000660
30000360
300001E0
600001E0
600000E0
600000E0
600000E0
C00000E0
C00000E0
C00000E0
C00000E0
C00000E0
C00000E0
C00000E0
600000E0
600000E0
600001E0
300001E0
30000360
18000260
1C000660
0E001C60
07803860
01FFF060
007FC060
ENDCHAR
STARTCHAR 1EB4
ENCODING 7860
SWIDTH 684 0
DWIDTH 38 0
BBX 32 56 3 0
BITMAP
001E0600
003F0600
00618C00
0060FC00
00607800
00000000
00000000
01C00300
00C00700
00700E00
003EFC00
000FF000
00000000
00000000
00000000
00000000
00000000
00018000
00038000
0003C000
0003C000
00066000
00066000
000C6000
000C3000
000C3000
00181800
00181800
00301800
00300C00
00300C00
00600600
00600600
00600600
00C00300
00C00300
01800180
01800180
01800180
030000C0
030000C0
07FFFFE0
07FFFFE0
06000060
0C000030
0C000030
18000018
18000018
18000018
3000000C
3000000C
20000006
60000006
60000006
C0000003
C0000003
ENDCHAR
STARTCHAR 1EB5
ENCODING 7861
SWIDTH 612 0
DWIDTH 34 0
BBX 27 46 3 0
BITMAP
00781800
00CC1800
01873000
0183F000
0180C000
00000000
00000000
03000C00
03801800
01C03800
007FE000
001F8000
00000000
00000000
00000000
00000000
007F8000
01FFE060
03807860
0E001C60
0C000E60
18000660
30000360
300001E0
600001E0
600000E0
600000E0
600000E0
C00000E0
C00000E0
C00000E0
C00000E0
C00000E0
C00000E0
C00000E0
600000E0
600000E0
600001E0
300001E0
30000360
18000260
1C000660
0E001C60
07803860
01FFF060
007FC060
ENDCHAR
STARTCHAR 1EB6
ENCODING 7862
SWIDTH 684 0
DWIDTH 38 0
BBX 32 60 3 -11
BITMAP
00C00300
00C00700
00700E00
003EFC00
000FF000
00000000
00000000
00000000
00000000
00000000
00018000
00038000
0003C000
0003C000
00066000
00066000
000C6000
000C3000
000C3000
00181800
00181800
00301800
00300C00
00300C00
00600600
00600600
00600600
00C00300
00C00300
01800180
01800180
01800180
030000C0
030000C0
07FFFFE0
07FFFFE0
06000060
0C000030
0C000030
18000018
18000018
18000018
3000000C
3000000C
20000006
60000006
60000006
C0000003
C0000003
00000000
00000000
00000000
00000000
00000000
00000000
00000000
00018000
0003C000
0003C000
0003C000
ENDCHAR
STARTCHAR 1EB7
ENCODING 7863
SWIDTH 612 0
DWIDTH 34 0
BBX 27 50 3 -11
BITMAP
03000C00
03801800
01C03800
007FE000
001F8000
00000000
00000000
00000000
00000000
007F8000
01FFE060
03807860
0E001C60
0C000E60
18000660
30000360
300001E0
600001E0
600000E0
600000E0
600000E0
C00000E0
C00000E0
C00000E0
C00000E0
C00000E0
C00000E0
C00000E0
600000E0
600000E0
600001E0
300001E0
30000360
18000260
1C000660
0E001C60
07803860
01FFF060
007FC060
00000000
00000000
00000000
00000000
00000000
00000000
00000000
00070000
000F0000
000F0000
00070000
ENDCHAR
STARTCHAR 1EB8
ENCODING 7864
SWIDTH 558 0
DWIDTH 31 0
BBX 22 50 5 -11
BITMAP
FFFFFC
FFFFFC
C00000
C00000
C00000
C00000
C00000
C00000
C00000
C00000
C00000
C00000
C00000
C00000
C00000
C00000
C00000
C00000
FFFFF0
FFFFF0
C00000
C00000
C00000
C00000
C00000
C00000
C00000
C00000
C00000
C00000
C00000
C00000
C00000
C00000
C00000
C00000
C00000
FFFFFC
FFFFFC
000000
000000
000000
000000
000000
000000
000000
003000
007800
007800
003800
ENDCHAR
STARTCHAR 1EB9
ENCODING 7865
SWIDTH 576 0
DWIDTH 32 0
BBX 26 41 3 -11
BITMAP
003FC000
01FFF000
03C03C00
07000E00
0E000600
1C000300
18000380
30000180
30000180
600000C0
600000C0
600000C0
600000C0
E00000C0
FFFFFFC0
FFFFFFC0
E0000000
60000000
60000000
60000000
60000000
300000C0
30000180
38000180
18000300
0C000700
07000E00
03803C00
01FFF800
007FC000
00000000
00000000
00000000
00000000
00000000
00000000
00000000
000E0000
000F0000
000F0000
000E0000
ENDCHAR
STARTCHAR 1EBA
ENCODING 7866
SWIDTH 558 0
DWIDTH 31 0
BBX 22 52 5 0
BITMAP
003800
00FE00
018700
018300
000300
000300
000600
000C00
001800
000000
000000
000000
000000
FFFFFC
FFFFFC
C00000
C00000
C00000
C00000
C00000
C00000
C00000
C00000
C00000
C00000
C00000
C00000
C00000
C00000
C00000
C00000
FFFFF0
FFFFF0
C00000
C00000
C00000
C00000
C00000
C00000
C00000
C00000
C00000
C00000
C00000
C00000
C00000
C00000
C00000
C00000
C00000
FFFFFC
FFFFFC
ENDCHAR
STARTCHAR 1EBB
ENCODING 7867
SWIDTH 576 0
DWIDTH 32 0
BBX 26 42 3 0
BITMAP
001F0000
003FC000
0030C000
00606000
00006000
0000C000
0001C000
00030000
00060000
00000000
00000000
00000000
003FC000
01FFF000
03C03C00
07000E00
0E000600
1C000300
18000380
30000180
30000180
600000C0
600000C0
600000C0
600000C0
E00000C0
FFFFFFC0
FFFFFFC0
E0000000
60000000
60000000
60000000
60000000
300000C0
30000180
38000180
18000300
0C000700
07000E00
03803C00
01FFF800
007FC000
ENDCHAR
STARTCHAR 1EBC
ENCODING 7868
SWIDTH 558 0
DWIDTH 31 0
BBX 22 50 5 0
BITMAP
0000C0
03E0C0
0670C0
041980
0C0F80
0C0200
000000
000000
000000
000000
000000
FFFFFC
FFFFFC
C00000
C00000
C00000
C00000
C00000
C00000
C00000
C00000
C00000
C00000
C00000
C00000
C00000
C00000
C00000
C00000
FFFFF0
FFFFF0
C00000
C00000
C00000
C00000
C00000
C00000
C00000
C00000
C00000
C00000
C00000
C00000
C00000
C00000
C00000
C00000
C00000
FFFFFC
FFFFFC
ENDCHAR
STARTCHAR 1EBD
ENCODING 7869
SWIDTH 576 0
DWIDTH 32 0
BBX 26 40 3 0
BITMAP
00301800
00FC1800
018E3000
01877000
0181E000
00000000
00000000
00000000
00000000
00000000
003FC000
01FFF000
03C03C00
07000E00
0E000600
1C000300
18000380
30000180
30000180
600000C0
600000C0
600000C0
600000C0
E00000C0
FFFFFFC0
FFFFFFC0
E0000000
60000000
60000000
60000000
60000000
300000C0
30000180
38000180
18000300
0C000700
07000E00
03803C00
01FFF800
007FC000
ENDCHAR
STARTCHAR 1EBE
ENCODING 7870
SWIDTH 558 0
DWIDTH 31 0
BBX 25 59 5 0
BITMAP
00000180
00000300
00000700
00000600
00000C00
00000C00
00001800
00003000
00003000
00786000
00FC0000
00CE0000
01870000
03038000
0601C000
0C00E000
00000000
00000000
00000000
00000000
FFFFFC00
FFFFFC00
C0000000
C0000000
C0000000
C0000000
C0000000
C0000000
C0000000
C0000000
C0000000
C0000000
C0000000
C0000000
C0000000
C0000000
C0000000
C0000000
FFFFF000
FFFFF000
C0000000
C0000000
C0000000
C0000000
C0000000
C0000000
C0000000
C0000000
C0000000
C0000000
C0000000
C0000000
C0000000
C0000000
C0000000
C0000000
C0000000
FFFFFC00
FFFFFC00
ENDCHAR
STARTCHAR 1EBF
ENCODING 7871
SWIDTH 576 0
DWIDTH 32 0
BBX 28 49 3 0
BITMAP
00000070
000000E0
000000C0
00000180
00000180
00000300
00000600
00000600
00000C00
000F0000
001B8000
0031C000
0060E000
00E07000
01C03000
03801800
00000000
00000000
00000000
003FC000
01FFF000
03C03C00
07000E00
0E000600
1C000300
18000380
30000180
30000180
600000C0
600000C0
600000C0
600000C0
E00000C0
FFFFFFC0
FFFFFFC0
E0000000
60000000
60000000
60000000
60000000
300000C0
30000180
38000180
18000300
0C000700
07000E00
03803C00
01FFF800
007FC000
ENDCHAR
STARTCHAR 1EC0
ENCODING 7872
SWIDTH 558 0
DWIDTH 31 0
BBX 22 59 5 0
BITMAP
001800
001C00
000C00
000600
000700
000300
000180
000180
0000C0
007840
00FC00
00CE00
018700
030380
0601C0
0C00E0
000000
000000
000000
000000
FFFFFC
FFFFFC
C00000
C00000
C00000
C00000
C00000
C00000
C00000
C00000
C00000
C00000
C00000
C00000
C00000
C00000
C00000
C00000
FFFFF0
FFFFF0
C00000
C00000
C00000
C00000
C00000
C00000
C00000
C00000
C00000
C00000
C00000
C00000
C00000
C00000
C00000
C00000
C00000
FFFFFC
FFFFFC
ENDCHAR
STARTCHAR 1EC1
ENCODING 7873
SWIDTH 576 0
DWIDTH 32 0
BBX 26 49 3 0
BITMAP
00070000
00038000
00018000
0001C000
0000C000
00006000
00002000
00003000
00001800
000F0000
001B8000
0031C000
0060E000
00E07000
01C03000
03801800
00000000
00000000
00000000
003FC000
01FFF000
03C03C00
07000E00
0E000600
1C000300
18000380
30000180
30000180
600000C0
600000C0
600000C0
600000C0
E00000C0
FFFFFFC0
FFFFFFC0
E0000000
60000000
60000000
60000000
60000000
300000C0
30000180
38000180
18000300
0C000700
07000E00
03803C00
01FFF800
007FC000
ENDCHAR
STARTCHAR 1EC2
ENCODING 7874
SWIDTH 558 0
DWIDTH 31 0
BBX 23 58 5 1
BITMAP
0001F8
00030C
000606
000006
000006
00000C
000018
000030
007860
00FC00
00CE00
018700
030380
0601C0
0C00E0
000000
000000
000000
000000
FFFFFC
FFFFFC
C00000
C00000
C00000
C00000
C00000
C00000
C00000
C00000
C00000
C00000
C00000
C00000
C00000
C00000
C00000
C00000
FFFFF0
FFFFF0
C00000
C00000
C00000
C00000
C00000
C00000
C00000
C00000
C00000
C00000
C00000
C00000
C00000
C00000
C00000
C00000
C00000
FFFFFC
FFFFFC
ENDCHAR
STARTCHAR 1EC3
ENCODING 7875
SWIDTH 576 0
DWIDTH 32 0
BBX 26 49 3 0
BITMAP
00001E00
00007F00
0000C180
0000C180
00000180
00000180
00000300
00000600
00000C00
000F0000
001B8000
0031C000
0060E000
00E07000
01C03000
03801800
00000000
00000000
00000000
003FC000
01FFF000
03C03C00
07000E00
0E000600
1C000300
18000380
30000180
30000180
600000C0
600000C0
600000C0
600000C0
E00000C0
FFFFFFC0
FFFFFFC0
E0000000
60000000
60000000
60000000
60000000
300000C0
30000180
38000180
18000300
0C000700
07000E00
03803C00
01FFF800
007FC000
ENDCHAR
STARTCHAR 1EC4
ENCODING 7876
SWIDTH 558 0
DWIDTH 31 0
BBX 22 57 5 0
BITMAP
03C040
07F0C0
0638C0
041F80
0C0700
000000
000000
007800
00FC00
00CE00
018700
030380
0601C0
0C00E0
000000
000000
000000
000000
FFFFFC
FFFFFC
C00000
C00000
C00000
C00000
C00000
C00000
C00000
C00000
C00000
C00000
C00000
C00000
C00000
C00000
C00000
C00000
FFFFF0
FFFFF0
C00000
C00000
C00000
C00000
C00000
C00000
C00000
C00000
C00000
C00000
C00000
C00000
C00000
C00000
C00000
C00000
C00000
FFFFFC
FFFFFC
ENDCHAR
STARTCHAR 1EC5
ENCODING 7877
SWIDTH 576 0
DWIDTH 32 0
BBX 26 47 3 0
BITMAP
00781800
00FC1800
01873000
0183F000
0180C000
00000000
00000000
000F0000
001B8000
0031C000
0060E000
00E07000
01C03000
03801800
00000000
00000000
00000000
003FC000
01FFF000
03C03C00
07000E00
0E000600
1C000300
18000380
30000180
30000180
600000C0
600000C0
600000C0
600000C0
E00000C0
FFFFFFC0
FFFFFFC0
E0000000
60000000
60000000
60000000
60000000
300000C0
30000180
38000180
18000300
0C000700
07000E00
03803C00
01FFF800
007FC000
ENDCHAR
STARTCHAR 1EC6
ENCODING 7878
SWIDTH 558 0
DWIDTH 31 0
BBX 22 61 5 -11
BITMAP
007800
00FC00
00CE00
018700
030380
0601C0
0C00E0
000000
000000
000000
000000
FFFFFC
FFFFFC
C00000
C00000
C00000
C00000
C00000
C00000
C00000
C00000
C00000
C00000
C00000
C00000
C00000
C00000
C00000
C00000
FFFFF0
FFFFF0
C00000
C00000
C00000
C00000
C00000
C00000
C00000
C00000
C00000
C00000
C00000
C00000
C00000
C00000
C00000
C00000
C00000
FFFFFC
FFFFFC
000000
000000
000000
000000
000000
000000
000000
003000
007800
007800
003800
ENDCHAR
STARTCHAR 1EC7
ENCODING 7879
SWIDTH 576 0
DWIDTH 32 0
BBX 26 51 3 -11
BITMAP
000F0000
001B8000
0031C000
0060E000
00E07000
01C03000
03801800
00000000
00000000
00000000
003FC000
01FFF000
03C03C00
07000E00
0E000600
1C000300
18000380
30000180
30000180
600000C0
600000C0
600000C0
600000C0
E00000C0
FFFFFFC0
FFFFFFC0
E0000000
60000000
60000000
60000000
60000000
300000C0
30000180
38000180
18000300
0C000700
07000E00
03803C00
01FFF800
007FC000
00000000
00000000
00000000
00000000
00000000
00000000
00000000
000E0000
000F0000
000F0000
000E0000
ENDCHAR
STARTCHAR 1EC8
ENCODING 7880
SWIDTH 216 0
DWIDTH 12 0
BBX 9 52 2 0
BITMAP
1C00
7F00
C300
8180
0180
0180
0300
0600
0C00
0000
0000
0000
0000
1800
1800
1800
1800
1800
1800
1800
1800
1800
1800
1800
1800
1800
1800
1800
1800
1800
1800
1800
1800
1800
1800
1800
1800
1800
1800
1800
1800
1800
1800
1800
1800
1800
1800
1800
1800
1800
1800
1800
ENDCHAR
STARTCHAR 1EC9
ENCODING 7881
SWIDTH 216 0
DWIDTH 12 0
BBX 10 42 1 0
BITMAP
1F00
7F80
6180
C0C0
00C0
0080
0180
0700
0E00
0000
0000
0000
0000
0C00
0C00
0C00
0C00
0C00
0C00
0C00
0C00
0C00
0C00
0C00
0C00
0C00
0C00
0C00
0C00
0C00
0C00
0C00
0C00
0C00
0C00
0C00
0C00
0C00
0C00
0C00
0C00
0C00
ENDCHAR
STARTCHAR 1ECA
ENCODING 7882
SWIDTH 216 0
DWIDTH 12 0
BBX 4 50 4 -11
BITMAP
60
60
60
60
60
60
60
60
60
60
60
60
60
60
60
60
60
60
60
60
60
60
60
60
60
60
60
60
60
60
60
60
60
60
60
60
60
60
60
00
00
00
00
00
00
00
60
F0
F0
F0
ENDCHAR
STARTCHAR 1ECB
ENCODING 7883
SWIDTH 216 0
DWIDTH 12 0
BBX 4 50 4 -11
BITMAP
60
F0
F0
60
00
00
00
00
00
00
60
60
60
60
60
60
60
60
60
60
60
60
60
60
60
60
60
60
60
60
60
60
60
60
60
60
60
60
60
00
00
00
00
00
00
00
60
F0
F0
F0
ENDCHAR
STARTCHAR 1ECC
ENCODING 7884
SWIDTH 738 0
DWIDTH 41 0
BBX 35 51 3 -11
BITMAP
0001F80000
001FFF0000
007C07E000
01E000F000
0380003800
0700001C00
0E00000E00
0C00000700
1800000300
1800000180
3000000180
30000001C0
60000000C0
60000000C0
60000000C0
6000000060
6000000060
4000000060
C000000060
C000000060
C000000060
C000000060
C000000060
6000000060
6000000060
6000000060
60000000C0
60000000C0
30000000C0
3000000180
3800000180
1800000380
1C00000300
0E00000600
0700000E00
0380001C00
01C0007800
00F801E000
003FFFC000
000FFE0000
0000000000
0000000000
0000000000
0000000000
0000000000
0000000000
0000000000
0000E00000
0000F00000
0000F00000
0000E00000
ENDCHAR
STARTCHAR 1ECD
ENCODING 7885
SWIDTH 594 0
DWIDTH 33 0
BBX 27 41 3 -11
BITMAP
003FC000
01FFF000
03C03C00
07000E00
0E000700
1C000300
18000180
30000180
300000C0
600000C0
600000E0
60000060
60000060
E0000060
C0000060
C0000060
C0000060
60000060
60000060
60000060
600000C0
300000C0
300001C0
38000180
1C000300
0C000700
07000E00
03C03C00
01FFF000
007FC000
00000000
00000000
00000000
00000000
00000000
00000000
00000000
000E0000
000F0000
000F0000
000E0000
ENDCHAR
STARTCHAR 1ECE
ENCODING 7886
SWIDTH 738 0
DWIDTH 41 0
BBX 35 52 3 0
BITMAP
0000F00000
0003F80000
00030C0000
0006040000
0000060000
00000C0000
00000C0000
0000180000
0000700000
0000000000
0000000000
0000000000
0001F80000
001FFF0000
007C07E000
01E000F000
0380003800
0700001C00
0E00000E00
0C00000700
1800000300
1800000180
3000000180
30000001C0
60000000C0
60000000C0
60000000C0
6000000060
6000000060
4000000060
C000000060
C000000060
C000000060
C000000060
C000000060
6000000060
6000000060
6000000060
60000000C0
60000000C0
30000000C0
3000000180
3800000180
1800000380
1C00000300
0E00000600
0700000E00
0380001C00
01C0007800
00F801E000
003FFFC000
000FFE0000
ENDCHAR
STARTCHAR 1ECF
ENCODING 7887
SWIDTH 594 0
DWIDTH 33 0
BBX 27 42 3 0
BITMAP
001F0000
003FC000
0030C000
00606000
00006000
0000C000
0001C000
00030000
00060000
00000000
00000000
00000000
003FC000
01FFF000
03C03C00
07000E00
0E000700
1C000300
18000180
30000180
300000C0
600000C0
600000E0
60000060
60000060
E0000060
C0000060
C0000060
C0000060
60000060
60000060
60000060
600000C0
300000C0
300001C0
38000180
1C000300
0C000700
07000E00
03C03C00
01FFF000
007FC000
ENDCHAR
STARTCHAR 1ED0
ENCODING 7888
SWIDTH 738 0
DWIDTH 41 0
BBX 35 59 3 0
BITMAP
0000000700
0000000E00
0000000C00
0000001C00
0000001800
0000003000
0000003000
0000006000
000000C000
0000F08000
0001F80000
0003980000
00070C0000
000E060000
001C030000
0038038000
0000000000
0000000000
0000000000
0001F80000
001FFF0000
007C07E000
01E000F000
0380003800
0700001C00
0E00000E00
0C00000700
1800000300
1800000180
3000000180
30000001C0
60000000C0
60000000C0
60000000C0
6000000060
6000000060
4000000060
C000000060
C000000060
C000000060
C000000060
C000000060
6000000060
6000000060
6000000060
60000000C0
60000000C0
30000000C0
3000000180
3800000180
1800000380
1C00000300
0E00000600
0700000E00
0380001C00
01C0007800
00F801E000
003FFFC000
000FFE0000
ENDCHAR
STARTCHAR 1ED1
ENCODING 7889
SWIDTH 594 0
DWIDTH 33 0
BBX 28 49 3 0
BITMAP
00000070
000000E0
000000C0
00000180
00000180
00000300
00000600
00000600
00000C00
000F0000
001B8000
0031C000
0060E000
00E07000
01C03000
03801800
00000000
00000000
00000000
003FC000
01FFF000
03C03C00
07000E00
0E000700
1C000300
18000180
30000180
300000C0
600000C0
600000E0
60000060
60000060
E0000060
C0000060
C0000060
C0000060
60000060
60000060
60000060
600000C0
300000C0
300001C0
38000180
1C000300
0C000700
07000E00
03C03C00
01FFF000
007FC000
ENDCHAR
STARTCHAR 1ED2
ENCODING 7890
SWIDTH 738 0
DWIDTH 41 0
BBX 35 59 3 0
BITMAP
0000700000
0000300000
0000180000
0000180000
00000C0000
0000060000
0000060000
0000030000
0000010000
0000F18000
0001F80000
0003980000
00070C0000
000E060000
001C030000
0038018000
0000000000
0000000000
0000000000
0001F80000
001FFF0000
007C07E000
01E000F000
0380003800
0700001C00
0E00000E00
0C00000700
1800000300
1800000180
3000000180
30000001C0
60000000C0
60000000C0
60000000C0
6000000060
6000000060
4000000060
C000000060
C000000060
C000000060
C000000060
C000000060
6000000060
6000000060
6000000060
60000000C0
60000000C0
30000000C0
3000000180
3800000180
1800000380
1C00000300
0E00000600
0700000E00
0380001C00
01C0007800
00F801E000
003FFFC000
000FFE0000
ENDCHAR
STARTCHAR 1ED3
ENCODING 7891
SWIDTH 594 0
DWIDTH 33 0
BBX 27 49 3 0
BITMAP
00070000
00038000
00018000
0001C000
0000C000
00006000
00002000
00003000
00001800
000F0000
001B8000
0031C000
0060E000
00E07000
01C03000
03801800
00000000
00000000
00000000
003FC000
01FFF000
03C03C00
07000E00
0E000700
1C000300
18000180
30000180
300000C0
600000C0
600000E0
60000060
60000060
E0000060
C0000060
C0000060
C0000060
60000060
60000060
60000060
600000C0
300000C0
300001C0
38000180
1C000300
0C000700
07000E00
03C03C00
01FFF000
007FC000
ENDCHAR
STARTCHAR 1ED4
ENCODING 7892
SWIDTH 738 0
DWIDTH 41 0
BBX 35 59 3 0
BITMAP
0000008000
000007F000
00000E3800
00000C1800
0000001800
0000001800
0000001800
0000007000
000000C000
0000F0C000
0001F80000
0003980000
00070C0000
000E060000
001C030000
0038038000
0000000000
0000000000
0000000000
0001F80000
001FFF0000
007C07E000
01E000F000
0380003800
0700001C00
0E00000E00
0C00000700
1800000300
1800000180
3000000180
30000001C0
60000000C0
60000000C0
60000000C0
6000000060
6000000060
4000000060
C000000060
C000000060
C000000060
C000000060
C000000060
6000000060
6000000060
6000000060
60000000C0
60000000C0
30000000C0
3000000180
3800000180
1800000380
1C00000300
0E00000600
0700000E00
0380001C00
01C0007800
00F801E000
003FFFC000
000FFE0000
ENDCHAR
STARTCHAR 1ED5
ENCODING 7893
SWIDTH 594 0
DWIDTH 33 0
BBX 27 49 3 0
BITMAP
00001E00
00007F00
0000C180
0000C180
00000180
00000180
00000300
00000600
00000C00
000F0000
001B8000
0031C000
0060E000
00E07000
01C03000
03801800
00000000
00000000
00000000
003FC000
01FFF000
03C03C00
07000E00
0E000700
1C000300
18000180
30000180
300000C0
600000C0
600000E0
60000060
60000060
E0000060
C0000060
C0000060
C0000060
60000060
60000060
60000060
600000C0
300000C0
300001C0
38000180
1C000300
0C000700
07000E00
03C03C00
01FFF000
007FC000
ENDCHAR
STARTCHAR 1ED6
ENCODING 7894
SWIDTH 738 0
DWIDTH 41 0
BBX 35 57 3 0
BITMAP
0007818000
000FC18000
0018610000
00183F0000
00181E0000
0000000000
0000000000
0000F00000
0001F80000
0003980000
00070C0000
000E060000
001C030000
0038038000
0000000000
0000000000
0000000000
0001F80000
001FFF0000
007C07E000
01E000F000
0380003800
0700001C00
0E00000E00
0C00000700
1800000300
1800000180
3000000180
30000001C0
60000000C0
60000000C0
60000000C0
6000000060
6000000060
4000000060
C000000060
C000000060
C000000060
C000000060
C000000060
6000000060
6000000060
6000000060
60000000C0
60000000C0
30000000C0
3000000180
3800000180
1800000380
1C00000300
0E00000600
0700000E00
0380001C00
01C0007800
00F801E000
003FFFC000
000FFE0000
ENDCHAR
STARTCHAR 1ED7
ENCODING 7895
SWIDTH 594 0
DWIDTH 33 0
BBX 27 47 3 0
BITMAP
00781800
00FC1800
01873000
0183F000
0180C000
00000000
00000000
000F0000
001B8000
0031C000
0060E000
00E07000
01C03000
03801800
00000000
00000000
00000000
003FC000
01FFF000
03C03C00
07000E00
0E000700
1C000300
18000180
30000180
300000C0
600000C0
600000E0
60000060
60000060
E0000060
C0000060
C0000060
C0000060
60000060
60000060
60000060
600000C0
300000C0
300001C0
38000180
1C000300
0C000700
07000E00
03C03C00
01FFF000
007FC000
ENDCHAR
STARTCHAR 1ED8
ENCODING 7896
SWIDTH 738 0
DWIDTH 41 0
BBX 35 61 3 -11
BITMAP
0000F00000
0001F80000
0003980000
00070C0000
000E060000
001C030000
0038018000
0000000000
0000000000
0000000000
0001F80000
001FFF0000
007C07E000
01E000F000
0380003800
0700001C00
0E00000E00
0C00000700
1800000300
1800000180
3000000180
30000001C0
60000000C0
60000000C0
60000000C0
6000000060
6000000060
4000000060
C000000060
C000000060
C000000060
C000000060
C000000060
6000000060
6000000060
6000000060
60000000C0
60000000C0
30000000C0
3000000180
3800000180
1800000380
1C00000300
0E00000600
0700000E00
0380001C00
01C0007800
00F801E000
003FFFC000
000FFE0000
0000000000
0000000000
0000000000
0000000000
0000000000
0000000000
0000000000
0000E00000
0000F00000
0000F00000
0000E00000
ENDCHAR
STARTCHAR 1ED9
ENCODING 7897
SWIDTH 594 0
DWIDTH 33 0
BBX 27 51 3 -11
BITMAP
000F0000
001B8000
0031C000
0060E000
00E07000
01C03000
03801800
00000000
00000000
00000000
003FC000
01FFF000
03C03C00
07000E00
0E000700
1C000300
18000180
30000180
300000C0
600000C0
600000E0
60000060
60000060
E0000060
C0000060
C0000060
C0000060
60000060
60000060
60000060
600000C0
300000C0
300001C0
38000180
1C000300
0C000700
07000E00
03C03C00
01FFF000
007FC000
00000000
00000000
00000000
00000000
00000000
00000000
00000000
000E0000
000F0000
000F0000
000E0000
ENDCHAR
STARTCHAR 1EDA
ENCODING 7898
SWIDTH 738 0
DWIDTH 41 0
BBX 35 52 3 0
BITMAP
0000038000
0000030000
0000060000
0000060000
00000C0000
0000180000
0000180000
0000300000
0000200000
0000000E00
0000000E00
0000000C00
0001F80C00
001FFFFC00
007C07F000
01E000F000
0380003800
0700001C00
0E00000E00
0C00000700
1800000300
1800000180
3000000180
30000001C0
60000000C0
60000000C0
60000000C0
6000000060
6000000060
4000000060
C000000060
C000000060
C000000060
C000000060
C000000060
6000000060
6000000060
6000000060
60000000C0
60000000C0
30000000C0
3000000180
3800000180
1800000380
1C00000300
0E00000600
0700000E00
0380001C00
01C0007800
00F801E000
003FFFC000
000FFE0000
ENDCHAR
STARTCHAR 1EDB
ENCODING 7899
SWIDTH 594 0
DWIDTH 33 0
BBX 27 42 3 0
BITMAP
00003800
00003000
00006000
0000E000
0000C000
00018000
00018000
00030000
000200C0
000000C0
000000C0
000000C0
003FC180
01FFFF80
03C03C00
07000E00
0E000700
1C000300
18000180
30000180
300000C0
600000C0
600000C0
60000060
60000060
E0000060
C0000060
C0000060
C0000060
60000060
60000060
60000060
600000C0
300000C0
300001C0
38000180
1C000300
0C000700
07000E00
03C03C00
01FFF000
007FC000
ENDCHAR
STARTCHAR 1EDC
ENCODING 7900
SWIDTH 738 0
DWIDTH 41 0
BBX 35 52 3 0
BITMAP
0018000000
001C000000
000C000000
0006000000
0006000000
0003000000
0001800000
0001800000
0000C00000
0000000E00
0000000E00
0000000C00
0001F80C00
001FFFFC00
007C07F000
01E000F000
0380003800
0700001C00
0E00000E00
0C00000700
1800000300
1800000180
3000000180
30000001C0
60000000C0
60000000C0
60000000C0
6000000060
6000000060
4000000060
C000000060
C000000060
C000000060
C000000060
C000000060
6000000060
6000000060
6000000060
60000000C0
60000000C0
30000000C0
3000000180
3800000180
1800000380
1C00000300
0E00000600
0700000E00
0380001C00
01C0007800
00F801E000
003FFFC000
000FFE0000
ENDCHAR
STARTCHAR 1EDD
ENCODING 7901
SWIDTH 594 0
DWIDTH 33 0
BBX 27 42 3 0
BITMAP
01800000
00C00000
00E00000
00600000
00300000
00300000
00180000
00080000
000C00C0
000000C0
000000C0
000000C0
003FC180
01FFFF80
03C03C00
07000E00
0E000700
1C000300
18000180
30000180
300000C0
600000C0
600000C0
60000060
60000060
E0000060
C0000060
C0000060
C0000060
60000060
60000060
60000060
600000C0
300000C0
300001C0
38000180
1C000300
0C000700
07000E00
03C03C00
01FFF000
007FC000
ENDCHAR
STARTCHAR 1EDE
ENCODING 7902
SWIDTH 738 0
DWIDTH 41 0
BBX 35 52 3 0
BITMAP
0000F00000
0003F80000
00030C0000
0006040000
0000060000
00000C0000
00000C0000
0000180000
0000700000
0000000E00
0000000E00
0000000C00
0001F80C00
001FFFFC00
007C07F000
01E000F000
0380003800
0700001C00
0E00000E00
0C00000700
1800000300
1800000180
3000000180
30000001C0
60000000C0
60000000C0
60000000C0
6000000060
6000000060
4000000060
C000000060
C000000060
C000000060
C000000060
C000000060
6000000060
6000000060
6000000060
60000000C0
60000000C0
30000000C0
3000000180
3800000180
1800000380
1C00000300
0E00000600
0700000E00
0380001C00
01C0007800
00F801E000
003FFFC000
000FFE0000
ENDCHAR
STARTCHAR 1EDF
ENCODING 7903
SWIDTH 594 0
DWIDTH 33 0
BBX 27 42 3 0
BITMAP
001F0000
003FC000
0030C000
00606000
00006000
0000C000
0001C000
00030000
000600C0
000000C0
000000C0
000000C0
003FC180
01FFFF80
03C03C00
07000E00
0E000700
1C000300
18000180
30000180
300000C0
600000C0
600000C0
60000060
60000060
E0000060
C0000060
C0000060
C0000060
60000060
60000060
60000060
600000C0
300000C0
300001C0
38000180
1C000300
0C000700
07000E00
03C03C00
01FFF000
007FC000
ENDCHAR
STARTCHAR 1EE0
ENCODING 7904
SWIDTH 738 0
DWIDTH 41 0
BBX 35 50 3 0
BITMAP
0000018000
000F818000
001CC10000
0018730000
00183E0000
0018080000
0000000000
0000000E00
0000000E00
0000000C00
0001F80C00
001FFFFC00
007C07F000
01E000F000
0380003800
0700001C00
0E00000E00
0C00000700
1800000300
1800000180
3000000180
30000001C0
60000000C0
60000000C0
60000000C0
6000000060
6000000060
4000000060
C000000060
C000000060
C000000060
C000000060
C000000060
6000000060
6000000060
6000000060
60000000C0
60000000C0
30000000C0
3000000180
3800000180
1800000380
1C00000300
0E00000600
0700000E00
0380001C00
01C0007800
00F801E000
003FFFC000
000FFE0000
ENDCHAR
STARTCHAR 1EE1
ENCODING 7905
SWIDTH 594 0
DWIDTH 33 0
BBX 27 40 3 0
BITMAP
00301800
00FC1800
018E3000
01877000
0181E000
00000000
000000C0
000000C0
000000C0
000000C0
003FC180
01FFFF80
03C03C00
07000E00
0E000700
1C000300
18000180
30000180
300000C0
600000C0
600000C0
60000060
60000060
E0000060
C0000060
C0000060
C0000060
60000060
60000060
60000060
600000C0
300000C0
300001C0
38000180
1C000300
0C000700
07000E00
03C03C00
01FFF000
007FC000
ENDCHAR
STARTCHAR 1EE2
ENCODING 7906
SWIDTH 738 0
DWIDTH 41 0
BBX 35 54 3 -11
BITMAP
0000000E00
0000000E00
0000000C00
0001F80C00
001FFFFC00
007C07F000
01E000F000
0380003800
0700001C00
0E00000E00
0C00000700
1800000300
1800000180
3000000180
30000001C0
60000000C0
60000000C0
60000000C0
6000000060
6000000060
4000000060
C000000060
C000000060
C000000060
C000000060
C000000060
6000000060
6000000060
6000000060
60000000C0
60000000C0
30000000C0
3000000180
3800000180
1800000380
1C00000300
0E00000600
0700000E00
0380001C00
01C0007800
00F801E000
003FFFC000
000FFE0000
0000000000
0000000000
0000000000
0000000000
0000000000
0000000000
0000000000
0000E00000
0000F00000
0000F00000
0000E00000
ENDCHAR
STARTCHAR 1EE3
ENCODING 7907
SWIDTH 594 0
DWIDTH 33 0
BBX 27 45 3 -11
BITMAP
000000C0
000000C0
000000C0
000000C0
003FC180
01FFFF80
03C03C00
07000E00
0E000700
1C000300
18000180
30000180
300000C0
600000C0
600000C0
60000060
60000060
E0000060
C0000060
C0000060
C0000060
60000060
60000060
60000060
600000C0
300000C0
300001C0
38000180
1C000300
0C000700
07000E00
03C03C00
01FFF000
007FC000
00000000
00000000
00000000
00000000
00000000
00000000
00000000
000E0000
000F0000
000F0000
000E0000
ENDCHAR
STARTCHAR 1EE4
ENCODING 7908
SWIDTH 666 0
DWIDTH 37 0
BBX 30 50 4 -11
BITMAP
C000000C
C000000C
C000000C
C000000C
C000000C
C000000C
C000000C
C000000C
C000000C
C000000C
C000000C
C000000C
C000000C
C000000C
C000000C
C000000C
C000000C
C000000C
C000000C
C000000C
C000000C
C000000C
C000000C
C000000C
C000000C
C000000C
40000018
60000018
60000018
60000018
30000030
30000030
30000070
18000060
0C0000C0
0E0001C0
07800780
01FCFE00
007FF800
00030000
00000000
00000000
00000000
00000000
00000000
00000000
00030000
00078000
00078000
00078000
ENDCHAR
STARTCHAR 1EE5
ENCODING 7909
SWIDTH 612 0
DWIDTH 34 0
BBX 24 40 5 -11
BITMAP
C00001
C00001
C00001
C00001
C00001
C00001
C00001
C00001
C00001
C00001
C00001
C00001
C00001
C00001
C00001
C00001
C00001
C00003
C00003
C00003
400003
600003
600007
30000D
380019
1C0031
0F00E1
07FFC1
01FF01
001000
000000
000000
000000
000000
000000
000000
003000
007800
007800
007800
ENDCHAR
STARTCHAR 1EE6
ENCODING 7910
SWIDTH 666 0
DWIDTH 37 0
BBX 30 53 4 -1
BITMAP
00078000
000FE000
00186000
00103000
00003000
00003000
00006000
0000C000
00018000
00000000
00000000
00000000
00000000
C000000C
C000000C
C000000C
C000000C
C000000C
C000000C
C000000C
C000000C
C000000C
C000000C
C000000C
C000000C
C000000C
C000000C
C000000C
C000000C
C000000C
C000000C
C000000C
C000000C
C000000C
C000000C
C000000C
C000000C
C000000C
C000000C
40000018
60000018
60000018
60000018
30000030
30000030
30000070
18000060
0C0000C0
0E0001C0
07800780
01FCFE00
007FF800
00030000
ENDCHAR
STARTCHAR 1EE7
ENCODING 7911
SWIDTH 612 0
DWIDTH 34 0
BBX 24 43 5 -1
BITMAP
007C00
00FE00
018300
030300
000300
000300
000600
000C00
001800
000000
000000
000000
000000
C00001
C00001
C00001
C00001
C00001
C00001
C00001
C00001
C00001
C00001
C00001
C00001
C00001
C00001
C00001
C00001
C00001
C00003
C00003
C00003
400003
600003
600007
30000D
380019
1C0031
0F00E1
07FFC1
01FF01
001000
ENDCHAR
STARTCHAR 1EE8
ENCODING 7912
SWIDTH 666 0
DWIDTH 37 0
BBX 35 53 4 -1
BITMAP
00000C0000
00001C0000
0000380000
0000300000
0000600000
0000600000
0000C00000
0000800000
0001800000
0000000060
0000000060
0000000060
0000000060
C000000FC0
C000000F80
C000000C00
C000000C00
C000000C00
C000000C00
C000000C00
C000000C00
C000000C00
C000000C00
C000000C00
C000000C00
C000000C00
C000000C00
C000000C00
C000000C00
C000000C00
C000000C00
C000000C00
C000000C00
C000000C00
C000000C00
C000000C00
C000000C00
C000000C00
C000000C00
4000001800
6000001800
6000001800
6000001800
3000003000
3000003000
3000007000
1800006000
0C0000C000
0E0001C000
0780078000
01FCFE0000
007FF80000
0003000000
ENDCHAR
STARTCHAR 1EE9
ENCODING 7913
SWIDTH 612 0
DWIDTH 34 0
BBX 30 43 5 -1
BITMAP
0000C000
00018000
00038000
00030000
00060000
00060000
000C0000
00180000
0018000C
0000000C
0000000C
0000000C
00000018
C00001F8
C00001C0
C0000100
C0000100
C0000100
C0000100
C0000100
C0000100
C0000100
C0000100
C0000100
C0000100
C0000100
C0000100
C0000100
C0000100
C0000100
C0000300
C0000300
C0000300
40000300
60000300
60000700
30000D00
38001900
1C003100
0F00E100
07FFC100
01FF0100
00100000
ENDCHAR
STARTCHAR 1EEA
ENCODING 7914
SWIDTH 666 0
DWIDTH 37 0
BBX 35 53 4 -1
BITMAP
00C0000000
0060000000
0070000000
0030000000
0018000000
0018000000
000C000000
0006000000
0006000000
0000000060
0000000060
0000000060
0000000060
C000000FC0
C000000F80
C000000C00
C000000C00
C000000C00
C000000C00
C000000C00
C000000C00
C000000C00
C000000C00
C000000C00
C000000C00
C000000C00
C000000C00
C000000C00
C000000C00
C000000C00
C000000C00
C000000C00
C000000C00
C000000C00
C000000C00
C000000C00
C000000C00
C000000C00
C000000C00
4000001800
6000001800
6000001800
6000001800
3000003000
3000003000
3000007000
1800006000
0C0000C000
0E0001C000
0780078000
01FCFE0000
007FF80000
0003000000
ENDCHAR
STARTCHAR 1EEB
ENCODING 7915
SWIDTH 612 0
DWIDTH 34 0
BBX 30 43 5 -1
BITMAP
0E000000
06000000
03000000
03000000
01800000
00C00000
00C00000
00600000
0020000C
0000000C
0000000C
0000000C
00000018
C00001F8
C00001C0
C0000100
C0000100
C0000100
C0000100
C0000100
C0000100
C0000100
C0000100
C0000100
C0000100
C0000100
C0000100
C0000100
C0000100
C0000100
C0000300
C0000300
C0000300
40000300
60000300
60000700
30000D00
38001900
1C003100
0F00E100
07FFC100
01FF0100
00100000
ENDCHAR
STARTCHAR 1EEC
ENCODING 7916
SWIDTH 666 0
DWIDTH 37 0
BBX 35 53 4 -1
BITMAP
0007800000
000FE00000
0018600000
0010300000
0000300000
0000300000
0000600000
0000C00000
0001800000
0000000060
0000000060
0000000060
0000000060
C000000FC0
C000000F80
C000000C00
C000000C00
C000000C00
C000000C00
C000000C00
C000000C00
C000000C00
C000000C00
C000000C00
C000000C00
C000000C00
C000000C00
C000000C00
C000000C00
C000000C00
C000000C00
C000000C00
C000000C00
C000000C00
C000000C00
C000000C00
C000000C00
C000000C00
C000000C00
4000001800
6000001800
6000001800
6000001800
3000003000
3000003000
3000007000
1800006000
0C0000C000
0E0001C000
0780078000
01FCFE0000
007FF80000
0003000000
ENDCHAR
STARTCHAR 1EED
ENCODING 7917
SWIDTH 612 0
DWIDTH 34 0
BBX 30 43 5 -1
BITMAP
007C0000
00FE0000
01830000
03030000
00030000
00030000
00060000
000C0000
0018000C
0000000C
0000000C
0000000C
00000018
C00001F8
C00001C0
C0000100
C0000100
C0000100
C0000100
C0000100
C0000100
C0000100
C0000100
C0000100
C0000100
C0000100
C0000100
C0000100
C0000100
C0000100
C0000300
C0000300
C0000300
40000300
60000300
60000700
30000D00
38001900
1C003100
0F00E100
07FFC100
01FF0100
00100000
ENDCHAR
STARTCHAR 1EEE
ENCODING 7918
SWIDTH 666 0
DWIDTH 37 0
BBX 35 51 4 -1
BITMAP
00000C0000
007E0C0000
00670C0000
00C3980000
00C1F80000
00C0000000
0000000000
0000000060
0000000060
0000000060
0000000060
C000000FC0
C000000F80
C000000C00
C000000C00
C000000C00
C000000C00
C000000C00
C000000C00
C000000C00
C000000C00
C000000C00
C000000C00
C000000C00
C000000C00
C000000C00
C000000C00
C000000C00
C000000C00
C000000C00
C000000C00
C000000C00
C000000C00
C000000C00
C000000C00
C000000C00
C000000C00
4000001800
6000001800
6000001800
6000001800
3000003000
3000003000
3000007000
1800006000
0C0000C000
0E0001C000
0780078000
01FCFE0000
007FF80000
0003000000
ENDCHAR
STARTCHAR 1EEF
ENCODING 7919
SWIDTH 594 0
DWIDTH 33 0
BBX 30 41 5 -1
BITMAP
00C06000
03F06000
03186000
060FC000
06078000
00000000
0000000C
0000000C
0000000C
0000000C
00000018
C00001F8
C00001C0
C0000100
C0000100
C0000100
C0000100
C0000100
C0000100
C0000100
C0000100
C0000100
C0000100
C0000100
C0000100
C0000100
C0000100
C0000100
C0000300
C0000300
C0000300
40000300
60000300
60000700
30000D00
38001900
1C003100
0F00E100
07FFC100
01FF0100
00100000
ENDCHAR
STARTCHAR 1EF0
ENCODING 7920
SWIDTH 666 0
DWIDTH 37 0
BBX 35 54 4 -11
BITMAP
0000000060
0000000060
0000000060
0000000060
C000000FC0
C000000F80
C000000C00
C000000C00
C000000C00
C000000C00
C000000C00
C000000C00
C000000C00
C000000C00
C000000C00
C000000C00
C000000C00
C000000C00
C000000C00
C000000C00
C000000C00
C000000C00
C000000C00
C000000C00
C000000C00
C000000C00
C000000C00
C000000C00
C000000C00
C000000C00
4000001800
6000001800
6000001800
6000001800
3000003000
3000003000
3000007000
1800006000
0C0000C000
0E0001C000
0780078000
01FCFE0000
007FF80000
0003000000
0000000000
0000000000
0000000000
0000000000
0000000000
0000000000
0003000000
0007800000
0007800000
0007800000
ENDCHAR
STARTCHAR 1EF1
ENCODING 7921
SWIDTH 612 0
DWIDTH 34 0
BBX 30 45 5 -11
BITMAP
0000000C
0000000C
0000000C
0000000C
00000018
C00001F8
C00001C0
C0000100
C0000100
C0000100
C0000100
C0000100
C0000100
C0000100
C0000100
C0000100
C0000100
C0000100
C0000100
C0000100
C0000100
C0000100
C0000300
C0000300
C0000300
40000300
60000300
60000700
30000D00
38001900
1C003100
0F00E100
07FFC100
01FF0100
00100000
00000000
00000000
00000000
00000000
00000000
00000000
00300000
00780000
00780000
00780000
ENDCHAR
STARTCHAR 1EF2
ENCODING 7922
SWIDTH 576 0
DWIDTH 32 0
BBX 26 52 3 0
BITMAP
03000000
01800000
01C00000
00C00000
00600000
00600000
00300000
00180000
00180000
00000000
00000000
00000000
00000000
C00000C0
E00001C0
60000180
70000380
30000300
38000700
18000600
1C000E00
0C000C00
0E001C00
06001800
07003800
03003000
03807000
01806000
01C0E000
00C0C000
00E18000
00618000
00730000
00330000
001E0000
001E0000
000C0000
000C0000
000C0000
000C0000
000C0000
000C0000
000C0000
000C0000
000C0000
000C0000
000C0000
000C0000
000C0000
000C0000
000C0000
000C0000
ENDCHAR
STARTCHAR 1EF3
ENCODING 7923
SWIDTH 522 0
DWIDTH 29 0
BBX 25 52 2 -10
BITMAP
07000000
03800000
01800000
00C00000
00C00000
00600000
00200000
00300000
00180000
00000000
00000000
00000000
00000000
E0000180
60000380
60000300
30000300
30000600
38000600
18000C00
18000C00
0C001C00
0C001800
0E001800
06003000
06003000
03006000
03006000
0180C000
0180C000
0180C000
00C18000
00C18000
00630000
00630000
00660000
00360000
00360000
001C0000
001C0000
00180000
00180000
00300000
00300000
00600000
00600000
00E00000
00C00000
01C00000
03800000
7F000000
7E000000
ENDCHAR
STARTCHAR 1EF4
ENCODING 7924
SWIDTH 576 0
DWIDTH 32 0
BBX 26 50 3 -11
BITMAP
C00000C0
E00001C0
60000180
70000380
30000300
38000700
18000600
1C000E00
0C000C00
0E001C00
06001800
07003800
03003000
03807000
01806000
01C0E000
00C0C000
00E18000
00618000
00730000
00330000
001E0000
001E0000
000C0000
000C0000
000C0000
000C0000
000C0000
000C0000
000C0000
000C0000
000C0000
000C0000
000C0000
000C0000
000C0000
000C0000
000C0000
000C0000
00000000
00000000
00000000
00000000
00000000
00000000
00000000
000C0000
001E0000
001E0000
001E0000
ENDCHAR
STARTCHAR 1EF5
ENCODING 7925
SWIDTH 522 0
DWIDTH 29 0
BBX 25 40 2 -11
BITMAP
E0000180
60000380
60000300
30000300
30000600
38000600
18000C00
18000C00
0C001C00
0C001800
0E001800
06003000
06003000
03006000
03006000
0180C000
0180C000
0180C000
00C18000
00C18000
00630000
00630000
00660000
00360000
00360000
001C0000
001C0000
00180000
00180000
00300000
00300000
00600000
00600000
00E00000
00C00000
01C00000
03803000
7F007800
7E007800
00003800
ENDCHAR
STARTCHAR 1EF6
ENCODING 7926
SWIDTH 576 0
DWIDTH 32 0
BBX 26 52 3 0
BITMAP
001E0000
003F8000
00618000
00C0C000
0000C000
0000C000
00018000
00030000
00060000
00000000
00000000
00000000
00000000
C00000C0
E00001C0
60000180
70000380
30000300
38000700
18000600
1C000E00
0C000C00
0E001C00
06001800
07003800
03003000
03807000
01806000
01C0E000
00C0C000
00E18000
00618000
00730000
00330000
001E0000
001E0000
000C0000
000C0000
000C0000
000C0000
000C0000
000C0000
000C0000
000C0000
000C0000
000C0000
000C0000
000C0000
000C0000
000C0000
000C0000
000C0000
ENDCHAR
STARTCHAR 1EF7
ENCODING 7927
SWIDTH 522 0
DWIDTH 29 0
BBX 25 52 2 -10
BITMAP
003E0000
007F0000
00C18000
00C18000
00018000
00018000
00030000
00060000
000C0000
00000000
00000000
00000000
00000000
E0000180
60000380
60000300
30000300
30000600
38000600
18000C00
18000C00
0C001C00
0C001800
0E001800
06003000
06003000
03006000
03006000
0180C000
0180C000
0180C000
00C18000
00C18000
00630000
00630000
00660000
00360000
00360000
001C0000
001C0000
00180000
00180000
00300000
00300000
00600000
00600000
00E00000
00C00000
01C00000
03800000
7F000000
7E000000
ENDCHAR
STARTCHAR 1EF8
ENCODING 7928
SWIDTH 576 0
DWIDTH 32 0
BBX 26 50 3 0
BITMAP
00003000
01F83000
019C3000
030E6000
0307E000
03000000
00000000
00000000
00000000
00000000
00000000
C00000C0
E00001C0
60000180
70000380
30000300
38000700
18000600
1C000E00
0C000C00
0E001C00
06001800
07003800
03003000
03807000
01806000
01C0E000
00C0C000
00E18000
00618000
00730000
00330000
001E0000
001E0000
000C0000
000C0000
000C0000
000C0000
000C0000
000C0000
000C0000
000C0000
000C0000
000C0000
000C0000
000C0000
000C0000
000C0000
000C0000
000C0000
ENDCHAR
STARTCHAR 1EF9
ENCODING 7929
SWIDTH 522 0
DWIDTH 29 0
BBX 25 50 2 -10
BITMAP
00E02000
01F06000
03186000
020EC000
0607C000
00000000
00000000
00000000
00000000
00000000
00000000
E0000180
60000380
60000300
30000300
30000600
38000600
18000C00
18000C00
0C001C00
0C001800
0E001800
06003000
06003000
03006000
03006000
0180C000
0180C000
0180C000
00C18000
00C18000
00630000
00630000
00660000
00360000
00360000
001C0000
001C0000
00180000
00180000
00300000
00300000
00600000
00600000
00E00000
00C00000
01C00000
03800000
7F000000
7E000000
ENDCHAR
STARTCHAR 2013
ENCODING 8211
SWIDTH 648 0
DWIDTH 36 0
BBX 23 2 7 16
BITMAP
FFFFFE
FFFFFE
ENDCHAR
STARTCHAR 2014
ENCODING 8212
SWIDTH 774 0
DWIDTH 43 0
BBX 29 2 7 16
BITMAP
FFFFFFF8
FFFFFFF8
ENDCHAR
STARTCHAR 2018
ENCODING 8216
SWIDTH 270 0
DWIDTH 15 0
BBX 5 12 6 29
BITMAP
08
18
30
60
40
C0
C0
C0
F8
F8
78
70
ENDCHAR
STARTCHAR 2019
ENCODING 8217
SWIDTH 252 0
DWIDTH 14 0
BBX 5 11 6 24
BITMAP
F0
F8
F8
F8
18
18
18
10
30
60
C0
ENDCHAR
STARTCHAR 201A
ENCODING 8218
SWIDTH 288 0
DWIDTH 16 0
BBX 6 11 4 -8
BITMAP
78
F8
FC
7C
0C
0C
08
18
18
30
60
ENDCHAR
STARTCHAR 201C
ENCODING 8220
SWIDTH 486 0
DWIDTH 27 0
BBX 17 12 6 29
BITMAP
000100
180300
300600
600C00
400800
C01800
C01800
C01C00
F81F00
F81F80
780F00
780600
ENDCHAR
STARTCHAR 201D
ENCODING 8221
SWIDTH 486 0
DWIDTH 27 0
BBX 16 11 5 26
BITMAP
F80F
F81F
F81F
380F
1803
1803
1803
1803
3006
600C
C018
ENDCHAR
STARTCHAR 201E
ENCODING 8222
SWIDTH 486 0
DWIDTH 27 0
BBX 16 12 5 -8
BITMAP
F01E
F81F
F81F
F81F
1803
1803
1803
1002
3006
600C
C018
8010
ENDCHAR
STARTCHAR 2020
ENCODING 8224
SWIDTH 558 0
DWIDTH 31 0
BBX 20 52 6 -13
BITMAP
006000
006000
006000
006000
006000
006000
006000
006000
006000
006000
FFFFF0
FFFFF0
006000
006000
006000
006000
006000
006000
006000
006000
006000
006000
006000
006000
006000
006000
006000
006000
006000
006000
006000
006000
006000
006000
006000
006000
006000
006000
006000
006000
006000
006000
006000
006000
006000
006000
006000
006000
006000
006000
006000
006000
ENDCHAR
STARTCHAR 2021
ENCODING 8225
SWIDTH 558 0
DWIDTH 31 0
BBX 20 52 6 -13
BITMAP
006000
006000
006000
006000
006000
006000
006000
006000
006000
006000
FFFFF0
FFFFF0
006000
006000
006000
006000
006000
006000
006000
006000
006000
006000
006000
006000
006000
006000
006000
006000
006000
006000
006000
006000
006000
006000
006000
006000
006000
006000
006000
006000
FFFFF0
FFFFF0
006000
006000
006000
006000
006000
006000
006000
006000
006000
006000
ENDCHAR
STARTCHAR 2022
ENCODING 8226
SWIDTH 288 0
DWIDTH 16 0
BBX 8 8 4 17
BITMAP
1C
7E
7F
FF
FF
7F
7F
3C
ENDCHAR
STARTCHAR 2026
ENCODING 8230
SWIDTH 720 0
DWIDTH 40 0
BBX 31 4 4 0
BITMAP
6003001C
F007801E
F007801E
E007801C
ENDCHAR
STARTCHAR 2030
ENCODING 8240
SWIDTH 1224 0
DWIDTH 68 0
BBX 66 40 1 -1
BITMAP
0FF00001C000000000
181800018000000000
300C00038000000000
600C00030000000000
600600070000000000
600600060000000000
E006000E0000000000
E006000C0000000000
E006001C0000000000
600600180000000000
600600300000000000
600C00300000000000
300C00600000000000
381800600000000000
0FF000C00000000000
01C000C00000000000
000001800000000000
000001800000000000
000003000000000000
000003000000000000
000006000000000000
000006000000000000
00000C000000000000
00000C000000000000
000018003FC001FE00
00001800E060070300
00003000C030060180
0000300180300C0180
0000600180180C00C0
0000600380181C00C0
0000C00300181800C0
0000C00300181800C0
0001800300181800C0
0003800380181C00C0
0003000180180C00C0
0007000180300C0180
00060000C030060180
000E0000E060070300
000C00003FC001FE00
000000000400002000
ENDCHAR
STARTCHAR 2039
ENCODING 8249
SWIDTH 324 0
DWIDTH 18 0
BBX 13 22 3 7
BITMAP
0038
0060
00C0
0180
0300
0600
0C00
1800
3000
6000
E000
C000
6000
3000
1800
0C00
0600
0300
0180
00C0
0060
0038
ENDCHAR
STARTCHAR 203A
ENCODING 8250
SWIDTH 324 0
DWIDTH 18 0
BBX 13 22 3 7
BITMAP
E000
7000
3800
1C00
0E00
0700
0380
01C0
00C0
0060
0030
0038
0070
00E0
01C0
0380
0700
0E00
1C00
3800
7000
E000
ENDCHAR
STARTCHAR 2044
ENCODING 8260
SWIDTH 450 0
DWIDTH 25 0
BBX 25 39 0 0
BITMAP
00000180
00000300
00000600
00000600
00000C00
00000C00
00001800
00003000
00003000
00006000
00006000
0000C000
00018000
00018000
00030000
00030000
00060000
000C0000
000C0000
00180000
00180000
00300000
00700000
00600000
00C00000
00C00000
01800000
03800000
03000000
06000000
06000000
0C000000
1C000000
18000000
30000000
30000000
60000000
E0000000
C0000000
ENDCHAR
STARTCHAR 2070
ENCODING 8304
SWIDTH 306 0
DWIDTH 17 0
BBX 14 21 2 21
BITMAP
0FC0
1CE0
3030
6018
6018
C00C
C00C
C00C
C00C
8004
8004
8004
C00C
C00C
C00C
C00C
4008
6018
3030
3870
0FC0
ENDCHAR
STARTCHAR 2074
ENCODING 8308
SWIDTH 324 0
DWIDTH 18 0
BBX 14 21 2 21
BITMAP
0060
00E0
01E0
01E0
0360
0660
0660
0C60
1860
1060
3060
6060
4060
C060
FFFC
FFFC
0060
0060
0060
0060
0060
ENDCHAR
STARTCHAR 2075
ENCODING 8309
SWIDTH 306 0
DWIDTH 17 0
BBX 13 21 2 21
BITMAP
7FF0
7FF0
C000
C000
C000
C000
C800
DFC0
E060
E030
C018
0018
0008
0008
0008
0008
C018
C010
6030
3FE0
0F80
ENDCHAR
STARTCHAR 2076
ENCODING 8310
SWIDTH 306 0
DWIDTH 17 0
BBX 13 21 2 21
BITMAP
0300
0200
0600
0C00
0800
1800
3000
2000
6FC0
78E0
E030
C018
C018
8008
8008
8008
C018
C018
6030
3DE0
0F80
ENDCHAR
STARTCHAR 2077
ENCODING 8311
SWIDTH 270 0
DWIDTH 15 0
BBX 12 21 2 21
BITMAP
FFF0
FFF0
0030
0020
0060
0060
0040
00C0
0080
0180
0100
0300
0300
0600
0600
0400
0C00
0800
1800
1800
3000
ENDCHAR
STARTCHAR 2078
ENCODING 8312
SWIDTH 306 0
DWIDTH 17 0
BBX 14 21 2 21
BITMAP
0FC0
3870
2010
6018
4008
4008
4008
6018
3030
1FE0
1FE0
7038
4018
C00C
800C
8004
C00C
C00C
6018
7030
1FE0
ENDCHAR
STARTCHAR 2079
ENCODING 8313
SWIDTH 306 0
DWIDTH 17 0
BBX 13 21 2 21
BITMAP
0F80
3FE0
6030
C018
C018
8008
8008
8008
C018
C018
6038
7070
1FF0
0230
0060
00C0
00C0
0180
0300
0300
0600
ENDCHAR
STARTCHAR 2080
ENCODING 8320
SWIDTH 306 0
DWIDTH 17 0
BBX 14 22 2 -14
BITMAP
0780
1FE0
3030
6018
6018
C008
C00C
C00C
C00C
800C
800C
800C
800C
C00C
C00C
C00C
C008
6018
6018
3030
1FE0
0780
ENDCHAR
STARTCHAR 2081
ENCODING 8321
SWIDTH 216 0
DWIDTH 12 0
BBX 9 21 2 -14
BITMAP
1800
3800
6800
C800
8800
0800
0800
0800
0800
0800
0800
0800
0800
0800
0800
0800
0800
0800
0800
FF80
FF80
ENDCHAR
STARTCHAR 2082
ENCODING 8322
SWIDTH 288 0
DWIDTH 16 0
BBX 13 21 2 -14
BITMAP
1FC0
38E0
6030
C030
C018
C018
0018
0010
0030
0060
0060
00C0
0180
0700
0E00
1C00
3800
7000
E000
FFF8
FFF8
ENDCHAR
STARTCHAR 2083
ENCODING 8323
SWIDTH 288 0
DWIDTH 16 0
BBX 13 22 2 -14
BITMAP
0700
3FE0
7070
6030
C018
0018
0018
0018
0030
0070
0FC0
0FE0
0030
0018
0018
0008
0008
C018
C018
6030
3FE0
0F80
ENDCHAR
STARTCHAR 2084
ENCODING 8324
SWIDTH 324 0
DWIDTH 18 0
BBX 14 21 2 -14
BITMAP
0060
00E0
01E0
01E0
0360
0660
0660
0C60
1860
1860
3060
6060
6060
C060
FFFC
FFFC
0060
0060
0060
0060
0060
ENDCHAR
STARTCHAR 2085
ENCODING 8325
SWIDTH 306 0
DWIDTH 17 0
BBX 13 21 2 -14
BITMAP
7FF0
7FF0
C000
C000
C000
C000
C800
DFC0
E8E0
E030
C018
0018
0008
0008
0008
0018
C018
C010
6030
3FE0
0F80
ENDCHAR
STARTCHAR 2086
ENCODING 8326
SWIDTH 306 0
DWIDTH 17 0
BBX 13 21 2 -14
BITMAP
0300
0600
0600
0C00
1800
1800
3000
2200
7FC0
7070
E030
C018
C018
8008
8008
8008
C018
C018
7030
3FE0
0F80
ENDCHAR
STARTCHAR 2087
ENCODING 8327
SWIDTH 270 0
DWIDTH 15 0
BBX 12 21 2 -14
BITMAP
FFF0
FFF0
0030
0020
0060
0060
0040
00C0
0080
0180
0180
0300
0300
0600
0600
0400
0C00
0C00
1800
1800
3000
ENDCHAR
STARTCHAR 2088
ENCODING 8328
SWIDTH 306 0
DWIDTH 17 0
BBX 14 22 2 -14
BITMAP
0300
1FE0
3030
6018
4008
4008
4008
4018
6018
3070
1FC0
3870
6018
C00C
C00C
8004
800C
C00C
C00C
6038
3FF0
0FC0
ENDCHAR
STARTCHAR 2089
ENCODING 8329
SWIDTH 306 0
DWIDTH 17 0
BBX 13 21 2 -14
BITMAP
1FC0
38E0
6030
C018
C018
8008
8008
8008
C018
C018
6038
3CF0
1FB0
0060
0060
00C0
0180
0180
0300
0600
0600
ENDCHAR
STARTCHAR 20AB
ENCODING 8363
SWIDTH 594 0
DWIDTH 33 0
BBX 30 45 2 0
BITMAP
00000040
00000040
00000040
00000040
00000040
0003FFFC
00000040
00000040
00000040
00000040
007FC040
03FFF040
07803840
0E000C40
1C000640
38000340
300001C0
600001C0
600000C0
600000C0
E00000C0
C00000C0
C00000C0
C00000C0
C00000C0
E00000C0
600000C0
600000C0
700001C0
300001C0
38000340
1C000640
0E000C40
07803840
03FFF040
007FC040
00000000
00000000
00000000
00000000
00000000
00000000
00000000
1FFFFFE0
1FFFFFE0
ENDCHAR
STARTCHAR 20AC
ENCODING 8364
SWIDTH 720 0
DWIDTH 40 0
BBX 36 39 1 0
BITMAP
00000E0000
0000FFE000
0003C0F800
000F001E00
001C000700
0038000380
0070000180
00600000C0
00C00000E0
00C0000060
0180000060
0180000030
0180000030
0380000000
0300000000
FFFFF80000
0300000000
0300000000
0300000000
0300000000
0300000000
0300000000
0300000000
FFFFF80000
FFFFF80000
0300000000
0180000000
0180000000
0180000030
01C0000060
00C0000060
00E00000C0
00600001C0
0030000180
0038000300
001E000E00
0007803C00
0003FFF800
0000FFC000
ENDCHAR
STARTCHAR 2122
ENCODING 8482
SWIDTH 360 0
DWIDTH 20 0
BBX 17 9 2 30
BITMAP
FEE180
FEE380
18F380
18F280
18D680
18DC80
18CC80
18C080
18C080
ENDCHAR
STARTCHAR 215B
ENCODING 8539
SWIDTH 864 0
DWIDTH 48 0
BBX 44 39 2 0
BITMAP
0C000000C000
1C0000018000
3C0000018000
6C0000030000
CC0000030000
8C0000060000
0C00000C0000
0C00000C0000
0C0000180000
0C0000180000
0C0000300000
0C0000600000
0C0000600000
0C0000C00000
0C0000C00000
0C0001800000
0C0003000000
0C0003000000
7FC006000000
7FC006001F00
00000C007FC0
00001800E0E0
00001800C060
000030008020
000030018020
000060008020
0000C000C060
0000C00060C0
000180003F80
0001800071C0
00030000C060
000600018030
000600010030
000C00010010
000C00010030
001800018030
00380001C060
00300000F1E0
006000003F80
ENDCHAR
STARTCHAR 215C
ENCODING 8540
SWIDTH 810 0
DWIDTH 45 0
BBX 41 39 2 0
BITMAP
0FC000018000
1FE000030000
303000030000
601800060000
6018000E0000
0018000C0000
001800180000
001800180000
003000300000
07E000700000
07E000600000
003000C00000
001800C00000
001801800000
001803800000
C01803000000
601806000000
703006000000
3FF00C000000
0FC01C00F000
00001803FC00
000030060600
000030060300
0000600C0300
0000E00C0100
0000C00C0300
000180060300
000180070600
00030001FC00
000700039E00
000600060300
000C000C0180
000C00080180
001800180180
003800180180
0030000C0180
0060000E0300
006000078E00
00C00003FC00
ENDCHAR
STARTCHAR 215D
ENCODING 8541
SWIDTH 864 0
DWIDTH 48 0
BBX 43 39 3 0
BITMAP
FFE000018000
FFE000030000
C00000060000
C00000060000
C000000C0000
C000000C0000
CF0000180000
FFC000300000
E06000300000
C03000600000
003000600000
003000C00000
001001800000
003001800000
003003000000
C03003000000
C06006000000
71E00C000000
3F800C000000
000018001E00
00001800FF80
00003001C1C0
0000700180C0
000060010060
0000C0010060
0000C0010040
0001800180C0
00038000C1C0
000300007F00
00060000E380
0006000180C0
000C00030060
001C00030020
001800030020
003000030020
003000030060
0060000180E0
00E00001E3C0
00C000007F00
ENDCHAR
STARTCHAR 215E
ENCODING 8542
SWIDTH 882 0
DWIDTH 49 0
BBX 45 39 2 0
BITMAP
FFF80000C000
FFF800018000
003000018000
003000030000
006000030000
006000060000
0060000C0000
00C0000C0000
00C000180000
018000180000
018000300000
030000600000
030000600000
030000C00000
060000C00000
060001800000
0C0003000000
0C0003000000
180006000000
180006000F00
00000C003FC0
000018006060
00001800C030
00003000C030
00003000C030
00006000C030
0000C0004030
0000C0006060
000180003FC0
0001800079E0
00030000C030
00060000C010
000600018018
000C00018018
000C00018018
001800008018
00380000C030
0030000079E0
006000003FC0
ENDCHAR
STARTCHAR 2212
ENCODING 8722
SWIDTH 594 0
DWIDTH 33 0
BBX 20 2 7 16
BITMAP
FFFFF0
FFFFF0
ENDCHAR
STARTCHAR 2215
ENCODING 8725
SWIDTH 468 0
DWIDTH 26 0
BBX 20 39 5 0
BITMAP
000030
000030
000060
000060
0000C0
0000C0
000180
000180
000300
000300
000600
000600
000C00
000C00
001800
001800
003000
003000
006000
006000
00C000
00C000
018000
018000
030000
030000
070000
060000
0E0000
0C0000
1C0000
180000
380000
300000
700000
600000
600000
C00000
C00000
ENDCHAR
STARTCHAR 2248
ENCODING 8776
SWIDTH 522 0
DWIDTH 29 0
BBX 20 16 5 10
BITMAP
1F8070
3FC060
70F0E0
E03FC0
C00F00
000000
000000
000000
000000
000000
000000
1F8060
3FE0E0
607BC0
E03F80
C00400
ENDCHAR
STARTCHAR 2260
ENCODING 8800
SWIDTH 702 0
DWIDTH 39 0
BBX 26 34 7 1
BITMAP
00000600
00000600
00000C00
00000C00
00001800
00003000
00003000
00006000
00006000
0000C000
FFFFFFC0
FFFFFFC0
00030000
00030000
00060000
00060000
000C0000
001C0000
00180000
00300000
00300000
00600000
FFFFFFC0
FFFFFFC0
01800000
01800000
03000000
03000000
06000000
0E000000
0C000000
18000000
18000000
30000000
ENDCHAR
STARTCHAR 2264
ENCODING 8804
SWIDTH 594 0
DWIDTH 33 0
BBX 22 30 6 0
BITMAP
000008
000038
0000F0
0001C0
000700
001E00
007800
01E000
038000
0E0000
380000
700000
780000
1E0000
078000
01C000
007000
003C00
000F00
0003C0
0000F0
000038
000018
000000
000000
000000
000000
000000
FFFFFC
FFFFFC
ENDCHAR
STARTCHAR 2265
ENCODING 8805
SWIDTH 594 0
DWIDTH 33 0
BBX 22 30 6 0
BITMAP
400000
700000
3C0000
0E0000
078000
01E000
007800
001E00
000700
0001C0
0000F0
000038
000070
0001E0
000780
000E00
003800
00F000
03C000
0F0000
3C0000
700000
600000
000000
000000
000000
000000
000000
FFFFFC
FFFFFC
ENDCHAR
ENDFONT
